M48
; DRILL file {KiCad (5.1.5)-3} date 21-5-2020 22:53:20
; FORMAT={-:-/ absolute / inch / decimal}
; #@! TF.CreationDate,2020-05-21T22:53:20+02:00
; #@! TF.GenerationSoftware,Kicad,Pcbnew,(5.1.5)-3
FMAT,2
INCH
T1C0.0157
T2C0.0236
T3C0.0248
T4C0.0295
T5C0.0315
T6C0.0354
T7C0.0394
T8C0.0409
T9C0.0512
T10C0.0630
T11C0.1260
T12C0.0787
%
G90
G05
T1
X-0.097Y-2.819
X-0.093Y-1.069
X1.446Y-2.004
X2.034Y-0.738
X2.922Y-2.472
X3.039Y-1.984
X3.8687Y-2.0463
X4.3193Y-1.9366
X4.621Y-2.196
X4.7093Y-2.4808
X4.814Y-0.198
X4.963Y-0.611
X5.0524Y-0.9746
X5.4222Y-1.4049
X5.585Y-2.224
X5.6106Y-1.9671
X5.64Y-0.326
X5.642Y-3.757
X5.6695Y-3.1063
X5.7943Y-1.0746
X5.82Y-2.681
X5.9294Y-1.138
X6.1167Y-1.6545
X6.248Y-1.5443
X6.5134Y-2.9053
X6.554Y-2.093
X6.5634Y-2.9553
X6.5989Y-2.9951
X6.6122Y-1.874
X6.615Y-1.8103
X6.7014Y-2.8325
X6.7226Y-1.8182
X6.74Y-1.57
X6.7406Y-3.012
X6.774Y-3.155
X6.824Y-0.883
X6.84Y-1.592
X6.8703Y-2.1059
X6.8707Y-2.9389
X6.888Y-2.9978
X6.8996Y-1.6772
X7.028Y-1.772
X7.61Y-0.526
X7.883Y-1.374
X8.08Y-3.575
X8.512Y-2.808
X8.5441Y-1.1852
X8.709Y-1.386
X9.95Y-1.838
T2
X6.9909Y-3.375
X7.05Y-3.375
X1.5829Y-2.637
X1.642Y-2.637
X1.5839Y-3.34
X1.643Y-3.34
X4.97Y-3.284
X5.029Y-3.284
X6.9659Y-2.025
X7.025Y-2.025
X6.083Y-3.267
X6.142Y-3.267
T3
X7.1335Y-2.778
X7.1335Y-2.9701
X7.1441Y-1.4394
X7.1441Y-1.6315
T4
X8.2874Y-0.4528
X8.3374Y-0.4528
X8.3874Y-0.4528
X6.7323Y-0.4331
X6.7823Y-0.3831
X6.8323Y-0.4331
X7.5037Y-0.4331
X7.5537Y-0.3831
X7.6037Y-0.4331
T5
X9.8644Y-0.5087
X9.8644Y-0.8087
X1.318Y-2.958
X1.618Y-2.958
X10.0612Y-1.0055
X10.0612Y-1.3055
X9.6675Y-2.3787
X9.6675Y-2.6787
X9.8644Y-2.3787
X9.8644Y-2.6787
X8.8407Y-0.9465
X9.0376Y-0.9465
X8.0002Y-2.725
X8.3002Y-2.725
X1.2598Y-3.7008
X1.3583Y-3.7008
X9.1557Y-2.3638
X9.4557Y-2.3638
X7.0781Y-1.85
X7.275Y-1.85
X7.5037Y-0.7087
X7.6022Y-0.7087
X9.8644Y-1.0055
X9.8644Y-1.3055
X9.1754Y-0.2969
X9.4754Y-0.2969
X9.6675Y-1.0205
X9.6675Y-1.3205
X4.9197Y-2.6181
X5.2197Y-2.6181
X9.1707Y-0.4543
X9.4707Y-0.4543
X3.825Y-0.15
X3.825Y-0.45
X8.9589Y-3.0283
X8.9589Y-3.3283
X8.0049Y-2.95
X8.3049Y-2.95
X9.5888Y-2.8756
X9.7856Y-2.8756
X0.6693Y-3.7795
X0.9693Y-3.7795
X8.2283Y-0.6496
X8.4252Y-0.6496
X7.4447Y-0.1772
X7.6415Y-0.1772
X9.1557Y-0.6512
X9.1557Y-0.7512
X9.1557Y-0.8512
X9.1557Y-0.9512
X9.1557Y-1.0512
X9.1557Y-1.1512
X9.1557Y-1.2512
X9.4557Y-0.6512
X9.4557Y-0.7512
X9.4557Y-0.8512
X9.4557Y-0.9512
X9.4557Y-1.0512
X9.4557Y-1.1512
X9.4557Y-1.2512
X10.0612Y-0.5087
X10.0612Y-0.8087
X6.35Y-2.7
X6.65Y-2.7
X8.9589Y-1.0646
X8.9589Y-1.3646
X0.4331Y-2.126
X0.7331Y-2.126
X6.4764Y-0.1724
X6.4764Y-0.4724
X8.0049Y-3.175
X8.3049Y-3.175
X6.5386Y-0.706
X6.637Y-0.706
X4.7244Y-3.248
X4.7244Y-3.3465
X1.2992Y-2.6378
X1.3976Y-2.6378
X9.6675Y-0.5331
X9.6675Y-0.8331
X1.2795Y-3.3465
X1.378Y-3.3465
X8.9589Y-2.3984
X8.9589Y-2.6984
X1.3142Y-3.1496
X1.6142Y-3.1496
X8.0Y-2.5
X8.3Y-2.5
X0.9874Y-0.1331
X0.9874Y-0.4331
X1.063Y-1.5504
X1.063Y-1.8504
X9.6675Y-3.0331
X9.6675Y-3.3331
X7.325Y-2.7016
X7.325Y-2.8
X1.5748Y-3.7008
X1.6732Y-3.7008
X5.8268Y-3.2283
X5.8268Y-3.3268
X5.85Y-1.1
X5.85Y-1.2
X5.85Y-1.3
X5.85Y-1.4
X5.85Y-1.5
X5.85Y-1.6
X5.85Y-1.7
X5.85Y-1.8
X6.15Y-1.1
X6.15Y-1.2
X6.15Y-1.3
X6.15Y-1.4
X6.15Y-1.5
X6.15Y-1.6
X6.15Y-1.7
X6.15Y-1.8
X9.151Y-1.4583
X9.451Y-1.4583
X1.3142Y-2.2441
X1.6142Y-2.2441
X8.1843Y-0.1969
X8.4843Y-0.1969
X1.95Y-0.125
X1.95Y-0.425
X4.4126Y-2.6181
X4.7126Y-2.6181
X5.315Y-3.189
X5.615Y-3.189
X6.9094Y-0.7087
X7.0079Y-0.7087
X9.1557Y-3.5646
X9.4557Y-3.5646
X6.6929Y-0.1772
X6.8898Y-0.1772
X8.9589Y-0.4693
X8.9589Y-0.7693
X4.4126Y-2.4016
X4.7126Y-2.4016
X2.9Y-0.15
X2.9Y-0.45
X10.0612Y-3.0331
X10.0612Y-3.3331
X4.2126Y-3.3858
X4.5126Y-3.3858
X9.151Y-3.3677
X9.451Y-3.3677
X9.8644Y-3.0283
X9.8644Y-3.3283
X7.325Y-1.5516
X7.325Y-1.65
X4.2126Y-3.189
X4.5126Y-3.189
X8.8211Y-2.8756
X9.0179Y-2.8756
X9.1557Y-2.1669
X9.4557Y-2.1669
X9.1557Y-2.5803
X9.1557Y-2.6803
X9.1557Y-2.7803
X9.1557Y-2.8803
X9.1557Y-2.9803
X9.1557Y-3.0803
X9.1557Y-3.1803
X9.4557Y-2.5803
X9.4557Y-2.6803
X9.4557Y-2.7803
X9.4557Y-2.8803
X9.4557Y-2.9803
X9.4557Y-3.0803
X9.4557Y-3.1803
X9.151Y-1.6551
X9.451Y-1.6551
X1.3142Y-2.4409
X1.6142Y-2.4409
X4.9197Y-2.4016
X5.2197Y-2.4016
X6.7Y-1.05
X6.7Y-1.35
X5.315Y-3.3858
X5.615Y-3.3858
X3.3858Y-2.126
X3.6858Y-2.126
X2.3622Y-2.126
X2.6622Y-2.126
X10.0612Y-2.3835
X10.0612Y-2.6835
X7.0781Y-3.2
X7.275Y-3.2
X0.1724Y-3.7795
X0.4724Y-3.7795
X7.325Y-2.9
X7.325Y-2.9984
X7.325Y-1.35
X7.325Y-1.4484
T6
X0.5937Y-0.2756
X0.6937Y-0.2756
X3.4571Y-0.2756
X3.5571Y-0.2756
X1.5423Y-0.2756
X1.6423Y-0.2756
X2.5122Y-0.2756
X2.6122Y-0.2756
T7
X1.4961Y-1.2205
X1.5945Y-1.2205
X1.6929Y-1.2205
X2.4409Y-1.2205
X2.5394Y-1.2205
X2.6378Y-1.2205
X5.8496Y-0.1969
X5.8496Y-0.2969
X5.8496Y-0.3969
X5.8496Y-0.4969
X5.8496Y-0.5969
X5.9496Y-0.1969
X5.9496Y-0.2969
X5.9496Y-0.3969
X5.9496Y-0.4969
X5.9496Y-0.5969
X0.5118Y-1.2205
X0.6102Y-1.2205
X0.7087Y-1.2205
X3.4252Y-1.2205
X3.5236Y-1.2205
X3.622Y-1.2205
T8
X4.3063Y-0.0803
X4.3063Y-0.1803
X4.3063Y-0.2803
X4.3063Y-0.3803
X4.3063Y-0.4803
X4.3063Y-0.5803
X4.3063Y-0.6803
X4.3063Y-0.7803
X4.3063Y-0.8803
X4.3063Y-0.9803
X4.3063Y-1.0803
X4.3063Y-1.1803
X4.3063Y-1.2803
X4.3063Y-1.3803
X4.3063Y-1.4803
X4.3063Y-1.5803
X4.3063Y-1.6803
X4.3063Y-1.7803
X4.3063Y-1.8803
X5.3063Y-0.0803
X5.3063Y-0.1803
X5.3063Y-0.2803
X5.3063Y-0.3803
X5.3063Y-0.4803
X5.3063Y-0.5803
X5.3063Y-0.6803
X5.3063Y-0.7803
X5.3063Y-0.8803
X5.3063Y-0.9803
X5.3063Y-1.0803
X5.3063Y-1.1803
X5.3063Y-1.2803
X5.3063Y-1.3803
X5.3063Y-1.4803
X5.3063Y-1.5803
X5.3063Y-1.6803
X5.3063Y-1.7803
X5.3063Y-1.8803
T9
X3.2677Y-1.6142
X3.2677Y-1.811
X3.7598Y-1.6142
X3.7598Y-1.811
X2.2441Y-1.6142
X2.2441Y-1.811
X2.7362Y-1.6142
X2.7362Y-1.811
X0.315Y-1.6142
X0.315Y-1.811
X0.8071Y-1.6142
X0.8071Y-1.811
X1.2992Y-1.6142
X1.2992Y-1.811
X1.7913Y-1.6142
X1.7913Y-1.811
T10
X3.139Y-2.4813
X3.139Y-2.8081
X3.139Y-2.9301
X0.315Y-2.4835
X0.315Y-2.8102
X0.315Y-2.9323
X2.126Y-2.4835
X2.126Y-2.8102
X2.126Y-2.9323
X0.7874Y-2.4835
X0.7874Y-2.8102
X0.7874Y-2.9323
X2.126Y-3.1884
X2.126Y-3.5152
X2.126Y-3.6372
X3.6614Y-3.1813
X3.6614Y-3.5081
X3.6614Y-3.6301
X2.6234Y-2.4835
X2.6234Y-2.8102
X2.6234Y-2.9323
X0.7874Y-3.1134
X0.7874Y-3.4402
X0.7874Y-3.5622
X2.6234Y-3.1884
X2.6234Y-3.5152
X2.6234Y-3.6372
X3.139Y-3.1813
X3.139Y-3.5081
X3.139Y-3.6301
X3.6614Y-2.4813
X3.6614Y-2.8081
X3.6614Y-2.9301
X0.315Y-3.1134
X0.315Y-3.4402
X0.315Y-3.5622
T11
X-0.106Y-0.238
X4.065Y-3.758
X10.048Y-0.202
X4.054Y-2.698
X-0.097Y-2.092
X-0.103Y-3.654
X10.007Y-3.678
T12
X1.4213Y-0.9449
X1.7677Y-0.9449
X2.3661Y-0.9449
X2.7126Y-0.9449
X0.437Y-0.9449
X0.7835Y-0.9449
X3.3504Y-0.9449
X3.6969Y-0.9449
T0
M30
