M48
; DRILL file {KiCad (5.1.7)-1} date 10/22/20 22:30:17
; FORMAT={-:-/ absolute / inch / decimal}
; #@! TF.CreationDate,2020-10-22T22:30:17+02:00
; #@! TF.GenerationSoftware,Kicad,Pcbnew,(5.1.7)-1
FMAT,2
INCH
T1C0.0157
T2C0.0295
T3C0.0315
T4C0.0354
T5C0.0394
T6C0.0409
T7C0.0433
T8C0.0512
T9C0.0630
T10C0.0787
T11C0.1260
%
G90
G05
T1
X4.643Y-2.0123
T2
X4.79Y-2.03
X4.79Y-2.08
X4.79Y-2.13
T3
X3.23Y-3.46
X3.53Y-3.46
X3.94Y-3.25
X4.24Y-3.25
X5.16Y-1.98
X5.16Y-2.1769
X1.16Y-1.9
X1.46Y-1.9
X5.32Y-1.99
X5.62Y-1.99
X0.8465Y-0.9055
X1.1465Y-0.9055
X4.33Y-0.97
X4.63Y-0.97
X4.3231Y-1.12
X4.52Y-1.12
X4.22Y-3.47
X4.52Y-3.47
X1.3535Y-0.9055
X1.6535Y-0.9055
X1.96Y-1.9
X2.26Y-1.9
X3.88Y-0.82
X3.88Y-0.92
X3.88Y-1.02
X3.88Y-1.12
X3.88Y-1.22
X3.88Y-1.32
X3.88Y-1.42
X4.18Y-0.82
X4.18Y-0.92
X4.18Y-1.02
X4.18Y-1.12
X4.18Y-1.22
X4.18Y-1.32
X4.18Y-1.42
X4.96Y-3.58
X4.96Y-3.88
X3.81Y-2.08
X3.81Y-2.18
X3.81Y-2.28
X3.81Y-2.38
X3.81Y-2.48
X3.81Y-2.58
X3.81Y-2.68
X3.81Y-2.78
X4.11Y-2.08
X4.11Y-2.18
X4.11Y-2.28
X4.11Y-2.38
X4.11Y-2.48
X4.11Y-2.58
X4.11Y-2.68
X4.11Y-2.78
X3.94Y-4.29
X4.24Y-4.29
X3.49Y-4.29
X3.79Y-4.29
X4.96Y-1.43
X4.96Y-1.73
X4.14Y-0.61
X4.44Y-0.61
X3.62Y-1.62
X3.92Y-1.62
X2.81Y-1.91
X3.11Y-1.91
X3.46Y-3.25
X3.76Y-3.25
X1.885Y-0.9055
X2.185Y-0.9055
X3.37Y-3.77
X3.5669Y-3.77
X3.25Y-3.92
X3.55Y-3.92
X4.23Y-4.1
X4.53Y-4.1
X4.23Y-3.66
X4.53Y-3.66
X4.7716Y-2.48
X4.87Y-2.48
X3.24Y-4.1
X3.54Y-4.1
X2.3819Y-0.9055
X2.6819Y-0.9055
X4.52Y-2.3531
X4.52Y-2.55
X4.34Y-1.27
X4.64Y-1.27
X4.33Y-0.8
X4.63Y-0.8
X3.61Y-0.61
X3.91Y-0.61
X3.43Y-1.43
X3.73Y-1.43
X4.34Y-1.43
X4.64Y-1.43
X3.43Y-1.27
X3.73Y-1.27
X4.23Y-3.87
X4.53Y-3.87
X3.5331Y-1.12
X3.73Y-1.12
X3.72Y-3.47
X3.72Y-3.57
X3.72Y-3.67
X3.72Y-3.77
X3.72Y-3.87
X3.72Y-3.97
X3.72Y-4.07
X4.02Y-3.47
X4.02Y-3.57
X4.02Y-3.67
X4.02Y-3.77
X4.02Y-3.87
X4.02Y-3.97
X4.02Y-4.07
X5.15Y-2.76
X5.15Y-3.06
X3.24Y-3.62
X3.54Y-3.62
X3.43Y-0.97
X3.73Y-0.97
X4.96Y-0.96
X4.96Y-1.26
X4.96Y-4.02
X4.96Y-4.32
X4.7816Y-2.92
X4.88Y-2.92
X3.43Y-0.8
X3.73Y-0.8
X0.5758Y-1.9085
X0.8758Y-1.9085
X4.07Y-1.62
X4.37Y-1.62
T4
X1.29Y-0.62
X1.39Y-0.62
X0.46Y-0.63
X0.56Y-0.63
X2.07Y-0.63
X2.17Y-0.63
X2.91Y-0.62
X3.01Y-0.62
T5
X0.4031Y-2.84
X0.5016Y-2.84
X0.6Y-2.84
X2.0331Y-2.84
X2.1316Y-2.84
X2.23Y-2.84
X2.8831Y-2.83
X2.9816Y-2.83
X3.08Y-2.83
X5.16Y-2.41
X5.16Y-2.51
X5.45Y-2.25
X5.45Y-2.35
X5.45Y-2.45
X5.45Y-2.55
X5.45Y-2.65
X5.55Y-2.25
X5.55Y-2.35
X5.55Y-2.45
X5.55Y-2.55
X5.55Y-2.65
X5.1705Y-3.2041
X5.2705Y-3.2041
X5.3705Y-3.2041
X5.4705Y-3.2041
X5.5705Y-3.2041
X5.6705Y-3.2041
X5.7Y-3.46
X5.7Y-3.56
X5.7Y-3.66
X5.7Y-3.76
X5.7Y-3.86
X5.7Y-3.96
X5.7Y-4.06
X5.7Y-4.16
X5.7Y-4.26
X1.2431Y-2.84
X1.3416Y-2.84
X1.44Y-2.84
X5.2005Y-0.6341
X5.3005Y-0.6341
X5.4005Y-0.6341
X5.5005Y-0.6341
X5.6005Y-0.6341
X5.7005Y-0.6341
X5.73Y-0.89
X5.73Y-0.99
X5.73Y-1.09
X5.73Y-1.19
X5.73Y-1.29
X5.73Y-1.39
X5.73Y-1.49
X5.73Y-1.59
X5.73Y-1.69
T6
X0.915Y-1.1142
X0.915Y-2.1142
X1.015Y-1.1142
X1.015Y-2.1142
X1.115Y-1.1142
X1.115Y-2.1142
X1.215Y-1.1142
X1.215Y-2.1142
X1.315Y-1.1142
X1.315Y-2.1142
X1.415Y-1.1142
X1.415Y-2.1142
X1.515Y-1.1142
X1.515Y-2.1142
X1.615Y-1.1142
X1.615Y-2.1142
X1.715Y-1.1142
X1.715Y-2.1142
X1.815Y-1.1142
X1.815Y-2.1142
X1.915Y-1.1142
X1.915Y-2.1142
X2.015Y-1.1142
X2.015Y-2.1142
X2.115Y-1.1142
X2.115Y-2.1142
X2.215Y-1.1142
X2.215Y-2.1142
X2.315Y-1.1142
X2.315Y-2.1142
X2.415Y-1.1142
X2.415Y-2.1142
X2.515Y-1.1142
X2.515Y-2.1142
X2.615Y-1.1142
X2.615Y-2.1142
X2.715Y-1.1142
X2.715Y-2.1142
T7
X5.4Y-2.97
X5.5Y-2.97
X5.6Y-2.97
T8
X2.71Y-1.46
X2.71Y-1.6569
X3.2021Y-1.46
X3.2021Y-1.6569
X1.06Y-1.45
X1.06Y-1.6469
X1.5521Y-1.45
X1.5521Y-1.6469
X0.2656Y-1.4361
X0.2656Y-1.6329
X0.7577Y-1.4361
X0.7577Y-1.6329
X1.86Y-1.45
X1.86Y-1.6469
X2.3521Y-1.45
X2.3521Y-1.6469
T9
X2.49Y-3.2463
X2.49Y-3.5731
X2.49Y-3.6951
X1.51Y-3.9632
X1.51Y-4.29
X1.51Y-4.412
X2.49Y-3.9632
X2.49Y-4.29
X2.49Y-4.412
X1.99Y-3.2432
X1.99Y-3.57
X1.99Y-3.692
X1.5Y-3.2432
X1.5Y-3.57
X1.5Y-3.692
X1.01Y-3.2432
X1.01Y-3.57
X1.01Y-3.692
X1.0Y-3.9632
X1.0Y-4.29
X1.0Y-4.412
X1.99Y-3.9632
X1.99Y-4.29
X1.99Y-4.412
T10
X1.1683Y-2.5644
X1.5148Y-2.5644
X0.3283Y-2.5644
X0.6748Y-2.5644
X1.9583Y-2.5644
X2.3048Y-2.5644
X2.8083Y-2.5544
X3.1548Y-2.5544
T11
X5.26Y-4.88
X2.86Y-4.88
X5.26Y-0.12
X0.6Y-0.12
X0.61Y-4.88
X2.86Y-0.12
T0
M30
