G04 #@! TF.GenerationSoftware,KiCad,Pcbnew,(5.1.7)-1*
G04 #@! TF.CreationDate,2020-10-22T22:29:39+02:00*
G04 #@! TF.ProjectId,eurorack_engine,6575726f-7261-4636-9b5f-656e67696e65,rev?*
G04 #@! TF.SameCoordinates,Original*
G04 #@! TF.FileFunction,Legend,Bot*
G04 #@! TF.FilePolarity,Positive*
%FSLAX46Y46*%
G04 Gerber Fmt 4.6, Leading zero omitted, Abs format (unit mm)*
G04 Created by KiCad (PCBNEW (5.1.7)-1) date 2020-10-22 22:29:39*
%MOMM*%
%LPD*%
G01*
G04 APERTURE LIST*
%ADD10C,0.150000*%
%ADD11C,2.000000*%
G04 #@! TA.AperFunction,Profile*
%ADD12C,0.050000*%
G04 #@! TD*
%ADD13C,0.120000*%
%ADD14C,0.127000*%
%ADD15C,0.015000*%
G04 APERTURE END LIST*
D10*
X145541904Y-61730000D02*
X145637142Y-61682380D01*
X145780000Y-61682380D01*
X145922857Y-61730000D01*
X146018095Y-61825238D01*
X146065714Y-61920476D01*
X146113333Y-62110952D01*
X146113333Y-62253809D01*
X146065714Y-62444285D01*
X146018095Y-62539523D01*
X145922857Y-62634761D01*
X145780000Y-62682380D01*
X145684761Y-62682380D01*
X145541904Y-62634761D01*
X145494285Y-62587142D01*
X145494285Y-62253809D01*
X145684761Y-62253809D01*
X145065714Y-62682380D02*
X145065714Y-61682380D01*
X144494285Y-62682380D01*
X144494285Y-61682380D01*
X144018095Y-62682380D02*
X144018095Y-61682380D01*
X143780000Y-61682380D01*
X143637142Y-61730000D01*
X143541904Y-61825238D01*
X143494285Y-61920476D01*
X143446666Y-62110952D01*
X143446666Y-62253809D01*
X143494285Y-62444285D01*
X143541904Y-62539523D01*
X143637142Y-62634761D01*
X143780000Y-62682380D01*
X144018095Y-62682380D01*
X147049904Y-67635428D02*
X146288000Y-67635428D01*
X146668952Y-68016380D02*
X146668952Y-67254476D01*
X145288000Y-68016380D02*
X145859428Y-68016380D01*
X145573714Y-68016380D02*
X145573714Y-67016380D01*
X145668952Y-67159238D01*
X145764190Y-67254476D01*
X145859428Y-67302095D01*
X144907047Y-67111619D02*
X144859428Y-67064000D01*
X144764190Y-67016380D01*
X144526095Y-67016380D01*
X144430857Y-67064000D01*
X144383238Y-67111619D01*
X144335619Y-67206857D01*
X144335619Y-67302095D01*
X144383238Y-67444952D01*
X144954666Y-68016380D01*
X144335619Y-68016380D01*
X144049904Y-67016380D02*
X143716571Y-68016380D01*
X143383238Y-67016380D01*
X147049904Y-57221428D02*
X146288000Y-57221428D01*
X145288000Y-57602380D02*
X145859428Y-57602380D01*
X145573714Y-57602380D02*
X145573714Y-56602380D01*
X145668952Y-56745238D01*
X145764190Y-56840476D01*
X145859428Y-56888095D01*
X144907047Y-56697619D02*
X144859428Y-56650000D01*
X144764190Y-56602380D01*
X144526095Y-56602380D01*
X144430857Y-56650000D01*
X144383238Y-56697619D01*
X144335619Y-56792857D01*
X144335619Y-56888095D01*
X144383238Y-57030952D01*
X144954666Y-57602380D01*
X144335619Y-57602380D01*
X144049904Y-56602380D02*
X143716571Y-57602380D01*
X143383238Y-56602380D01*
D11*
X132358285Y-79007714D02*
X137596380Y-79007714D01*
X137596380Y-47579142D01*
X132358285Y-47579142D01*
X123977333Y-61198190D02*
X107215428Y-61198190D01*
X107215428Y-66436285D01*
X95691619Y-58055333D02*
X97786857Y-57007714D01*
X98834476Y-54912476D01*
X98834476Y-50722000D01*
X97786857Y-48626761D01*
X95691619Y-47579142D01*
X93596380Y-47579142D01*
X91501142Y-48626761D01*
X90453523Y-50722000D01*
X90453523Y-54912476D01*
X91501142Y-57007714D01*
X93596380Y-58055333D01*
X95691619Y-58055333D01*
X82072571Y-63293428D02*
X65310666Y-63293428D01*
X51691619Y-49674380D02*
X53786857Y-50722000D01*
X54834476Y-52817238D01*
X53786857Y-54912476D01*
X51691619Y-55960095D01*
X49596380Y-54912476D01*
X48548761Y-52817238D01*
X49596380Y-50722000D01*
X51691619Y-49674380D01*
X40167809Y-79007714D02*
X34929714Y-79007714D01*
X34929714Y-47579142D01*
X40167809Y-47579142D01*
X23405904Y-61198190D02*
X6643999Y-61198190D01*
X6643999Y-66436285D01*
D12*
X0Y-127000000D02*
X0Y0D01*
X150500000Y-127000000D02*
X0Y-127000000D01*
X150500000Y0D02*
X150500000Y-127000000D01*
X0Y0D02*
X150500000Y0D01*
D13*
X137100000Y-68640000D02*
X138430000Y-68640000D01*
X137100000Y-67310000D02*
X137100000Y-68640000D01*
X139700000Y-68640000D02*
X142300000Y-68640000D01*
X139700000Y-66040000D02*
X139700000Y-68640000D01*
X137100000Y-66040000D02*
X139700000Y-66040000D01*
X142300000Y-68640000D02*
X142300000Y-55820000D01*
X137100000Y-66040000D02*
X137100000Y-55820000D01*
X137100000Y-55820000D02*
X142300000Y-55820000D01*
D14*
X70250000Y-27050000D02*
X15850000Y-27050000D01*
X15850000Y-27050000D02*
X15850000Y-54950000D01*
X15850000Y-54950000D02*
X70250000Y-54950000D01*
X70250000Y-54950000D02*
X70250000Y-27050000D01*
D10*
X140033333Y-69092380D02*
X140033333Y-69806666D01*
X140080952Y-69949523D01*
X140176190Y-70044761D01*
X140319047Y-70092380D01*
X140414285Y-70092380D01*
X139509523Y-70092380D02*
X139319047Y-70092380D01*
X139223809Y-70044761D01*
X139176190Y-69997142D01*
X139080952Y-69854285D01*
X139033333Y-69663809D01*
X139033333Y-69282857D01*
X139080952Y-69187619D01*
X139128571Y-69140000D01*
X139223809Y-69092380D01*
X139414285Y-69092380D01*
X139509523Y-69140000D01*
X139557142Y-69187619D01*
X139604761Y-69282857D01*
X139604761Y-69520952D01*
X139557142Y-69616190D01*
X139509523Y-69663809D01*
X139414285Y-69711428D01*
X139223809Y-69711428D01*
X139128571Y-69663809D01*
X139080952Y-69616190D01*
X139033333Y-69520952D01*
D15*
X14006124Y-29408626D02*
X14815960Y-29408626D01*
X14911235Y-29456263D01*
X14958873Y-29503901D01*
X15006510Y-29599175D01*
X15006510Y-29789725D01*
X14958873Y-29885000D01*
X14911235Y-29932637D01*
X14815960Y-29980275D01*
X14006124Y-29980275D01*
X15006510Y-30980661D02*
X15006510Y-30409012D01*
X15006510Y-30694836D02*
X14006124Y-30694836D01*
X14149036Y-30599561D01*
X14244311Y-30504287D01*
X14291949Y-30409012D01*
M02*
