G04 #@! TF.GenerationSoftware,KiCad,Pcbnew,(5.1.7)-1*
G04 #@! TF.CreationDate,2020-10-22T22:29:39+02:00*
G04 #@! TF.ProjectId,eurorack_engine,6575726f-7261-4636-9b5f-656e67696e65,rev?*
G04 #@! TF.SameCoordinates,Original*
G04 #@! TF.FileFunction,Soldermask,Top*
G04 #@! TF.FilePolarity,Negative*
%FSLAX46Y46*%
G04 Gerber Fmt 4.6, Leading zero omitted, Abs format (unit mm)*
G04 Created by KiCad (PCBNEW (5.1.7)-1) date 2020-10-22 22:29:39*
%MOMM*%
%LPD*%
G01*
G04 APERTURE LIST*
G04 #@! TA.AperFunction,Profile*
%ADD10C,0.050000*%
G04 #@! TD*
%ADD11C,3.302000*%
%ADD12O,1.602000X1.152000*%
%ADD13O,2.007000X2.102000*%
%ADD14O,1.702000X1.702000*%
%ADD15C,4.102000*%
%ADD16C,1.902000*%
%ADD17C,1.702000*%
%ADD18O,1.802000X1.802000*%
%ADD19O,3.150000X1.952000*%
%ADD20C,1.852000*%
%ADD21C,1.662000*%
%ADD22C,0.150000*%
G04 APERTURE END LIST*
D10*
X0Y-127000000D02*
X0Y0D01*
X150500000Y-127000000D02*
X0Y-127000000D01*
X150500000Y0D02*
X150500000Y-127000000D01*
X0Y0D02*
X150500000Y0D01*
X0Y-127000000D02*
X0Y0D01*
X150500000Y-127000000D02*
X0Y-127000000D01*
X150500000Y0D02*
X150500000Y-127000000D01*
X0Y0D02*
X150500000Y0D01*
D11*
X72644000Y-123952000D03*
X72644000Y-3048000D03*
X15494000Y-123952000D03*
X133604000Y-123952000D03*
X15240000Y-3048000D03*
X133604000Y-3048000D03*
G36*
G01*
X122416000Y-54678000D02*
X120916000Y-54678000D01*
G75*
G02*
X120865000Y-54627000I0J51000D01*
G01*
X120865000Y-53577000D01*
G75*
G02*
X120916000Y-53526000I51000J0D01*
G01*
X122416000Y-53526000D01*
G75*
G02*
X122467000Y-53577000I0J-51000D01*
G01*
X122467000Y-54627000D01*
G75*
G02*
X122416000Y-54678000I-51000J0D01*
G01*
G37*
D12*
X121666000Y-51562000D03*
X121666000Y-52832000D03*
D13*
X142240000Y-75438000D03*
X139700000Y-75438000D03*
G36*
G01*
X136156500Y-76438000D02*
X136156500Y-74438000D01*
G75*
G02*
X136207500Y-74387000I51000J0D01*
G01*
X138112500Y-74387000D01*
G75*
G02*
X138163500Y-74438000I0J-51000D01*
G01*
X138163500Y-76438000D01*
G75*
G02*
X138112500Y-76489000I-51000J0D01*
G01*
X136207500Y-76489000D01*
G75*
G02*
X136156500Y-76438000I0J51000D01*
G01*
G37*
D14*
X102108000Y-88138000D03*
X94488000Y-103378000D03*
X102108000Y-90678000D03*
X94488000Y-100838000D03*
X102108000Y-93218000D03*
X94488000Y-98298000D03*
X102108000Y-95758000D03*
X94488000Y-95758000D03*
X102108000Y-98298000D03*
X94488000Y-93218000D03*
X102108000Y-100838000D03*
X94488000Y-90678000D03*
X102108000Y-103378000D03*
G36*
G01*
X93637000Y-88938000D02*
X93637000Y-87338000D01*
G75*
G02*
X93688000Y-87287000I51000J0D01*
G01*
X95288000Y-87287000D01*
G75*
G02*
X95339000Y-87338000I0J-51000D01*
G01*
X95339000Y-88938000D01*
G75*
G02*
X95288000Y-88989000I-51000J0D01*
G01*
X93688000Y-88989000D01*
G75*
G02*
X93637000Y-88938000I0J51000D01*
G01*
G37*
X106172000Y-20828000D03*
X98552000Y-36068000D03*
X106172000Y-23368000D03*
X98552000Y-33528000D03*
X106172000Y-25908000D03*
X98552000Y-30988000D03*
X106172000Y-28448000D03*
X98552000Y-28448000D03*
X106172000Y-30988000D03*
X98552000Y-25908000D03*
X106172000Y-33528000D03*
X98552000Y-23368000D03*
X106172000Y-36068000D03*
G36*
G01*
X97701000Y-21628000D02*
X97701000Y-20028000D01*
G75*
G02*
X97752000Y-19977000I51000J0D01*
G01*
X99352000Y-19977000D01*
G75*
G02*
X99403000Y-20028000I0J-51000D01*
G01*
X99403000Y-21628000D01*
G75*
G02*
X99352000Y-21679000I-51000J0D01*
G01*
X97752000Y-21679000D01*
G75*
G02*
X97701000Y-21628000I0J51000D01*
G01*
G37*
X104394000Y-52832000D03*
X96774000Y-70612000D03*
X104394000Y-55372000D03*
X96774000Y-68072000D03*
X104394000Y-57912000D03*
X96774000Y-65532000D03*
X104394000Y-60452000D03*
X96774000Y-62992000D03*
X104394000Y-62992000D03*
X96774000Y-60452000D03*
X104394000Y-65532000D03*
X96774000Y-57912000D03*
X104394000Y-68072000D03*
X96774000Y-55372000D03*
X104394000Y-70612000D03*
G36*
G01*
X95923000Y-53632000D02*
X95923000Y-52032000D01*
G75*
G02*
X95974000Y-51981000I51000J0D01*
G01*
X97574000Y-51981000D01*
G75*
G02*
X97625000Y-52032000I0J-51000D01*
G01*
X97625000Y-53632000D01*
G75*
G02*
X97574000Y-53683000I-51000J0D01*
G01*
X95974000Y-53683000D01*
G75*
G02*
X95923000Y-53632000I0J51000D01*
G01*
G37*
D15*
X80132000Y-64882000D03*
X71332000Y-64882000D03*
D16*
X78232000Y-71882000D03*
X75732000Y-71882000D03*
X73232000Y-71882000D03*
D15*
X58542000Y-65136000D03*
X49742000Y-65136000D03*
D16*
X56642000Y-72136000D03*
X54142000Y-72136000D03*
X51642000Y-72136000D03*
D15*
X38476000Y-65136000D03*
X29676000Y-65136000D03*
D16*
X36576000Y-72136000D03*
X34076000Y-72136000D03*
X31576000Y-72136000D03*
D15*
X17140000Y-65136000D03*
X8340000Y-65136000D03*
D16*
X15240000Y-72136000D03*
X12740000Y-72136000D03*
X10240000Y-72136000D03*
D14*
X142748000Y-50546000D03*
D17*
X135128000Y-50546000D03*
D14*
X130810000Y-77724000D03*
D17*
X130810000Y-70104000D03*
D14*
X117602000Y-20320000D03*
D17*
X109982000Y-20320000D03*
D14*
X87122000Y-36322000D03*
D17*
X94742000Y-36322000D03*
D14*
X115062000Y-104140000D03*
D17*
X107442000Y-104140000D03*
D14*
X114808000Y-88138000D03*
D17*
X107188000Y-88138000D03*
D14*
X117602000Y-24638000D03*
D17*
X109982000Y-24638000D03*
D14*
X99568000Y-41148000D03*
D17*
X91948000Y-41148000D03*
D14*
X100076000Y-108966000D03*
D17*
X107696000Y-108966000D03*
D14*
X100076000Y-82550000D03*
D17*
X107696000Y-82550000D03*
D14*
X112776000Y-15494000D03*
D17*
X105156000Y-15494000D03*
D14*
X87122000Y-32258000D03*
D17*
X94742000Y-32258000D03*
D14*
X107442000Y-98298000D03*
D17*
X115062000Y-98298000D03*
D14*
X107442000Y-92964000D03*
D17*
X115062000Y-92964000D03*
D14*
X125984000Y-24384000D03*
D17*
X125984000Y-32004000D03*
D14*
X125984000Y-102108000D03*
D17*
X125984000Y-109728000D03*
D14*
X117856000Y-36322000D03*
D17*
X110236000Y-36322000D03*
D14*
X87122000Y-20320000D03*
D17*
X94742000Y-20320000D03*
D14*
X89662000Y-87884000D03*
D17*
X82042000Y-87884000D03*
D14*
X89916000Y-104140000D03*
D17*
X82296000Y-104140000D03*
D14*
X95504000Y-82550000D03*
D17*
X87884000Y-82550000D03*
D14*
X96266000Y-108966000D03*
D17*
X88646000Y-108966000D03*
D14*
X110998000Y-41148000D03*
D17*
X103378000Y-41148000D03*
D14*
X99314000Y-15494000D03*
D17*
X91694000Y-15494000D03*
D14*
X89916000Y-91948000D03*
D17*
X82296000Y-91948000D03*
D14*
X90170000Y-99568000D03*
D17*
X82550000Y-99568000D03*
D14*
X117856000Y-32258000D03*
D17*
X110236000Y-32258000D03*
D14*
X87122000Y-24638000D03*
D17*
X94742000Y-24638000D03*
D14*
X125984000Y-43942000D03*
D17*
X125984000Y-36322000D03*
D14*
X125984000Y-98552000D03*
D17*
X125984000Y-90932000D03*
D18*
X131064000Y-61214000D03*
G36*
G01*
X131965000Y-62904000D02*
X131965000Y-64604000D01*
G75*
G02*
X131914000Y-64655000I-51000J0D01*
G01*
X130214000Y-64655000D01*
G75*
G02*
X130163000Y-64604000I0J51000D01*
G01*
X130163000Y-62904000D01*
G75*
G02*
X130214000Y-62853000I51000J0D01*
G01*
X131914000Y-62853000D01*
G75*
G02*
X131965000Y-62904000I0J-51000D01*
G01*
G37*
X140970000Y-57150000D03*
X138430000Y-57150000D03*
X140970000Y-59690000D03*
X138430000Y-59690000D03*
X140970000Y-62230000D03*
X138430000Y-62230000D03*
X140970000Y-64770000D03*
X138430000Y-64770000D03*
X140970000Y-67310000D03*
G36*
G01*
X137529000Y-68160000D02*
X137529000Y-66460000D01*
G75*
G02*
X137580000Y-66409000I51000J0D01*
G01*
X139280000Y-66409000D01*
G75*
G02*
X139331000Y-66460000I0J-51000D01*
G01*
X139331000Y-68160000D01*
G75*
G02*
X139280000Y-68211000I-51000J0D01*
G01*
X137580000Y-68211000D01*
G75*
G02*
X137529000Y-68160000I0J51000D01*
G01*
G37*
D16*
X63246000Y-100666000D03*
X63246000Y-112066000D03*
X63246000Y-108966000D03*
X38354000Y-100666000D03*
X38354000Y-112066000D03*
X38354000Y-108966000D03*
X50546000Y-82378000D03*
X50546000Y-93778000D03*
X50546000Y-90678000D03*
X63246000Y-82456000D03*
X63246000Y-93856000D03*
X63246000Y-90756000D03*
X50546000Y-100666000D03*
X50546000Y-112066000D03*
X50546000Y-108966000D03*
X25400000Y-100666000D03*
X25400000Y-112066000D03*
X25400000Y-108966000D03*
X25654000Y-82378000D03*
X25654000Y-93778000D03*
X25654000Y-90678000D03*
X38100000Y-82378000D03*
X38100000Y-93778000D03*
X38100000Y-90678000D03*
D17*
X90598000Y-95758000D03*
X85598000Y-95758000D03*
X131064000Y-55292000D03*
X131064000Y-50292000D03*
X114808000Y-28448000D03*
X109808000Y-28448000D03*
X94742000Y-28448000D03*
X89742000Y-28448000D03*
X114808000Y-59770000D03*
X114808000Y-64770000D03*
X121198000Y-62992000D03*
X123698000Y-62992000D03*
X121452000Y-74168000D03*
X123952000Y-74168000D03*
D19*
X68834000Y-42084000D03*
X68834000Y-37084000D03*
X81334000Y-42084000D03*
X81334000Y-37084000D03*
X47244000Y-41830000D03*
X47244000Y-36830000D03*
X59744000Y-41830000D03*
X59744000Y-36830000D03*
X26924000Y-41830000D03*
X26924000Y-36830000D03*
X39424000Y-41830000D03*
X39424000Y-36830000D03*
X6746000Y-41476000D03*
X6746000Y-36476000D03*
X19246000Y-41476000D03*
X19246000Y-36476000D03*
D14*
X78994000Y-48514000D03*
D17*
X71374000Y-48514000D03*
D14*
X57404000Y-48260000D03*
D17*
X49784000Y-48260000D03*
D14*
X37084000Y-48260000D03*
D17*
X29464000Y-48260000D03*
D14*
X22246000Y-48476000D03*
D17*
X14626000Y-48476000D03*
D14*
X68120000Y-23000000D03*
D17*
X60500000Y-23000000D03*
D14*
X55500000Y-23000000D03*
D17*
X47880000Y-23000000D03*
D14*
X42000000Y-23000000D03*
D17*
X34380000Y-23000000D03*
D14*
X29120000Y-23000000D03*
D17*
X21500000Y-23000000D03*
D20*
X145542000Y-42926000D03*
X145542000Y-40386000D03*
X145542000Y-37846000D03*
X145542000Y-35306000D03*
X145542000Y-32766000D03*
X145542000Y-30226000D03*
X145542000Y-27686000D03*
X145542000Y-25146000D03*
X145542000Y-22606000D03*
X144792000Y-16106000D03*
X142252000Y-16106000D03*
X139712000Y-16106000D03*
X137172000Y-16106000D03*
X134632000Y-16106000D03*
X132092000Y-16106000D03*
D16*
X76454000Y-15748000D03*
G36*
G01*
X72963000Y-16648000D02*
X72963000Y-14848000D01*
G75*
G02*
X73014000Y-14797000I51000J0D01*
G01*
X74814000Y-14797000D01*
G75*
G02*
X74865000Y-14848000I0J-51000D01*
G01*
X74865000Y-16648000D01*
G75*
G02*
X74814000Y-16699000I-51000J0D01*
G01*
X73014000Y-16699000D01*
G75*
G02*
X72963000Y-16648000I0J51000D01*
G01*
G37*
X55118000Y-16002000D03*
G36*
G01*
X51627000Y-16902000D02*
X51627000Y-15102000D01*
G75*
G02*
X51678000Y-15051000I51000J0D01*
G01*
X53478000Y-15051000D01*
G75*
G02*
X53529000Y-15102000I0J-51000D01*
G01*
X53529000Y-16902000D01*
G75*
G02*
X53478000Y-16953000I-51000J0D01*
G01*
X51678000Y-16953000D01*
G75*
G02*
X51627000Y-16902000I0J51000D01*
G01*
G37*
X35306000Y-15748000D03*
G36*
G01*
X31815000Y-16648000D02*
X31815000Y-14848000D01*
G75*
G02*
X31866000Y-14797000I51000J0D01*
G01*
X33666000Y-14797000D01*
G75*
G02*
X33717000Y-14848000I0J-51000D01*
G01*
X33717000Y-16648000D01*
G75*
G02*
X33666000Y-16699000I-51000J0D01*
G01*
X31866000Y-16699000D01*
G75*
G02*
X31815000Y-16648000I0J51000D01*
G01*
G37*
X14224000Y-16002000D03*
G36*
G01*
X10733000Y-16902000D02*
X10733000Y-15102000D01*
G75*
G02*
X10784000Y-15051000I51000J0D01*
G01*
X12584000Y-15051000D01*
G75*
G02*
X12635000Y-15102000I0J-51000D01*
G01*
X12635000Y-16902000D01*
G75*
G02*
X12584000Y-16953000I-51000J0D01*
G01*
X10784000Y-16953000D01*
G75*
G02*
X10733000Y-16902000I0J51000D01*
G01*
G37*
D21*
X68960000Y-53700000D03*
X66420000Y-53700000D03*
X63880000Y-53700000D03*
X61340000Y-53700000D03*
X58800000Y-53700000D03*
X56260000Y-53700000D03*
X53720000Y-53700000D03*
X51180000Y-53700000D03*
X48640000Y-53700000D03*
X46100000Y-53700000D03*
X43560000Y-53700000D03*
X41020000Y-53700000D03*
X38480000Y-53700000D03*
X35940000Y-53700000D03*
X33400000Y-53700000D03*
X30860000Y-53700000D03*
X28320000Y-53700000D03*
X25780000Y-53700000D03*
X23240000Y-53700000D03*
X66420000Y-28300000D03*
X63880000Y-28300000D03*
X61340000Y-28300000D03*
X58800000Y-28300000D03*
X56260000Y-28300000D03*
X53720000Y-28300000D03*
X51180000Y-28300000D03*
X48640000Y-28300000D03*
X46100000Y-28300000D03*
X43560000Y-28300000D03*
X41020000Y-28300000D03*
X38480000Y-28300000D03*
X35940000Y-28300000D03*
X33400000Y-28300000D03*
X30860000Y-28300000D03*
X28320000Y-28300000D03*
X68960000Y-28300000D03*
X25780000Y-28300000D03*
G36*
G01*
X22460000Y-27469000D02*
X24020000Y-27469000D01*
G75*
G02*
X24071000Y-27520000I0J-51000D01*
G01*
X24071000Y-29080000D01*
G75*
G02*
X24020000Y-29131000I-51000J0D01*
G01*
X22460000Y-29131000D01*
G75*
G02*
X22409000Y-29080000I0J51000D01*
G01*
X22409000Y-27520000D01*
G75*
G02*
X22460000Y-27469000I51000J0D01*
G01*
G37*
D20*
X144780000Y-108204000D03*
X144780000Y-105664000D03*
X144780000Y-103124000D03*
X144780000Y-100584000D03*
X144780000Y-98044000D03*
X144780000Y-95504000D03*
X144780000Y-92964000D03*
X144780000Y-90424000D03*
X144780000Y-87884000D03*
X144030000Y-81384000D03*
X141490000Y-81384000D03*
X138950000Y-81384000D03*
X136410000Y-81384000D03*
X133870000Y-81384000D03*
X131330000Y-81384000D03*
D22*
G36*
X122215674Y-53308390D02*
G01*
X122215115Y-53310130D01*
X122202269Y-53322976D01*
X122188874Y-53343024D01*
X122179647Y-53365297D01*
X122174943Y-53388948D01*
X122174943Y-53413054D01*
X122179647Y-53436704D01*
X122188874Y-53458978D01*
X122202268Y-53479025D01*
X122219315Y-53496072D01*
X122239363Y-53509467D01*
X122261636Y-53518694D01*
X122285333Y-53523407D01*
X122297438Y-53524002D01*
X122299119Y-53525086D01*
X122299021Y-53527084D01*
X122297340Y-53528000D01*
X121034660Y-53528000D01*
X121032928Y-53527000D01*
X121032928Y-53525000D01*
X121034464Y-53524010D01*
X121058651Y-53521628D01*
X121081726Y-53514628D01*
X121102990Y-53503263D01*
X121121627Y-53487968D01*
X121136922Y-53469331D01*
X121148287Y-53448067D01*
X121155287Y-53424992D01*
X121157650Y-53401001D01*
X121155287Y-53377010D01*
X121148287Y-53353935D01*
X121136922Y-53332671D01*
X121121595Y-53313995D01*
X121120123Y-53312661D01*
X121119511Y-53310757D01*
X121120854Y-53309275D01*
X121122409Y-53309415D01*
X121221343Y-53362298D01*
X121329023Y-53394962D01*
X121441094Y-53406000D01*
X121890906Y-53406000D01*
X122002977Y-53394962D01*
X122110657Y-53362298D01*
X122209892Y-53309255D01*
X122212432Y-53307170D01*
X122214406Y-53306844D01*
X122215674Y-53308390D01*
G37*
G36*
X121214067Y-52088409D02*
G01*
X121221343Y-52092298D01*
X121329023Y-52124962D01*
X121441094Y-52136000D01*
X121890906Y-52136000D01*
X122002977Y-52124962D01*
X122110657Y-52092298D01*
X122117933Y-52088409D01*
X122119932Y-52088475D01*
X122120875Y-52090238D01*
X122119987Y-52091836D01*
X122104882Y-52101929D01*
X122087835Y-52118976D01*
X122074440Y-52139024D01*
X122065214Y-52161298D01*
X122060510Y-52184948D01*
X122060510Y-52209054D01*
X122065215Y-52232704D01*
X122074441Y-52254978D01*
X122087836Y-52275025D01*
X122104883Y-52292072D01*
X122119987Y-52302164D01*
X122120872Y-52303958D01*
X122119761Y-52305621D01*
X122117933Y-52305591D01*
X122110657Y-52301702D01*
X122002977Y-52269038D01*
X121890906Y-52258000D01*
X121441094Y-52258000D01*
X121329023Y-52269038D01*
X121221343Y-52301702D01*
X121214067Y-52305591D01*
X121212068Y-52305525D01*
X121211125Y-52303762D01*
X121212013Y-52302164D01*
X121227118Y-52292071D01*
X121244165Y-52275024D01*
X121257560Y-52254976D01*
X121266786Y-52232702D01*
X121271490Y-52209052D01*
X121271490Y-52184946D01*
X121266785Y-52161296D01*
X121257559Y-52139022D01*
X121244164Y-52118975D01*
X121227117Y-52101928D01*
X121212013Y-52091836D01*
X121211128Y-52090042D01*
X121212239Y-52088379D01*
X121214067Y-52088409D01*
G37*
M02*
