G04 #@! TF.GenerationSoftware,KiCad,Pcbnew,(5.1.7)-1*
G04 #@! TF.CreationDate,2020-10-22T22:29:39+02:00*
G04 #@! TF.ProjectId,eurorack_engine,6575726f-7261-4636-9b5f-656e67696e65,rev?*
G04 #@! TF.SameCoordinates,Original*
G04 #@! TF.FileFunction,Legend,Top*
G04 #@! TF.FilePolarity,Positive*
%FSLAX46Y46*%
G04 Gerber Fmt 4.6, Leading zero omitted, Abs format (unit mm)*
G04 Created by KiCad (PCBNEW (5.1.7)-1) date 2020-10-22 22:29:39*
%MOMM*%
%LPD*%
G01*
G04 APERTURE LIST*
%ADD10C,0.150000*%
%ADD11C,0.300000*%
%ADD12C,0.200000*%
%ADD13C,0.500000*%
%ADD14C,0.120000*%
G04 #@! TA.AperFunction,Profile*
%ADD15C,0.050000*%
G04 #@! TD*
G04 APERTURE END LIST*
D10*
X143764095Y-61730000D02*
X143668857Y-61682380D01*
X143526000Y-61682380D01*
X143383142Y-61730000D01*
X143287904Y-61825238D01*
X143240285Y-61920476D01*
X143192666Y-62110952D01*
X143192666Y-62253809D01*
X143240285Y-62444285D01*
X143287904Y-62539523D01*
X143383142Y-62634761D01*
X143526000Y-62682380D01*
X143621238Y-62682380D01*
X143764095Y-62634761D01*
X143811714Y-62587142D01*
X143811714Y-62253809D01*
X143621238Y-62253809D01*
X144240285Y-62682380D02*
X144240285Y-61682380D01*
X144811714Y-62682380D01*
X144811714Y-61682380D01*
X145287904Y-62682380D02*
X145287904Y-61682380D01*
X145526000Y-61682380D01*
X145668857Y-61730000D01*
X145764095Y-61825238D01*
X145811714Y-61920476D01*
X145859333Y-62110952D01*
X145859333Y-62253809D01*
X145811714Y-62444285D01*
X145764095Y-62539523D01*
X145668857Y-62634761D01*
X145526000Y-62682380D01*
X145287904Y-62682380D01*
X143018095Y-57221428D02*
X143780000Y-57221428D01*
X144780000Y-57602380D02*
X144208571Y-57602380D01*
X144494285Y-57602380D02*
X144494285Y-56602380D01*
X144399047Y-56745238D01*
X144303809Y-56840476D01*
X144208571Y-56888095D01*
X145160952Y-56697619D02*
X145208571Y-56650000D01*
X145303809Y-56602380D01*
X145541904Y-56602380D01*
X145637142Y-56650000D01*
X145684761Y-56697619D01*
X145732380Y-56792857D01*
X145732380Y-56888095D01*
X145684761Y-57030952D01*
X145113333Y-57602380D01*
X145732380Y-57602380D01*
X146018095Y-56602380D02*
X146351428Y-57602380D01*
X146684761Y-56602380D01*
X143272095Y-67635428D02*
X144034000Y-67635428D01*
X143653047Y-68016380D02*
X143653047Y-67254476D01*
X145034000Y-68016380D02*
X144462571Y-68016380D01*
X144748285Y-68016380D02*
X144748285Y-67016380D01*
X144653047Y-67159238D01*
X144557809Y-67254476D01*
X144462571Y-67302095D01*
X145414952Y-67111619D02*
X145462571Y-67064000D01*
X145557809Y-67016380D01*
X145795904Y-67016380D01*
X145891142Y-67064000D01*
X145938761Y-67111619D01*
X145986380Y-67206857D01*
X145986380Y-67302095D01*
X145938761Y-67444952D01*
X145367333Y-68016380D01*
X145986380Y-68016380D01*
X146272095Y-67016380D02*
X146605428Y-68016380D01*
X146938761Y-67016380D01*
D11*
X77772571Y-78319142D02*
X77772571Y-75319142D01*
X77772571Y-78176285D02*
X77486857Y-78319142D01*
X76915428Y-78319142D01*
X76629714Y-78176285D01*
X76486857Y-78033428D01*
X76344000Y-77747714D01*
X76344000Y-76890571D01*
X76486857Y-76604857D01*
X76629714Y-76462000D01*
X76915428Y-76319142D01*
X77486857Y-76319142D01*
X77772571Y-76462000D01*
X80058285Y-79319142D02*
X79344000Y-79319142D01*
X79344000Y-75033428D01*
X80058285Y-75033428D01*
X81201142Y-77176285D02*
X83486857Y-77176285D01*
X84201142Y-78604857D02*
X86486857Y-78604857D01*
X87201142Y-77176285D02*
X89486857Y-77176285D01*
X90629714Y-79319142D02*
X91344000Y-79319142D01*
X91344000Y-75033428D01*
X90629714Y-75033428D01*
X92915428Y-78319142D02*
X92915428Y-75319142D01*
X92915428Y-76462000D02*
X93201142Y-76319142D01*
X93772571Y-76319142D01*
X94058285Y-76462000D01*
X94201142Y-76604857D01*
X94344000Y-76890571D01*
X94344000Y-77747714D01*
X94201142Y-78033428D01*
X94058285Y-78176285D01*
X93772571Y-78319142D01*
X93201142Y-78319142D01*
X92915428Y-78176285D01*
D12*
X4413904Y-90979428D02*
X3937714Y-90979428D01*
X3937714Y-88122285D01*
X4413904Y-88122285D01*
X5271047Y-89169904D02*
X5271047Y-89931809D01*
X5366285Y-90027047D02*
X5747238Y-90312761D01*
X5366285Y-89074666D02*
X5747238Y-88788952D01*
X5366285Y-88979428D02*
X5366285Y-90122285D01*
X5461523Y-90122285D02*
X5461523Y-88979428D01*
X5556761Y-88884190D02*
X5556761Y-90217523D01*
X5651999Y-90217523D02*
X5651999Y-88884190D01*
X5747238Y-88788952D02*
X5747238Y-90312761D01*
X5842476Y-90312761D02*
X5842476Y-88788952D01*
X5937714Y-88788952D02*
X5937714Y-90312761D01*
X6032952Y-90312761D02*
X6032952Y-88788952D01*
X6128190Y-90312761D02*
X6509142Y-90027047D01*
X6128190Y-88788952D02*
X6128190Y-90312761D01*
X6128190Y-88788952D02*
X6509142Y-89074666D01*
X6223428Y-90217523D02*
X6223428Y-88884190D01*
X6318666Y-88884190D02*
X6318666Y-90217523D01*
X6413904Y-90122285D02*
X6413904Y-88979428D01*
X6509142Y-88979428D02*
X6509142Y-90122285D01*
X6604380Y-89931809D02*
X6604380Y-89169904D01*
X5747238Y-88788952D02*
X6128190Y-88788952D01*
X6509142Y-88979428D01*
X6699619Y-89360380D01*
X6699619Y-89741333D01*
X6509142Y-90122285D01*
X6128190Y-90312761D01*
X5747238Y-90312761D01*
X5366285Y-90122285D01*
X5175809Y-89741333D01*
X5175809Y-89360380D01*
X5366285Y-88979428D01*
X5747238Y-88788952D01*
X8223428Y-89265142D02*
X8223428Y-89836571D01*
X8318666Y-89836571D02*
X8318666Y-89265142D01*
X8413904Y-89265142D02*
X8413904Y-89836571D01*
X8509142Y-89836571D02*
X8509142Y-89265142D01*
X8604380Y-89265142D02*
X8604380Y-89836571D01*
X8128190Y-89836571D02*
X8128190Y-89265142D01*
X8699619Y-89265142D01*
X8699619Y-89836571D01*
X8128190Y-89836571D01*
X10699619Y-89265142D02*
X10699619Y-89836571D01*
X10794857Y-89836571D02*
X10794857Y-89265142D01*
X10890095Y-89265142D02*
X10890095Y-89836571D01*
X10985333Y-89836571D02*
X10985333Y-89265142D01*
X11080571Y-89265142D02*
X11080571Y-89836571D01*
X10604380Y-89836571D02*
X10604380Y-89265142D01*
X11175809Y-89265142D01*
X11175809Y-89836571D01*
X10604380Y-89836571D01*
X12699619Y-89169904D02*
X12699619Y-89931809D01*
X12794857Y-90027047D02*
X13175809Y-90312761D01*
X12794857Y-89074666D02*
X13175809Y-88788952D01*
X12794857Y-88979428D02*
X12794857Y-90122285D01*
X12890095Y-90122285D02*
X12890095Y-88979428D01*
X12985333Y-88884190D02*
X12985333Y-90217523D01*
X13080571Y-90217523D02*
X13080571Y-88884190D01*
X13175809Y-88788952D02*
X13175809Y-90312761D01*
X13271047Y-90312761D02*
X13271047Y-88788952D01*
X13366285Y-88788952D02*
X13366285Y-90312761D01*
X13461523Y-90312761D02*
X13461523Y-88788952D01*
X13556761Y-90312761D02*
X13937714Y-90027047D01*
X13556761Y-88788952D02*
X13556761Y-90312761D01*
X13556761Y-88788952D02*
X13937714Y-89074666D01*
X13652000Y-90217523D02*
X13652000Y-88884190D01*
X13747238Y-88884190D02*
X13747238Y-90217523D01*
X13842476Y-90122285D02*
X13842476Y-88979428D01*
X13937714Y-88979428D02*
X13937714Y-90122285D01*
X14032952Y-89931809D02*
X14032952Y-89169904D01*
X13175809Y-88788952D02*
X13556761Y-88788952D01*
X13937714Y-88979428D01*
X14128190Y-89360380D01*
X14128190Y-89741333D01*
X13937714Y-90122285D01*
X13556761Y-90312761D01*
X13175809Y-90312761D01*
X12794857Y-90122285D01*
X12604380Y-89741333D01*
X12604380Y-89360380D01*
X12794857Y-88979428D01*
X13175809Y-88788952D01*
X14890095Y-90979428D02*
X15366285Y-90979428D01*
X15366285Y-88122285D01*
X14890095Y-88122285D01*
D11*
X108697142Y-124023142D02*
X107982857Y-124023142D01*
X107982857Y-119737428D01*
X108697142Y-119737428D01*
X109840000Y-121594571D02*
X112125714Y-121594571D01*
X112125714Y-122308857D01*
X113697142Y-121166000D02*
X113411428Y-121023142D01*
X113268571Y-120737428D01*
X113268571Y-120166000D01*
X113411428Y-119880285D01*
X113697142Y-119737428D01*
X113982857Y-119737428D01*
X114268571Y-119880285D01*
X114411428Y-120166000D01*
X114411428Y-120737428D01*
X114268571Y-121023142D01*
X113982857Y-121166000D01*
X113697142Y-121166000D01*
X115554285Y-121880285D02*
X117840000Y-121880285D01*
X119697142Y-120023142D02*
X119411428Y-120166000D01*
X119268571Y-120451714D01*
X119411428Y-120737428D01*
X119697142Y-120880285D01*
X119982857Y-120737428D01*
X120125714Y-120451714D01*
X119982857Y-120166000D01*
X119697142Y-120023142D01*
X121268571Y-124023142D02*
X121982857Y-124023142D01*
X121982857Y-119737428D01*
X121268571Y-119737428D01*
X123554285Y-121594571D02*
X125840000Y-121594571D01*
X125840000Y-122308857D01*
D12*
X81820476Y-121224761D02*
X81820476Y-119224761D01*
X82487142Y-120653333D01*
X83153809Y-119224761D01*
X83153809Y-121224761D01*
X84106190Y-119224761D02*
X84106190Y-120843809D01*
X84201428Y-121034285D01*
X84296666Y-121129523D01*
X84487142Y-121224761D01*
X84868095Y-121224761D01*
X85058571Y-121129523D01*
X85153809Y-121034285D01*
X85249047Y-120843809D01*
X85249047Y-119224761D01*
X86106190Y-121129523D02*
X86391904Y-121224761D01*
X86868095Y-121224761D01*
X87058571Y-121129523D01*
X87153809Y-121034285D01*
X87249047Y-120843809D01*
X87249047Y-120653333D01*
X87153809Y-120462857D01*
X87058571Y-120367619D01*
X86868095Y-120272380D01*
X86487142Y-120177142D01*
X86296666Y-120081904D01*
X86201428Y-119986666D01*
X86106190Y-119796190D01*
X86106190Y-119605714D01*
X86201428Y-119415238D01*
X86296666Y-119320000D01*
X86487142Y-119224761D01*
X86963333Y-119224761D01*
X87249047Y-119320000D01*
X88106190Y-121224761D02*
X88106190Y-119224761D01*
X90201428Y-121034285D02*
X90106190Y-121129523D01*
X89820476Y-121224761D01*
X89630000Y-121224761D01*
X89344285Y-121129523D01*
X89153809Y-120939047D01*
X89058571Y-120748571D01*
X88963333Y-120367619D01*
X88963333Y-120081904D01*
X89058571Y-119700952D01*
X89153809Y-119510476D01*
X89344285Y-119320000D01*
X89630000Y-119224761D01*
X89820476Y-119224761D01*
X90106190Y-119320000D01*
X90201428Y-119415238D01*
X90963333Y-120653333D02*
X91915714Y-120653333D01*
X90772857Y-121224761D02*
X91439523Y-119224761D01*
X92106190Y-121224761D01*
X93725238Y-121224761D02*
X92772857Y-121224761D01*
X92772857Y-119224761D01*
X78296666Y-122424761D02*
X79439523Y-122424761D01*
X78868095Y-124424761D02*
X78868095Y-122424761D01*
X80106190Y-123377142D02*
X80772857Y-123377142D01*
X81058571Y-124424761D02*
X80106190Y-124424761D01*
X80106190Y-122424761D01*
X81058571Y-122424761D01*
X83058571Y-124234285D02*
X82963333Y-124329523D01*
X82677619Y-124424761D01*
X82487142Y-124424761D01*
X82201428Y-124329523D01*
X82010952Y-124139047D01*
X81915714Y-123948571D01*
X81820476Y-123567619D01*
X81820476Y-123281904D01*
X81915714Y-122900952D01*
X82010952Y-122710476D01*
X82201428Y-122520000D01*
X82487142Y-122424761D01*
X82677619Y-122424761D01*
X82963333Y-122520000D01*
X83058571Y-122615238D01*
X83915714Y-124424761D02*
X83915714Y-122424761D01*
X83915714Y-123377142D02*
X85058571Y-123377142D01*
X85058571Y-124424761D02*
X85058571Y-122424761D01*
X86010952Y-124424761D02*
X86010952Y-122424761D01*
X87153809Y-124424761D01*
X87153809Y-122424761D01*
X88487142Y-122424761D02*
X88868095Y-122424761D01*
X89058571Y-122520000D01*
X89249047Y-122710476D01*
X89344285Y-123091428D01*
X89344285Y-123758095D01*
X89249047Y-124139047D01*
X89058571Y-124329523D01*
X88868095Y-124424761D01*
X88487142Y-124424761D01*
X88296666Y-124329523D01*
X88106190Y-124139047D01*
X88010952Y-123758095D01*
X88010952Y-123091428D01*
X88106190Y-122710476D01*
X88296666Y-122520000D01*
X88487142Y-122424761D01*
X91153809Y-124424761D02*
X90201428Y-124424761D01*
X90201428Y-122424761D01*
X92201428Y-122424761D02*
X92582380Y-122424761D01*
X92772857Y-122520000D01*
X92963333Y-122710476D01*
X93058571Y-123091428D01*
X93058571Y-123758095D01*
X92963333Y-124139047D01*
X92772857Y-124329523D01*
X92582380Y-124424761D01*
X92201428Y-124424761D01*
X92010952Y-124329523D01*
X91820476Y-124139047D01*
X91725238Y-123758095D01*
X91725238Y-123091428D01*
X91820476Y-122710476D01*
X92010952Y-122520000D01*
X92201428Y-122424761D01*
X94963333Y-122520000D02*
X94772857Y-122424761D01*
X94487142Y-122424761D01*
X94201428Y-122520000D01*
X94010952Y-122710476D01*
X93915714Y-122900952D01*
X93820476Y-123281904D01*
X93820476Y-123567619D01*
X93915714Y-123948571D01*
X94010952Y-124139047D01*
X94201428Y-124329523D01*
X94487142Y-124424761D01*
X94677619Y-124424761D01*
X94963333Y-124329523D01*
X95058571Y-124234285D01*
X95058571Y-123567619D01*
X94677619Y-123567619D01*
X96296666Y-123472380D02*
X96296666Y-124424761D01*
X95630000Y-122424761D02*
X96296666Y-123472380D01*
X96963333Y-122424761D01*
D13*
X50848571Y-123642285D02*
X51277142Y-123785142D01*
X51991428Y-123785142D01*
X52277142Y-123642285D01*
X52420000Y-123499428D01*
X52562857Y-123213714D01*
X52562857Y-122928000D01*
X52420000Y-122642285D01*
X52277142Y-122499428D01*
X51991428Y-122356571D01*
X51420000Y-122213714D01*
X51134285Y-122070857D01*
X50991428Y-121928000D01*
X50848571Y-121642285D01*
X50848571Y-121356571D01*
X50991428Y-121070857D01*
X51134285Y-120928000D01*
X51420000Y-120785142D01*
X52134285Y-120785142D01*
X52562857Y-120928000D01*
X53848571Y-123785142D02*
X53848571Y-120785142D01*
X55277142Y-123785142D02*
X55277142Y-120785142D01*
X56991428Y-123785142D01*
X56991428Y-120785142D01*
X58420000Y-123785142D02*
X58420000Y-120785142D01*
X60134285Y-123785142D01*
X60134285Y-120785142D01*
X61562857Y-122213714D02*
X62562857Y-122213714D01*
X62991428Y-123785142D02*
X61562857Y-123785142D01*
X61562857Y-120785142D01*
X62991428Y-120785142D01*
X65277142Y-122213714D02*
X65705714Y-122356571D01*
X65848571Y-122499428D01*
X65991428Y-122785142D01*
X65991428Y-123213714D01*
X65848571Y-123499428D01*
X65705714Y-123642285D01*
X65420000Y-123785142D01*
X64277142Y-123785142D01*
X64277142Y-120785142D01*
X65277142Y-120785142D01*
X65562857Y-120928000D01*
X65705714Y-121070857D01*
X65848571Y-121356571D01*
X65848571Y-121642285D01*
X65705714Y-121928000D01*
X65562857Y-122070857D01*
X65277142Y-122213714D01*
X64277142Y-122213714D01*
X78074476Y-4540285D02*
X79407809Y-4540285D01*
X79979238Y-6635523D02*
X78074476Y-6635523D01*
X78074476Y-2635523D01*
X79979238Y-2635523D01*
X81693523Y-6635523D02*
X81693523Y-2635523D01*
X83979238Y-6635523D01*
X83979238Y-2635523D01*
X87979238Y-2826000D02*
X87598285Y-2635523D01*
X87026857Y-2635523D01*
X86455428Y-2826000D01*
X86074476Y-3206952D01*
X85884000Y-3587904D01*
X85693523Y-4349809D01*
X85693523Y-4921238D01*
X85884000Y-5683142D01*
X86074476Y-6064095D01*
X86455428Y-6445047D01*
X87026857Y-6635523D01*
X87407809Y-6635523D01*
X87979238Y-6445047D01*
X88169714Y-6254571D01*
X88169714Y-4921238D01*
X87407809Y-4921238D01*
X89884000Y-6635523D02*
X89884000Y-2635523D01*
X91788761Y-6635523D02*
X91788761Y-2635523D01*
X94074476Y-6635523D01*
X94074476Y-2635523D01*
X95979238Y-4540285D02*
X97312571Y-4540285D01*
X97884000Y-6635523D02*
X95979238Y-6635523D01*
X95979238Y-2635523D01*
X97884000Y-2635523D01*
X37054095Y-4794285D02*
X38387428Y-4794285D01*
X38958857Y-6889523D02*
X37054095Y-6889523D01*
X37054095Y-2889523D01*
X38958857Y-2889523D01*
X40673142Y-2889523D02*
X40673142Y-6127619D01*
X40863619Y-6508571D01*
X41054095Y-6699047D01*
X41435047Y-6889523D01*
X42196952Y-6889523D01*
X42577904Y-6699047D01*
X42768380Y-6508571D01*
X42958857Y-6127619D01*
X42958857Y-2889523D01*
X47149333Y-6889523D02*
X45816000Y-4984761D01*
X44863619Y-6889523D02*
X44863619Y-2889523D01*
X46387428Y-2889523D01*
X46768380Y-3080000D01*
X46958857Y-3270476D01*
X47149333Y-3651428D01*
X47149333Y-4222857D01*
X46958857Y-4603809D01*
X46768380Y-4794285D01*
X46387428Y-4984761D01*
X44863619Y-4984761D01*
X49625523Y-2889523D02*
X50387428Y-2889523D01*
X50768380Y-3080000D01*
X51149333Y-3460952D01*
X51339809Y-4222857D01*
X51339809Y-5556190D01*
X51149333Y-6318095D01*
X50768380Y-6699047D01*
X50387428Y-6889523D01*
X49625523Y-6889523D01*
X49244571Y-6699047D01*
X48863619Y-6318095D01*
X48673142Y-5556190D01*
X48673142Y-4222857D01*
X48863619Y-3460952D01*
X49244571Y-3080000D01*
X49625523Y-2889523D01*
X55339809Y-6889523D02*
X54006476Y-4984761D01*
X53054095Y-6889523D02*
X53054095Y-2889523D01*
X54577904Y-2889523D01*
X54958857Y-3080000D01*
X55149333Y-3270476D01*
X55339809Y-3651428D01*
X55339809Y-4222857D01*
X55149333Y-4603809D01*
X54958857Y-4794285D01*
X54577904Y-4984761D01*
X53054095Y-4984761D01*
X56863619Y-5746666D02*
X58768380Y-5746666D01*
X56482666Y-6889523D02*
X57816000Y-2889523D01*
X59149333Y-6889523D01*
X62768380Y-6508571D02*
X62577904Y-6699047D01*
X62006476Y-6889523D01*
X61625523Y-6889523D01*
X61054095Y-6699047D01*
X60673142Y-6318095D01*
X60482666Y-5937142D01*
X60292190Y-5175238D01*
X60292190Y-4603809D01*
X60482666Y-3841904D01*
X60673142Y-3460952D01*
X61054095Y-3080000D01*
X61625523Y-2889523D01*
X62006476Y-2889523D01*
X62577904Y-3080000D01*
X62768380Y-3270476D01*
X64482666Y-6889523D02*
X64482666Y-2889523D01*
X66768380Y-6889523D02*
X65054095Y-4603809D01*
X66768380Y-2889523D02*
X64482666Y-5175238D01*
D14*
X-1270000Y-116967000D02*
X153035000Y-116967000D01*
X-2032000Y-9080500D02*
X152209500Y-9080500D01*
D15*
X0Y-127000000D02*
X0Y0D01*
X150500000Y-127000000D02*
X0Y-127000000D01*
X150500000Y0D02*
X150500000Y-127000000D01*
X0Y0D02*
X150500000Y0D01*
D14*
X123516000Y-54632000D02*
X123516000Y-51032000D01*
X123504478Y-50993522D02*
G75*
G03*
X119066000Y-52832000I-1838478J-1838478D01*
G01*
X123504478Y-54670478D02*
G75*
G02*
X119066000Y-52832000I-1838478J1838478D01*
G01*
X141551000Y-72168000D02*
X141551000Y-73678000D01*
X137850000Y-72168000D02*
X137850000Y-73678000D01*
X134580000Y-73678000D02*
X144820000Y-73678000D01*
X144820000Y-72168000D02*
X144820000Y-76809000D01*
X134580000Y-72168000D02*
X134580000Y-76809000D01*
X134580000Y-76809000D02*
X144820000Y-76809000D01*
X134580000Y-72168000D02*
X144820000Y-72168000D01*
X103438000Y-86748000D02*
X93158000Y-86748000D01*
X103438000Y-104768000D02*
X103438000Y-86748000D01*
X93158000Y-104768000D02*
X103438000Y-104768000D01*
X93158000Y-86748000D02*
X93158000Y-104768000D01*
X100948000Y-86808000D02*
X99298000Y-86808000D01*
X100948000Y-104708000D02*
X100948000Y-86808000D01*
X95648000Y-104708000D02*
X100948000Y-104708000D01*
X95648000Y-86808000D02*
X95648000Y-104708000D01*
X97298000Y-86808000D02*
X95648000Y-86808000D01*
X99298000Y-86808000D02*
G75*
G02*
X97298000Y-86808000I-1000000J0D01*
G01*
X107502000Y-19438000D02*
X97222000Y-19438000D01*
X107502000Y-37458000D02*
X107502000Y-19438000D01*
X97222000Y-37458000D02*
X107502000Y-37458000D01*
X97222000Y-19438000D02*
X97222000Y-37458000D01*
X105012000Y-19498000D02*
X103362000Y-19498000D01*
X105012000Y-37398000D02*
X105012000Y-19498000D01*
X99712000Y-37398000D02*
X105012000Y-37398000D01*
X99712000Y-19498000D02*
X99712000Y-37398000D01*
X101362000Y-19498000D02*
X99712000Y-19498000D01*
X103362000Y-19498000D02*
G75*
G02*
X101362000Y-19498000I-1000000J0D01*
G01*
X103234000Y-51502000D02*
X101584000Y-51502000D01*
X103234000Y-71942000D02*
X103234000Y-51502000D01*
X97934000Y-71942000D02*
X103234000Y-71942000D01*
X97934000Y-51502000D02*
X97934000Y-71942000D01*
X99584000Y-51502000D02*
X97934000Y-51502000D01*
X101584000Y-51502000D02*
G75*
G02*
X99584000Y-51502000I-1000000J0D01*
G01*
X70711000Y-58762000D02*
X80752000Y-58762000D01*
X79102000Y-71002000D02*
X80752000Y-71002000D01*
X76603000Y-71002000D02*
X77362000Y-71002000D01*
X74103000Y-71002000D02*
X74862000Y-71002000D01*
X70711000Y-71002000D02*
X72361000Y-71002000D01*
X80752000Y-62698000D02*
X80752000Y-58762000D01*
X80752000Y-71002000D02*
X80752000Y-67065000D01*
X70711000Y-62698000D02*
X70711000Y-58762000D01*
X70711000Y-71002000D02*
X70711000Y-67065000D01*
X49121000Y-59016000D02*
X59162000Y-59016000D01*
X57512000Y-71256000D02*
X59162000Y-71256000D01*
X55013000Y-71256000D02*
X55772000Y-71256000D01*
X52513000Y-71256000D02*
X53272000Y-71256000D01*
X49121000Y-71256000D02*
X50771000Y-71256000D01*
X59162000Y-62952000D02*
X59162000Y-59016000D01*
X59162000Y-71256000D02*
X59162000Y-67319000D01*
X49121000Y-62952000D02*
X49121000Y-59016000D01*
X49121000Y-71256000D02*
X49121000Y-67319000D01*
X29055000Y-59016000D02*
X39096000Y-59016000D01*
X37446000Y-71256000D02*
X39096000Y-71256000D01*
X34947000Y-71256000D02*
X35706000Y-71256000D01*
X32447000Y-71256000D02*
X33206000Y-71256000D01*
X29055000Y-71256000D02*
X30705000Y-71256000D01*
X39096000Y-62952000D02*
X39096000Y-59016000D01*
X39096000Y-71256000D02*
X39096000Y-67319000D01*
X29055000Y-62952000D02*
X29055000Y-59016000D01*
X29055000Y-71256000D02*
X29055000Y-67319000D01*
X7719000Y-59016000D02*
X17760000Y-59016000D01*
X16110000Y-71256000D02*
X17760000Y-71256000D01*
X13611000Y-71256000D02*
X14370000Y-71256000D01*
X11111000Y-71256000D02*
X11870000Y-71256000D01*
X7719000Y-71256000D02*
X9369000Y-71256000D01*
X17760000Y-62952000D02*
X17760000Y-59016000D01*
X17760000Y-71256000D02*
X17760000Y-67319000D01*
X7719000Y-62952000D02*
X7719000Y-59016000D01*
X7719000Y-71256000D02*
X7719000Y-67319000D01*
X142208000Y-51916000D02*
X142208000Y-51586000D01*
X135668000Y-51916000D02*
X142208000Y-51916000D01*
X135668000Y-51586000D02*
X135668000Y-51916000D01*
X142208000Y-49176000D02*
X142208000Y-49506000D01*
X135668000Y-49176000D02*
X142208000Y-49176000D01*
X135668000Y-49506000D02*
X135668000Y-49176000D01*
X129440000Y-77184000D02*
X129770000Y-77184000D01*
X129440000Y-70644000D02*
X129440000Y-77184000D01*
X129770000Y-70644000D02*
X129440000Y-70644000D01*
X132180000Y-77184000D02*
X131850000Y-77184000D01*
X132180000Y-70644000D02*
X132180000Y-77184000D01*
X131850000Y-70644000D02*
X132180000Y-70644000D01*
X117062000Y-21690000D02*
X117062000Y-21360000D01*
X110522000Y-21690000D02*
X117062000Y-21690000D01*
X110522000Y-21360000D02*
X110522000Y-21690000D01*
X117062000Y-18950000D02*
X117062000Y-19280000D01*
X110522000Y-18950000D02*
X117062000Y-18950000D01*
X110522000Y-19280000D02*
X110522000Y-18950000D01*
X87662000Y-34952000D02*
X87662000Y-35282000D01*
X94202000Y-34952000D02*
X87662000Y-34952000D01*
X94202000Y-35282000D02*
X94202000Y-34952000D01*
X87662000Y-37692000D02*
X87662000Y-37362000D01*
X94202000Y-37692000D02*
X87662000Y-37692000D01*
X94202000Y-37362000D02*
X94202000Y-37692000D01*
X114522000Y-105510000D02*
X114522000Y-105180000D01*
X107982000Y-105510000D02*
X114522000Y-105510000D01*
X107982000Y-105180000D02*
X107982000Y-105510000D01*
X114522000Y-102770000D02*
X114522000Y-103100000D01*
X107982000Y-102770000D02*
X114522000Y-102770000D01*
X107982000Y-103100000D02*
X107982000Y-102770000D01*
X114268000Y-89508000D02*
X114268000Y-89178000D01*
X107728000Y-89508000D02*
X114268000Y-89508000D01*
X107728000Y-89178000D02*
X107728000Y-89508000D01*
X114268000Y-86768000D02*
X114268000Y-87098000D01*
X107728000Y-86768000D02*
X114268000Y-86768000D01*
X107728000Y-87098000D02*
X107728000Y-86768000D01*
X117062000Y-26008000D02*
X117062000Y-25678000D01*
X110522000Y-26008000D02*
X117062000Y-26008000D01*
X110522000Y-25678000D02*
X110522000Y-26008000D01*
X117062000Y-23268000D02*
X117062000Y-23598000D01*
X110522000Y-23268000D02*
X117062000Y-23268000D01*
X110522000Y-23598000D02*
X110522000Y-23268000D01*
X99028000Y-42518000D02*
X99028000Y-42188000D01*
X92488000Y-42518000D02*
X99028000Y-42518000D01*
X92488000Y-42188000D02*
X92488000Y-42518000D01*
X99028000Y-39778000D02*
X99028000Y-40108000D01*
X92488000Y-39778000D02*
X99028000Y-39778000D01*
X92488000Y-40108000D02*
X92488000Y-39778000D01*
X100616000Y-107596000D02*
X100616000Y-107926000D01*
X107156000Y-107596000D02*
X100616000Y-107596000D01*
X107156000Y-107926000D02*
X107156000Y-107596000D01*
X100616000Y-110336000D02*
X100616000Y-110006000D01*
X107156000Y-110336000D02*
X100616000Y-110336000D01*
X107156000Y-110006000D02*
X107156000Y-110336000D01*
X100616000Y-81180000D02*
X100616000Y-81510000D01*
X107156000Y-81180000D02*
X100616000Y-81180000D01*
X107156000Y-81510000D02*
X107156000Y-81180000D01*
X100616000Y-83920000D02*
X100616000Y-83590000D01*
X107156000Y-83920000D02*
X100616000Y-83920000D01*
X107156000Y-83590000D02*
X107156000Y-83920000D01*
X112236000Y-16864000D02*
X112236000Y-16534000D01*
X105696000Y-16864000D02*
X112236000Y-16864000D01*
X105696000Y-16534000D02*
X105696000Y-16864000D01*
X112236000Y-14124000D02*
X112236000Y-14454000D01*
X105696000Y-14124000D02*
X112236000Y-14124000D01*
X105696000Y-14454000D02*
X105696000Y-14124000D01*
X87662000Y-30888000D02*
X87662000Y-31218000D01*
X94202000Y-30888000D02*
X87662000Y-30888000D01*
X94202000Y-31218000D02*
X94202000Y-30888000D01*
X87662000Y-33628000D02*
X87662000Y-33298000D01*
X94202000Y-33628000D02*
X87662000Y-33628000D01*
X94202000Y-33298000D02*
X94202000Y-33628000D01*
X107982000Y-96928000D02*
X107982000Y-97258000D01*
X114522000Y-96928000D02*
X107982000Y-96928000D01*
X114522000Y-97258000D02*
X114522000Y-96928000D01*
X107982000Y-99668000D02*
X107982000Y-99338000D01*
X114522000Y-99668000D02*
X107982000Y-99668000D01*
X114522000Y-99338000D02*
X114522000Y-99668000D01*
X107982000Y-91594000D02*
X107982000Y-91924000D01*
X114522000Y-91594000D02*
X107982000Y-91594000D01*
X114522000Y-91924000D02*
X114522000Y-91594000D01*
X107982000Y-94334000D02*
X107982000Y-94004000D01*
X114522000Y-94334000D02*
X107982000Y-94334000D01*
X114522000Y-94004000D02*
X114522000Y-94334000D01*
X127354000Y-24924000D02*
X127024000Y-24924000D01*
X127354000Y-31464000D02*
X127354000Y-24924000D01*
X127024000Y-31464000D02*
X127354000Y-31464000D01*
X124614000Y-24924000D02*
X124944000Y-24924000D01*
X124614000Y-31464000D02*
X124614000Y-24924000D01*
X124944000Y-31464000D02*
X124614000Y-31464000D01*
X127354000Y-102648000D02*
X127024000Y-102648000D01*
X127354000Y-109188000D02*
X127354000Y-102648000D01*
X127024000Y-109188000D02*
X127354000Y-109188000D01*
X124614000Y-102648000D02*
X124944000Y-102648000D01*
X124614000Y-109188000D02*
X124614000Y-102648000D01*
X124944000Y-109188000D02*
X124614000Y-109188000D01*
X117316000Y-37692000D02*
X117316000Y-37362000D01*
X110776000Y-37692000D02*
X117316000Y-37692000D01*
X110776000Y-37362000D02*
X110776000Y-37692000D01*
X117316000Y-34952000D02*
X117316000Y-35282000D01*
X110776000Y-34952000D02*
X117316000Y-34952000D01*
X110776000Y-35282000D02*
X110776000Y-34952000D01*
X87662000Y-18950000D02*
X87662000Y-19280000D01*
X94202000Y-18950000D02*
X87662000Y-18950000D01*
X94202000Y-19280000D02*
X94202000Y-18950000D01*
X87662000Y-21690000D02*
X87662000Y-21360000D01*
X94202000Y-21690000D02*
X87662000Y-21690000D01*
X94202000Y-21360000D02*
X94202000Y-21690000D01*
X89122000Y-89254000D02*
X89122000Y-88924000D01*
X82582000Y-89254000D02*
X89122000Y-89254000D01*
X82582000Y-88924000D02*
X82582000Y-89254000D01*
X89122000Y-86514000D02*
X89122000Y-86844000D01*
X82582000Y-86514000D02*
X89122000Y-86514000D01*
X82582000Y-86844000D02*
X82582000Y-86514000D01*
X89376000Y-105510000D02*
X89376000Y-105180000D01*
X82836000Y-105510000D02*
X89376000Y-105510000D01*
X82836000Y-105180000D02*
X82836000Y-105510000D01*
X89376000Y-102770000D02*
X89376000Y-103100000D01*
X82836000Y-102770000D02*
X89376000Y-102770000D01*
X82836000Y-103100000D02*
X82836000Y-102770000D01*
X94964000Y-83920000D02*
X94964000Y-83590000D01*
X88424000Y-83920000D02*
X94964000Y-83920000D01*
X88424000Y-83590000D02*
X88424000Y-83920000D01*
X94964000Y-81180000D02*
X94964000Y-81510000D01*
X88424000Y-81180000D02*
X94964000Y-81180000D01*
X88424000Y-81510000D02*
X88424000Y-81180000D01*
X95726000Y-110336000D02*
X95726000Y-110006000D01*
X89186000Y-110336000D02*
X95726000Y-110336000D01*
X89186000Y-110006000D02*
X89186000Y-110336000D01*
X95726000Y-107596000D02*
X95726000Y-107926000D01*
X89186000Y-107596000D02*
X95726000Y-107596000D01*
X89186000Y-107926000D02*
X89186000Y-107596000D01*
X110458000Y-42518000D02*
X110458000Y-42188000D01*
X103918000Y-42518000D02*
X110458000Y-42518000D01*
X103918000Y-42188000D02*
X103918000Y-42518000D01*
X110458000Y-39778000D02*
X110458000Y-40108000D01*
X103918000Y-39778000D02*
X110458000Y-39778000D01*
X103918000Y-40108000D02*
X103918000Y-39778000D01*
X98774000Y-16864000D02*
X98774000Y-16534000D01*
X92234000Y-16864000D02*
X98774000Y-16864000D01*
X92234000Y-16534000D02*
X92234000Y-16864000D01*
X98774000Y-14124000D02*
X98774000Y-14454000D01*
X92234000Y-14124000D02*
X98774000Y-14124000D01*
X92234000Y-14454000D02*
X92234000Y-14124000D01*
X89376000Y-93318000D02*
X89376000Y-92988000D01*
X82836000Y-93318000D02*
X89376000Y-93318000D01*
X82836000Y-92988000D02*
X82836000Y-93318000D01*
X89376000Y-90578000D02*
X89376000Y-90908000D01*
X82836000Y-90578000D02*
X89376000Y-90578000D01*
X82836000Y-90908000D02*
X82836000Y-90578000D01*
X89630000Y-100938000D02*
X89630000Y-100608000D01*
X83090000Y-100938000D02*
X89630000Y-100938000D01*
X83090000Y-100608000D02*
X83090000Y-100938000D01*
X89630000Y-98198000D02*
X89630000Y-98528000D01*
X83090000Y-98198000D02*
X89630000Y-98198000D01*
X83090000Y-98528000D02*
X83090000Y-98198000D01*
X117316000Y-33628000D02*
X117316000Y-33298000D01*
X110776000Y-33628000D02*
X117316000Y-33628000D01*
X110776000Y-33298000D02*
X110776000Y-33628000D01*
X117316000Y-30888000D02*
X117316000Y-31218000D01*
X110776000Y-30888000D02*
X117316000Y-30888000D01*
X110776000Y-31218000D02*
X110776000Y-30888000D01*
X87662000Y-23268000D02*
X87662000Y-23598000D01*
X94202000Y-23268000D02*
X87662000Y-23268000D01*
X94202000Y-23598000D02*
X94202000Y-23268000D01*
X87662000Y-26008000D02*
X87662000Y-25678000D01*
X94202000Y-26008000D02*
X87662000Y-26008000D01*
X94202000Y-25678000D02*
X94202000Y-26008000D01*
X124614000Y-43402000D02*
X124944000Y-43402000D01*
X124614000Y-36862000D02*
X124614000Y-43402000D01*
X124944000Y-36862000D02*
X124614000Y-36862000D01*
X127354000Y-43402000D02*
X127024000Y-43402000D01*
X127354000Y-36862000D02*
X127354000Y-43402000D01*
X127024000Y-36862000D02*
X127354000Y-36862000D01*
X124614000Y-98012000D02*
X124944000Y-98012000D01*
X124614000Y-91472000D02*
X124614000Y-98012000D01*
X124944000Y-91472000D02*
X124614000Y-91472000D01*
X127354000Y-98012000D02*
X127024000Y-98012000D01*
X127354000Y-91472000D02*
X127354000Y-98012000D01*
X127024000Y-91472000D02*
X127354000Y-91472000D01*
X132394000Y-65084000D02*
X131064000Y-65084000D01*
X132394000Y-63754000D02*
X132394000Y-65084000D01*
X132394000Y-62484000D02*
X129734000Y-62484000D01*
X129734000Y-62484000D02*
X129734000Y-59884000D01*
X132394000Y-62484000D02*
X132394000Y-59884000D01*
X132394000Y-59884000D02*
X129734000Y-59884000D01*
D10*
X58746000Y-99386000D02*
X67746000Y-99386000D01*
X58746000Y-110286000D02*
X67746000Y-110286000D01*
X58746000Y-99386000D02*
X58746000Y-110286000D01*
X67746000Y-99386000D02*
X67746000Y-110286000D01*
X65046000Y-105586000D02*
G75*
G03*
X65046000Y-105586000I-1800000J0D01*
G01*
X63246000Y-103786000D02*
X63246000Y-107386000D01*
X61446000Y-105586000D02*
X65046000Y-105586000D01*
X33854000Y-99386000D02*
X42854000Y-99386000D01*
X33854000Y-110286000D02*
X42854000Y-110286000D01*
X33854000Y-99386000D02*
X33854000Y-110286000D01*
X42854000Y-99386000D02*
X42854000Y-110286000D01*
X40154000Y-105586000D02*
G75*
G03*
X40154000Y-105586000I-1800000J0D01*
G01*
X38354000Y-103786000D02*
X38354000Y-107386000D01*
X36554000Y-105586000D02*
X40154000Y-105586000D01*
X46046000Y-81098000D02*
X55046000Y-81098000D01*
X46046000Y-91998000D02*
X55046000Y-91998000D01*
X46046000Y-81098000D02*
X46046000Y-91998000D01*
X55046000Y-81098000D02*
X55046000Y-91998000D01*
X52346000Y-87298000D02*
G75*
G03*
X52346000Y-87298000I-1800000J0D01*
G01*
X50546000Y-85498000D02*
X50546000Y-89098000D01*
X48746000Y-87298000D02*
X52346000Y-87298000D01*
X58746000Y-81176000D02*
X67746000Y-81176000D01*
X58746000Y-92076000D02*
X67746000Y-92076000D01*
X58746000Y-81176000D02*
X58746000Y-92076000D01*
X67746000Y-81176000D02*
X67746000Y-92076000D01*
X65046000Y-87376000D02*
G75*
G03*
X65046000Y-87376000I-1800000J0D01*
G01*
X63246000Y-85576000D02*
X63246000Y-89176000D01*
X61446000Y-87376000D02*
X65046000Y-87376000D01*
X46046000Y-99386000D02*
X55046000Y-99386000D01*
X46046000Y-110286000D02*
X55046000Y-110286000D01*
X46046000Y-99386000D02*
X46046000Y-110286000D01*
X55046000Y-99386000D02*
X55046000Y-110286000D01*
X52346000Y-105586000D02*
G75*
G03*
X52346000Y-105586000I-1800000J0D01*
G01*
X50546000Y-103786000D02*
X50546000Y-107386000D01*
X48746000Y-105586000D02*
X52346000Y-105586000D01*
X20900000Y-99386000D02*
X29900000Y-99386000D01*
X20900000Y-110286000D02*
X29900000Y-110286000D01*
X20900000Y-99386000D02*
X20900000Y-110286000D01*
X29900000Y-99386000D02*
X29900000Y-110286000D01*
X27200000Y-105586000D02*
G75*
G03*
X27200000Y-105586000I-1800000J0D01*
G01*
X25400000Y-103786000D02*
X25400000Y-107386000D01*
X23600000Y-105586000D02*
X27200000Y-105586000D01*
X21154000Y-81098000D02*
X30154000Y-81098000D01*
X21154000Y-91998000D02*
X30154000Y-91998000D01*
X21154000Y-81098000D02*
X21154000Y-91998000D01*
X30154000Y-81098000D02*
X30154000Y-91998000D01*
X27454000Y-87298000D02*
G75*
G03*
X27454000Y-87298000I-1800000J0D01*
G01*
X25654000Y-85498000D02*
X25654000Y-89098000D01*
X23854000Y-87298000D02*
X27454000Y-87298000D01*
X33600000Y-81098000D02*
X42600000Y-81098000D01*
X33600000Y-91998000D02*
X42600000Y-91998000D01*
X33600000Y-81098000D02*
X33600000Y-91998000D01*
X42600000Y-81098000D02*
X42600000Y-91998000D01*
X39900000Y-87298000D02*
G75*
G03*
X39900000Y-87298000I-1800000J0D01*
G01*
X38100000Y-85498000D02*
X38100000Y-89098000D01*
X36300000Y-87298000D02*
X39900000Y-87298000D01*
D14*
X90368000Y-96813000D02*
X90368000Y-96828000D01*
X90368000Y-94688000D02*
X90368000Y-94703000D01*
X85828000Y-96813000D02*
X85828000Y-96828000D01*
X85828000Y-94688000D02*
X85828000Y-94703000D01*
X85828000Y-96828000D02*
X90368000Y-96828000D01*
X85828000Y-94688000D02*
X90368000Y-94688000D01*
X130009000Y-55062000D02*
X129994000Y-55062000D01*
X132134000Y-55062000D02*
X132119000Y-55062000D01*
X130009000Y-50522000D02*
X129994000Y-50522000D01*
X132134000Y-50522000D02*
X132119000Y-50522000D01*
X129994000Y-50522000D02*
X129994000Y-55062000D01*
X132134000Y-50522000D02*
X132134000Y-55062000D01*
X114578000Y-29503000D02*
X114578000Y-29518000D01*
X114578000Y-27378000D02*
X114578000Y-27393000D01*
X110038000Y-29503000D02*
X110038000Y-29518000D01*
X110038000Y-27378000D02*
X110038000Y-27393000D01*
X110038000Y-29518000D02*
X114578000Y-29518000D01*
X110038000Y-27378000D02*
X114578000Y-27378000D01*
X94512000Y-29503000D02*
X94512000Y-29518000D01*
X94512000Y-27378000D02*
X94512000Y-27393000D01*
X89972000Y-29503000D02*
X89972000Y-29518000D01*
X89972000Y-27378000D02*
X89972000Y-27393000D01*
X89972000Y-29518000D02*
X94512000Y-29518000D01*
X89972000Y-27378000D02*
X94512000Y-27378000D01*
X115863000Y-60000000D02*
X115878000Y-60000000D01*
X113738000Y-60000000D02*
X113753000Y-60000000D01*
X115863000Y-64540000D02*
X115878000Y-64540000D01*
X113738000Y-64540000D02*
X113753000Y-64540000D01*
X115878000Y-64540000D02*
X115878000Y-60000000D01*
X113738000Y-64540000D02*
X113738000Y-60000000D01*
X125718000Y-62992000D02*
G75*
G03*
X125718000Y-62992000I-3270000J0D01*
G01*
X125972000Y-74168000D02*
G75*
G03*
X125972000Y-74168000I-3270000J0D01*
G01*
X68934000Y-33434000D02*
X81234000Y-33434000D01*
X81234000Y-38014000D02*
X81234000Y-41154000D01*
X81234000Y-45734000D02*
X68934000Y-45734000D01*
X68934000Y-36154000D02*
X68934000Y-33434000D01*
X79763050Y-39624000D02*
G75*
G03*
X79763050Y-39624000I-4579050J0D01*
G01*
X68934000Y-45734000D02*
X68934000Y-43014000D01*
X68934000Y-41154000D02*
X68934000Y-38014000D01*
X81234000Y-43014000D02*
X81234000Y-45734000D01*
X81234000Y-33434000D02*
X81234000Y-36154000D01*
X47344000Y-33180000D02*
X59644000Y-33180000D01*
X59644000Y-37760000D02*
X59644000Y-40900000D01*
X59644000Y-45480000D02*
X47344000Y-45480000D01*
X47344000Y-35900000D02*
X47344000Y-33180000D01*
X58173050Y-39370000D02*
G75*
G03*
X58173050Y-39370000I-4579050J0D01*
G01*
X47344000Y-45480000D02*
X47344000Y-42760000D01*
X47344000Y-40900000D02*
X47344000Y-37760000D01*
X59644000Y-42760000D02*
X59644000Y-45480000D01*
X59644000Y-33180000D02*
X59644000Y-35900000D01*
X27024000Y-33180000D02*
X39324000Y-33180000D01*
X39324000Y-37760000D02*
X39324000Y-40900000D01*
X39324000Y-45480000D02*
X27024000Y-45480000D01*
X27024000Y-35900000D02*
X27024000Y-33180000D01*
X37853050Y-39370000D02*
G75*
G03*
X37853050Y-39370000I-4579050J0D01*
G01*
X27024000Y-45480000D02*
X27024000Y-42760000D01*
X27024000Y-40900000D02*
X27024000Y-37760000D01*
X39324000Y-42760000D02*
X39324000Y-45480000D01*
X39324000Y-33180000D02*
X39324000Y-35900000D01*
X6846000Y-32826000D02*
X19146000Y-32826000D01*
X19146000Y-37406000D02*
X19146000Y-40546000D01*
X19146000Y-45126000D02*
X6846000Y-45126000D01*
X6846000Y-35546000D02*
X6846000Y-32826000D01*
X17675050Y-39016000D02*
G75*
G03*
X17675050Y-39016000I-4579050J0D01*
G01*
X6846000Y-45126000D02*
X6846000Y-42406000D01*
X6846000Y-40546000D02*
X6846000Y-37406000D01*
X19146000Y-42406000D02*
X19146000Y-45126000D01*
X19146000Y-32826000D02*
X19146000Y-35546000D01*
X71914000Y-47474000D02*
X71914000Y-47144000D01*
X71914000Y-47144000D02*
X78454000Y-47144000D01*
X78454000Y-47144000D02*
X78454000Y-47474000D01*
X71914000Y-49554000D02*
X71914000Y-49884000D01*
X71914000Y-49884000D02*
X78454000Y-49884000D01*
X78454000Y-49884000D02*
X78454000Y-49554000D01*
X50324000Y-47220000D02*
X50324000Y-46890000D01*
X50324000Y-46890000D02*
X56864000Y-46890000D01*
X56864000Y-46890000D02*
X56864000Y-47220000D01*
X50324000Y-49300000D02*
X50324000Y-49630000D01*
X50324000Y-49630000D02*
X56864000Y-49630000D01*
X56864000Y-49630000D02*
X56864000Y-49300000D01*
X30004000Y-47220000D02*
X30004000Y-46890000D01*
X30004000Y-46890000D02*
X36544000Y-46890000D01*
X36544000Y-46890000D02*
X36544000Y-47220000D01*
X30004000Y-49300000D02*
X30004000Y-49630000D01*
X30004000Y-49630000D02*
X36544000Y-49630000D01*
X36544000Y-49630000D02*
X36544000Y-49300000D01*
X15166000Y-47436000D02*
X15166000Y-47106000D01*
X15166000Y-47106000D02*
X21706000Y-47106000D01*
X21706000Y-47106000D02*
X21706000Y-47436000D01*
X15166000Y-49516000D02*
X15166000Y-49846000D01*
X15166000Y-49846000D02*
X21706000Y-49846000D01*
X21706000Y-49846000D02*
X21706000Y-49516000D01*
X61040000Y-21960000D02*
X61040000Y-21630000D01*
X61040000Y-21630000D02*
X67580000Y-21630000D01*
X67580000Y-21630000D02*
X67580000Y-21960000D01*
X61040000Y-24040000D02*
X61040000Y-24370000D01*
X61040000Y-24370000D02*
X67580000Y-24370000D01*
X67580000Y-24370000D02*
X67580000Y-24040000D01*
X48420000Y-21960000D02*
X48420000Y-21630000D01*
X48420000Y-21630000D02*
X54960000Y-21630000D01*
X54960000Y-21630000D02*
X54960000Y-21960000D01*
X48420000Y-24040000D02*
X48420000Y-24370000D01*
X48420000Y-24370000D02*
X54960000Y-24370000D01*
X54960000Y-24370000D02*
X54960000Y-24040000D01*
X34920000Y-21960000D02*
X34920000Y-21630000D01*
X34920000Y-21630000D02*
X41460000Y-21630000D01*
X41460000Y-21630000D02*
X41460000Y-21960000D01*
X34920000Y-24040000D02*
X34920000Y-24370000D01*
X34920000Y-24370000D02*
X41460000Y-24370000D01*
X41460000Y-24370000D02*
X41460000Y-24040000D01*
X22040000Y-21960000D02*
X22040000Y-21630000D01*
X22040000Y-21630000D02*
X28580000Y-21630000D01*
X28580000Y-21630000D02*
X28580000Y-21960000D01*
X22040000Y-24040000D02*
X22040000Y-24370000D01*
X22040000Y-24370000D02*
X28580000Y-24370000D01*
X28580000Y-24370000D02*
X28580000Y-24040000D01*
D10*
X142692000Y-32206000D02*
X140942000Y-32206000D01*
X140942000Y-32206000D02*
X140942000Y-33206000D01*
X140942000Y-33206000D02*
X142942000Y-33206000D01*
X142942000Y-33206000D02*
X142942000Y-32206000D01*
X142942000Y-32206000D02*
X142442000Y-32206000D01*
X142442000Y-30956000D02*
X141192000Y-30956000D01*
X141192000Y-30956000D02*
X141192000Y-31456000D01*
X141192000Y-31456000D02*
X142442000Y-31456000D01*
X142442000Y-31456000D02*
X142442000Y-30956000D01*
X141192000Y-24206000D02*
X141192000Y-23206000D01*
X141192000Y-23206000D02*
X142692000Y-23206000D01*
X142692000Y-23206000D02*
X142692000Y-24206000D01*
X142692000Y-24206000D02*
X141192000Y-24206000D01*
X140942000Y-25706000D02*
X140942000Y-27706000D01*
X140942000Y-27706000D02*
X143442000Y-27706000D01*
X143442000Y-27706000D02*
X143442000Y-25706000D01*
X143442000Y-25706000D02*
X140942000Y-25706000D01*
X130442000Y-34456000D02*
X130442000Y-35706000D01*
X130442000Y-35706000D02*
X142942000Y-35706000D01*
X142942000Y-35706000D02*
X142942000Y-34456000D01*
X142942000Y-34456000D02*
X130442000Y-34456000D01*
X133192000Y-31956000D02*
X130692000Y-31956000D01*
X130692000Y-31956000D02*
X130692000Y-33456000D01*
X130692000Y-33456000D02*
X133192000Y-33456000D01*
X133192000Y-33456000D02*
X133192000Y-32206000D01*
X133192000Y-32206000D02*
X133192000Y-31956000D01*
X142442000Y-38206000D02*
X142442000Y-36706000D01*
X142442000Y-36706000D02*
X143442000Y-36706000D01*
X143442000Y-36706000D02*
X143442000Y-38456000D01*
X143442000Y-38456000D02*
X142942000Y-38456000D01*
X140442000Y-21706000D02*
X132192000Y-21706000D01*
X132192000Y-21706000D02*
X132192000Y-20456000D01*
X132192000Y-20456000D02*
X140442000Y-20456000D01*
X140442000Y-20456000D02*
X140442000Y-21706000D01*
X133442000Y-26956000D02*
X133442000Y-27706000D01*
X133442000Y-27706000D02*
X130692000Y-27706000D01*
X130692000Y-27706000D02*
X130692000Y-26956000D01*
X142192000Y-44206000D02*
X142192000Y-45706000D01*
X142192000Y-45706000D02*
X141192000Y-45706000D01*
X141192000Y-45706000D02*
X141192000Y-44206000D01*
X134942000Y-38206000D02*
X134942000Y-36706000D01*
X134942000Y-36706000D02*
X135942000Y-36706000D01*
X135942000Y-36706000D02*
X135942000Y-38206000D01*
X131942000Y-44206000D02*
X131942000Y-45706000D01*
X131942000Y-45706000D02*
X130942000Y-45706000D01*
X130942000Y-45706000D02*
X130942000Y-44206000D01*
X130942000Y-38206000D02*
X130942000Y-36706000D01*
X130942000Y-36706000D02*
X131942000Y-36706000D01*
X131942000Y-36706000D02*
X131942000Y-38206000D01*
X132192000Y-30456000D02*
X131192000Y-30456000D01*
X131192000Y-30456000D02*
X131192000Y-31206000D01*
X131192000Y-31206000D02*
X132692000Y-31206000D01*
X132692000Y-31206000D02*
X132692000Y-30456000D01*
X132692000Y-30456000D02*
X132442000Y-30456000D01*
X132442000Y-30456000D02*
X132192000Y-30456000D01*
X133442000Y-25706000D02*
X130692000Y-25706000D01*
X130692000Y-25706000D02*
X130692000Y-26956000D01*
X133442000Y-26956000D02*
X133442000Y-25706000D01*
X132942000Y-23706000D02*
X130942000Y-23706000D01*
X130942000Y-23706000D02*
X130942000Y-24456000D01*
X130942000Y-24456000D02*
X133192000Y-24456000D01*
X133192000Y-24456000D02*
X133192000Y-23706000D01*
X133192000Y-23706000D02*
X132942000Y-23706000D01*
X140442000Y-24706000D02*
X140442000Y-29706000D01*
X140442000Y-29706000D02*
X133942000Y-29706000D01*
X133942000Y-29706000D02*
X133942000Y-24706000D01*
X133942000Y-24706000D02*
X140442000Y-24706000D01*
X129942000Y-38206000D02*
X142942000Y-38206000D01*
X142942000Y-38206000D02*
X142942000Y-44206000D01*
X142942000Y-44206000D02*
X129942000Y-44206000D01*
X129942000Y-14706000D02*
X129942000Y-46706000D01*
X146942000Y-46706000D02*
X129942000Y-46706000D01*
X146942000Y-46706000D02*
X146942000Y-14706000D01*
X146942000Y-14706000D02*
X129942000Y-14706000D01*
D14*
X77684000Y-15748000D02*
G75*
G03*
X77684000Y-15748000I-2500000J0D01*
G01*
X72624000Y-14203000D02*
X72624000Y-17293000D01*
X78174000Y-15747538D02*
G75*
G02*
X72624000Y-17292830I-2990000J-462D01*
G01*
X78174000Y-15748462D02*
G75*
G03*
X72624000Y-14203170I-2990000J462D01*
G01*
X56348000Y-16002000D02*
G75*
G03*
X56348000Y-16002000I-2500000J0D01*
G01*
X51288000Y-14457000D02*
X51288000Y-17547000D01*
X56838000Y-16001538D02*
G75*
G02*
X51288000Y-17546830I-2990000J-462D01*
G01*
X56838000Y-16002462D02*
G75*
G03*
X51288000Y-14457170I-2990000J462D01*
G01*
X36536000Y-15748000D02*
G75*
G03*
X36536000Y-15748000I-2500000J0D01*
G01*
X31476000Y-14203000D02*
X31476000Y-17293000D01*
X37026000Y-15747538D02*
G75*
G02*
X31476000Y-17292830I-2990000J-462D01*
G01*
X37026000Y-15748462D02*
G75*
G03*
X31476000Y-14203170I-2990000J462D01*
G01*
X15454000Y-16002000D02*
G75*
G03*
X15454000Y-16002000I-2500000J0D01*
G01*
X10394000Y-14457000D02*
X10394000Y-17547000D01*
X15944000Y-16001538D02*
G75*
G02*
X10394000Y-17546830I-2990000J-462D01*
G01*
X15944000Y-16002462D02*
G75*
G03*
X10394000Y-14457170I-2990000J462D01*
G01*
D10*
X141930000Y-97484000D02*
X140180000Y-97484000D01*
X140180000Y-97484000D02*
X140180000Y-98484000D01*
X140180000Y-98484000D02*
X142180000Y-98484000D01*
X142180000Y-98484000D02*
X142180000Y-97484000D01*
X142180000Y-97484000D02*
X141680000Y-97484000D01*
X141680000Y-96234000D02*
X140430000Y-96234000D01*
X140430000Y-96234000D02*
X140430000Y-96734000D01*
X140430000Y-96734000D02*
X141680000Y-96734000D01*
X141680000Y-96734000D02*
X141680000Y-96234000D01*
X140430000Y-89484000D02*
X140430000Y-88484000D01*
X140430000Y-88484000D02*
X141930000Y-88484000D01*
X141930000Y-88484000D02*
X141930000Y-89484000D01*
X141930000Y-89484000D02*
X140430000Y-89484000D01*
X140180000Y-90984000D02*
X140180000Y-92984000D01*
X140180000Y-92984000D02*
X142680000Y-92984000D01*
X142680000Y-92984000D02*
X142680000Y-90984000D01*
X142680000Y-90984000D02*
X140180000Y-90984000D01*
X129680000Y-99734000D02*
X129680000Y-100984000D01*
X129680000Y-100984000D02*
X142180000Y-100984000D01*
X142180000Y-100984000D02*
X142180000Y-99734000D01*
X142180000Y-99734000D02*
X129680000Y-99734000D01*
X132430000Y-97234000D02*
X129930000Y-97234000D01*
X129930000Y-97234000D02*
X129930000Y-98734000D01*
X129930000Y-98734000D02*
X132430000Y-98734000D01*
X132430000Y-98734000D02*
X132430000Y-97484000D01*
X132430000Y-97484000D02*
X132430000Y-97234000D01*
X141680000Y-103484000D02*
X141680000Y-101984000D01*
X141680000Y-101984000D02*
X142680000Y-101984000D01*
X142680000Y-101984000D02*
X142680000Y-103734000D01*
X142680000Y-103734000D02*
X142180000Y-103734000D01*
X139680000Y-86984000D02*
X131430000Y-86984000D01*
X131430000Y-86984000D02*
X131430000Y-85734000D01*
X131430000Y-85734000D02*
X139680000Y-85734000D01*
X139680000Y-85734000D02*
X139680000Y-86984000D01*
X132680000Y-92234000D02*
X132680000Y-92984000D01*
X132680000Y-92984000D02*
X129930000Y-92984000D01*
X129930000Y-92984000D02*
X129930000Y-92234000D01*
X141430000Y-109484000D02*
X141430000Y-110984000D01*
X141430000Y-110984000D02*
X140430000Y-110984000D01*
X140430000Y-110984000D02*
X140430000Y-109484000D01*
X134180000Y-103484000D02*
X134180000Y-101984000D01*
X134180000Y-101984000D02*
X135180000Y-101984000D01*
X135180000Y-101984000D02*
X135180000Y-103484000D01*
X131180000Y-109484000D02*
X131180000Y-110984000D01*
X131180000Y-110984000D02*
X130180000Y-110984000D01*
X130180000Y-110984000D02*
X130180000Y-109484000D01*
X130180000Y-103484000D02*
X130180000Y-101984000D01*
X130180000Y-101984000D02*
X131180000Y-101984000D01*
X131180000Y-101984000D02*
X131180000Y-103484000D01*
X131430000Y-95734000D02*
X130430000Y-95734000D01*
X130430000Y-95734000D02*
X130430000Y-96484000D01*
X130430000Y-96484000D02*
X131930000Y-96484000D01*
X131930000Y-96484000D02*
X131930000Y-95734000D01*
X131930000Y-95734000D02*
X131680000Y-95734000D01*
X131680000Y-95734000D02*
X131430000Y-95734000D01*
X132680000Y-90984000D02*
X129930000Y-90984000D01*
X129930000Y-90984000D02*
X129930000Y-92234000D01*
X132680000Y-92234000D02*
X132680000Y-90984000D01*
X132180000Y-88984000D02*
X130180000Y-88984000D01*
X130180000Y-88984000D02*
X130180000Y-89734000D01*
X130180000Y-89734000D02*
X132430000Y-89734000D01*
X132430000Y-89734000D02*
X132430000Y-88984000D01*
X132430000Y-88984000D02*
X132180000Y-88984000D01*
X139680000Y-89984000D02*
X139680000Y-94984000D01*
X139680000Y-94984000D02*
X133180000Y-94984000D01*
X133180000Y-94984000D02*
X133180000Y-89984000D01*
X133180000Y-89984000D02*
X139680000Y-89984000D01*
X129180000Y-103484000D02*
X142180000Y-103484000D01*
X142180000Y-103484000D02*
X142180000Y-109484000D01*
X142180000Y-109484000D02*
X129180000Y-109484000D01*
X129180000Y-79984000D02*
X129180000Y-111984000D01*
X146180000Y-111984000D02*
X129180000Y-111984000D01*
X146180000Y-111984000D02*
X146180000Y-79984000D01*
X146180000Y-79984000D02*
X129180000Y-79984000D01*
X119245333Y-49474380D02*
X118769142Y-49474380D01*
X118769142Y-48474380D01*
X119578666Y-49474380D02*
X119578666Y-48474380D01*
X119912000Y-49188666D01*
X120245333Y-48474380D01*
X120245333Y-49474380D01*
X121150095Y-48807714D02*
X121150095Y-49474380D01*
X120912000Y-48426761D02*
X120673904Y-49141047D01*
X121292952Y-49141047D01*
X121864380Y-48474380D02*
X121959619Y-48474380D01*
X122054857Y-48522000D01*
X122102476Y-48569619D01*
X122150095Y-48664857D01*
X122197714Y-48855333D01*
X122197714Y-49093428D01*
X122150095Y-49283904D01*
X122102476Y-49379142D01*
X122054857Y-49426761D01*
X121959619Y-49474380D01*
X121864380Y-49474380D01*
X121769142Y-49426761D01*
X121721523Y-49379142D01*
X121673904Y-49283904D01*
X121626285Y-49093428D01*
X121626285Y-48855333D01*
X121673904Y-48664857D01*
X121721523Y-48569619D01*
X121769142Y-48522000D01*
X121864380Y-48474380D01*
X123054857Y-48807714D02*
X123054857Y-49474380D01*
X122816761Y-48426761D02*
X122578666Y-49141047D01*
X123197714Y-49141047D01*
X123769142Y-48474380D02*
X123864380Y-48474380D01*
X123959619Y-48522000D01*
X124007238Y-48569619D01*
X124054857Y-48664857D01*
X124102476Y-48855333D01*
X124102476Y-49093428D01*
X124054857Y-49283904D01*
X124007238Y-49379142D01*
X123959619Y-49426761D01*
X123864380Y-49474380D01*
X123769142Y-49474380D01*
X123673904Y-49426761D01*
X123626285Y-49379142D01*
X123578666Y-49283904D01*
X123531047Y-49093428D01*
X123531047Y-48855333D01*
X123578666Y-48664857D01*
X123626285Y-48569619D01*
X123673904Y-48522000D01*
X123769142Y-48474380D01*
X137533333Y-71620380D02*
X137057142Y-71620380D01*
X137057142Y-70620380D01*
X137866666Y-71620380D02*
X137866666Y-70620380D01*
X138200000Y-71334666D01*
X138533333Y-70620380D01*
X138533333Y-71620380D01*
X139533333Y-71620380D02*
X138961904Y-71620380D01*
X139247619Y-71620380D02*
X139247619Y-70620380D01*
X139152380Y-70763238D01*
X139057142Y-70858476D01*
X138961904Y-70906095D01*
X140485714Y-71620380D02*
X139914285Y-71620380D01*
X140200000Y-71620380D02*
X140200000Y-70620380D01*
X140104761Y-70763238D01*
X140009523Y-70858476D01*
X139914285Y-70906095D01*
X141438095Y-71620380D02*
X140866666Y-71620380D01*
X141152380Y-71620380D02*
X141152380Y-70620380D01*
X141057142Y-70763238D01*
X140961904Y-70858476D01*
X140866666Y-70906095D01*
X141771428Y-70620380D02*
X142438095Y-70620380D01*
X142009523Y-71620380D01*
X95059904Y-86260380D02*
X95059904Y-85260380D01*
X95393238Y-85974666D01*
X95726571Y-85260380D01*
X95726571Y-86260380D01*
X96774190Y-86165142D02*
X96726571Y-86212761D01*
X96583714Y-86260380D01*
X96488476Y-86260380D01*
X96345619Y-86212761D01*
X96250380Y-86117523D01*
X96202761Y-86022285D01*
X96155142Y-85831809D01*
X96155142Y-85688952D01*
X96202761Y-85498476D01*
X96250380Y-85403238D01*
X96345619Y-85308000D01*
X96488476Y-85260380D01*
X96583714Y-85260380D01*
X96726571Y-85308000D01*
X96774190Y-85355619D01*
X97202761Y-86260380D02*
X97202761Y-85260380D01*
X97583714Y-85260380D01*
X97678952Y-85308000D01*
X97726571Y-85355619D01*
X97774190Y-85450857D01*
X97774190Y-85593714D01*
X97726571Y-85688952D01*
X97678952Y-85736571D01*
X97583714Y-85784190D01*
X97202761Y-85784190D01*
X98631333Y-85260380D02*
X98440857Y-85260380D01*
X98345619Y-85308000D01*
X98298000Y-85355619D01*
X98202761Y-85498476D01*
X98155142Y-85688952D01*
X98155142Y-86069904D01*
X98202761Y-86165142D01*
X98250380Y-86212761D01*
X98345619Y-86260380D01*
X98536095Y-86260380D01*
X98631333Y-86212761D01*
X98678952Y-86165142D01*
X98726571Y-86069904D01*
X98726571Y-85831809D01*
X98678952Y-85736571D01*
X98631333Y-85688952D01*
X98536095Y-85641333D01*
X98345619Y-85641333D01*
X98250380Y-85688952D01*
X98202761Y-85736571D01*
X98155142Y-85831809D01*
X99345619Y-85260380D02*
X99440857Y-85260380D01*
X99536095Y-85308000D01*
X99583714Y-85355619D01*
X99631333Y-85450857D01*
X99678952Y-85641333D01*
X99678952Y-85879428D01*
X99631333Y-86069904D01*
X99583714Y-86165142D01*
X99536095Y-86212761D01*
X99440857Y-86260380D01*
X99345619Y-86260380D01*
X99250380Y-86212761D01*
X99202761Y-86165142D01*
X99155142Y-86069904D01*
X99107523Y-85879428D01*
X99107523Y-85641333D01*
X99155142Y-85450857D01*
X99202761Y-85355619D01*
X99250380Y-85308000D01*
X99345619Y-85260380D01*
X100298000Y-85260380D02*
X100393238Y-85260380D01*
X100488476Y-85308000D01*
X100536095Y-85355619D01*
X100583714Y-85450857D01*
X100631333Y-85641333D01*
X100631333Y-85879428D01*
X100583714Y-86069904D01*
X100536095Y-86165142D01*
X100488476Y-86212761D01*
X100393238Y-86260380D01*
X100298000Y-86260380D01*
X100202761Y-86212761D01*
X100155142Y-86165142D01*
X100107523Y-86069904D01*
X100059904Y-85879428D01*
X100059904Y-85641333D01*
X100107523Y-85450857D01*
X100155142Y-85355619D01*
X100202761Y-85308000D01*
X100298000Y-85260380D01*
X101488476Y-85593714D02*
X101488476Y-86260380D01*
X101250380Y-85212761D02*
X101012285Y-85927047D01*
X101631333Y-85927047D01*
X100242952Y-17950380D02*
X100814380Y-17950380D01*
X100528666Y-18950380D02*
X100528666Y-17950380D01*
X101623904Y-18950380D02*
X101147714Y-18950380D01*
X101147714Y-17950380D01*
X102147714Y-17950380D02*
X102242952Y-17950380D01*
X102338190Y-17998000D01*
X102385809Y-18045619D01*
X102433428Y-18140857D01*
X102481047Y-18331333D01*
X102481047Y-18569428D01*
X102433428Y-18759904D01*
X102385809Y-18855142D01*
X102338190Y-18902761D01*
X102242952Y-18950380D01*
X102147714Y-18950380D01*
X102052476Y-18902761D01*
X102004857Y-18855142D01*
X101957238Y-18759904D01*
X101909619Y-18569428D01*
X101909619Y-18331333D01*
X101957238Y-18140857D01*
X102004857Y-18045619D01*
X102052476Y-17998000D01*
X102147714Y-17950380D01*
X102814380Y-17950380D02*
X103481047Y-17950380D01*
X103052476Y-18950380D01*
X104290571Y-18283714D02*
X104290571Y-18950380D01*
X104052476Y-17902761D02*
X103814380Y-18617047D01*
X104433428Y-18617047D01*
X97345904Y-50490380D02*
X97345904Y-49490380D01*
X97679238Y-50204666D01*
X98012571Y-49490380D01*
X98012571Y-50490380D01*
X99060190Y-50395142D02*
X99012571Y-50442761D01*
X98869714Y-50490380D01*
X98774476Y-50490380D01*
X98631619Y-50442761D01*
X98536380Y-50347523D01*
X98488761Y-50252285D01*
X98441142Y-50061809D01*
X98441142Y-49918952D01*
X98488761Y-49728476D01*
X98536380Y-49633238D01*
X98631619Y-49538000D01*
X98774476Y-49490380D01*
X98869714Y-49490380D01*
X99012571Y-49538000D01*
X99060190Y-49585619D01*
X99488761Y-50490380D02*
X99488761Y-49490380D01*
X99869714Y-49490380D01*
X99964952Y-49538000D01*
X100012571Y-49585619D01*
X100060190Y-49680857D01*
X100060190Y-49823714D01*
X100012571Y-49918952D01*
X99964952Y-49966571D01*
X99869714Y-50014190D01*
X99488761Y-50014190D01*
X100393523Y-49490380D02*
X101012571Y-49490380D01*
X100679238Y-49871333D01*
X100822095Y-49871333D01*
X100917333Y-49918952D01*
X100964952Y-49966571D01*
X101012571Y-50061809D01*
X101012571Y-50299904D01*
X100964952Y-50395142D01*
X100917333Y-50442761D01*
X100822095Y-50490380D01*
X100536380Y-50490380D01*
X100441142Y-50442761D01*
X100393523Y-50395142D01*
X101393523Y-49585619D02*
X101441142Y-49538000D01*
X101536380Y-49490380D01*
X101774476Y-49490380D01*
X101869714Y-49538000D01*
X101917333Y-49585619D01*
X101964952Y-49680857D01*
X101964952Y-49776095D01*
X101917333Y-49918952D01*
X101345904Y-50490380D01*
X101964952Y-50490380D01*
X102584000Y-49490380D02*
X102679238Y-49490380D01*
X102774476Y-49538000D01*
X102822095Y-49585619D01*
X102869714Y-49680857D01*
X102917333Y-49871333D01*
X102917333Y-50109428D01*
X102869714Y-50299904D01*
X102822095Y-50395142D01*
X102774476Y-50442761D01*
X102679238Y-50490380D01*
X102584000Y-50490380D01*
X102488761Y-50442761D01*
X102441142Y-50395142D01*
X102393523Y-50299904D01*
X102345904Y-50109428D01*
X102345904Y-49871333D01*
X102393523Y-49680857D01*
X102441142Y-49585619D01*
X102488761Y-49538000D01*
X102584000Y-49490380D01*
X103488761Y-49918952D02*
X103393523Y-49871333D01*
X103345904Y-49823714D01*
X103298285Y-49728476D01*
X103298285Y-49680857D01*
X103345904Y-49585619D01*
X103393523Y-49538000D01*
X103488761Y-49490380D01*
X103679238Y-49490380D01*
X103774476Y-49538000D01*
X103822095Y-49585619D01*
X103869714Y-49680857D01*
X103869714Y-49728476D01*
X103822095Y-49823714D01*
X103774476Y-49871333D01*
X103679238Y-49918952D01*
X103488761Y-49918952D01*
X103393523Y-49966571D01*
X103345904Y-50014190D01*
X103298285Y-50109428D01*
X103298285Y-50299904D01*
X103345904Y-50395142D01*
X103393523Y-50442761D01*
X103488761Y-50490380D01*
X103679238Y-50490380D01*
X103774476Y-50442761D01*
X103822095Y-50395142D01*
X103869714Y-50299904D01*
X103869714Y-50109428D01*
X103822095Y-50014190D01*
X103774476Y-49966571D01*
X103679238Y-49918952D01*
X75350761Y-57856380D02*
X75017428Y-57380190D01*
X74779333Y-57856380D02*
X74779333Y-56856380D01*
X75160285Y-56856380D01*
X75255523Y-56904000D01*
X75303142Y-56951619D01*
X75350761Y-57046857D01*
X75350761Y-57189714D01*
X75303142Y-57284952D01*
X75255523Y-57332571D01*
X75160285Y-57380190D01*
X74779333Y-57380190D01*
X75636476Y-56856380D02*
X75969809Y-57856380D01*
X76303142Y-56856380D01*
X77065047Y-57189714D02*
X77065047Y-57856380D01*
X76826952Y-56808761D02*
X76588857Y-57523047D01*
X77207904Y-57523047D01*
X54014761Y-58110380D02*
X53681428Y-57634190D01*
X53443333Y-58110380D02*
X53443333Y-57110380D01*
X53824285Y-57110380D01*
X53919523Y-57158000D01*
X53967142Y-57205619D01*
X54014761Y-57300857D01*
X54014761Y-57443714D01*
X53967142Y-57538952D01*
X53919523Y-57586571D01*
X53824285Y-57634190D01*
X53443333Y-57634190D01*
X54300476Y-57110380D02*
X54633809Y-58110380D01*
X54967142Y-57110380D01*
X55205238Y-57110380D02*
X55824285Y-57110380D01*
X55490952Y-57491333D01*
X55633809Y-57491333D01*
X55729047Y-57538952D01*
X55776666Y-57586571D01*
X55824285Y-57681809D01*
X55824285Y-57919904D01*
X55776666Y-58015142D01*
X55729047Y-58062761D01*
X55633809Y-58110380D01*
X55348095Y-58110380D01*
X55252857Y-58062761D01*
X55205238Y-58015142D01*
X33948761Y-58110380D02*
X33615428Y-57634190D01*
X33377333Y-58110380D02*
X33377333Y-57110380D01*
X33758285Y-57110380D01*
X33853523Y-57158000D01*
X33901142Y-57205619D01*
X33948761Y-57300857D01*
X33948761Y-57443714D01*
X33901142Y-57538952D01*
X33853523Y-57586571D01*
X33758285Y-57634190D01*
X33377333Y-57634190D01*
X34234476Y-57110380D02*
X34567809Y-58110380D01*
X34901142Y-57110380D01*
X35186857Y-57205619D02*
X35234476Y-57158000D01*
X35329714Y-57110380D01*
X35567809Y-57110380D01*
X35663047Y-57158000D01*
X35710666Y-57205619D01*
X35758285Y-57300857D01*
X35758285Y-57396095D01*
X35710666Y-57538952D01*
X35139238Y-58110380D01*
X35758285Y-58110380D01*
X12358761Y-58110380D02*
X12025428Y-57634190D01*
X11787333Y-58110380D02*
X11787333Y-57110380D01*
X12168285Y-57110380D01*
X12263523Y-57158000D01*
X12311142Y-57205619D01*
X12358761Y-57300857D01*
X12358761Y-57443714D01*
X12311142Y-57538952D01*
X12263523Y-57586571D01*
X12168285Y-57634190D01*
X11787333Y-57634190D01*
X12644476Y-57110380D02*
X12977809Y-58110380D01*
X13311142Y-57110380D01*
X14168285Y-58110380D02*
X13596857Y-58110380D01*
X13882571Y-58110380D02*
X13882571Y-57110380D01*
X13787333Y-57253238D01*
X13692095Y-57348476D01*
X13596857Y-57396095D01*
X138295142Y-48628380D02*
X137961809Y-48152190D01*
X137723714Y-48628380D02*
X137723714Y-47628380D01*
X138104666Y-47628380D01*
X138199904Y-47676000D01*
X138247523Y-47723619D01*
X138295142Y-47818857D01*
X138295142Y-47961714D01*
X138247523Y-48056952D01*
X138199904Y-48104571D01*
X138104666Y-48152190D01*
X137723714Y-48152190D01*
X138628476Y-47628380D02*
X139247523Y-47628380D01*
X138914190Y-48009333D01*
X139057047Y-48009333D01*
X139152285Y-48056952D01*
X139199904Y-48104571D01*
X139247523Y-48199809D01*
X139247523Y-48437904D01*
X139199904Y-48533142D01*
X139152285Y-48580761D01*
X139057047Y-48628380D01*
X138771333Y-48628380D01*
X138676095Y-48580761D01*
X138628476Y-48533142D01*
X140104666Y-47961714D02*
X140104666Y-48628380D01*
X139866571Y-47580761D02*
X139628476Y-48295047D01*
X140247523Y-48295047D01*
X130167142Y-68270380D02*
X129833809Y-67794190D01*
X129595714Y-68270380D02*
X129595714Y-67270380D01*
X129976666Y-67270380D01*
X130071904Y-67318000D01*
X130119523Y-67365619D01*
X130167142Y-67460857D01*
X130167142Y-67603714D01*
X130119523Y-67698952D01*
X130071904Y-67746571D01*
X129976666Y-67794190D01*
X129595714Y-67794190D01*
X130500476Y-67270380D02*
X131119523Y-67270380D01*
X130786190Y-67651333D01*
X130929047Y-67651333D01*
X131024285Y-67698952D01*
X131071904Y-67746571D01*
X131119523Y-67841809D01*
X131119523Y-68079904D01*
X131071904Y-68175142D01*
X131024285Y-68222761D01*
X130929047Y-68270380D01*
X130643333Y-68270380D01*
X130548095Y-68222761D01*
X130500476Y-68175142D01*
X131452857Y-67270380D02*
X132071904Y-67270380D01*
X131738571Y-67651333D01*
X131881428Y-67651333D01*
X131976666Y-67698952D01*
X132024285Y-67746571D01*
X132071904Y-67841809D01*
X132071904Y-68079904D01*
X132024285Y-68175142D01*
X131976666Y-68222761D01*
X131881428Y-68270380D01*
X131595714Y-68270380D01*
X131500476Y-68222761D01*
X131452857Y-68175142D01*
X120007142Y-21026380D02*
X119673809Y-20550190D01*
X119435714Y-21026380D02*
X119435714Y-20026380D01*
X119816666Y-20026380D01*
X119911904Y-20074000D01*
X119959523Y-20121619D01*
X120007142Y-20216857D01*
X120007142Y-20359714D01*
X119959523Y-20454952D01*
X119911904Y-20502571D01*
X119816666Y-20550190D01*
X119435714Y-20550190D01*
X120340476Y-20026380D02*
X120959523Y-20026380D01*
X120626190Y-20407333D01*
X120769047Y-20407333D01*
X120864285Y-20454952D01*
X120911904Y-20502571D01*
X120959523Y-20597809D01*
X120959523Y-20835904D01*
X120911904Y-20931142D01*
X120864285Y-20978761D01*
X120769047Y-21026380D01*
X120483333Y-21026380D01*
X120388095Y-20978761D01*
X120340476Y-20931142D01*
X121340476Y-20121619D02*
X121388095Y-20074000D01*
X121483333Y-20026380D01*
X121721428Y-20026380D01*
X121816666Y-20074000D01*
X121864285Y-20121619D01*
X121911904Y-20216857D01*
X121911904Y-20312095D01*
X121864285Y-20454952D01*
X121292857Y-21026380D01*
X121911904Y-21026380D01*
X85209142Y-39568380D02*
X84875809Y-39092190D01*
X84637714Y-39568380D02*
X84637714Y-38568380D01*
X85018666Y-38568380D01*
X85113904Y-38616000D01*
X85161523Y-38663619D01*
X85209142Y-38758857D01*
X85209142Y-38901714D01*
X85161523Y-38996952D01*
X85113904Y-39044571D01*
X85018666Y-39092190D01*
X84637714Y-39092190D01*
X85542476Y-38568380D02*
X86161523Y-38568380D01*
X85828190Y-38949333D01*
X85971047Y-38949333D01*
X86066285Y-38996952D01*
X86113904Y-39044571D01*
X86161523Y-39139809D01*
X86161523Y-39377904D01*
X86113904Y-39473142D01*
X86066285Y-39520761D01*
X85971047Y-39568380D01*
X85685333Y-39568380D01*
X85590095Y-39520761D01*
X85542476Y-39473142D01*
X87113904Y-39568380D02*
X86542476Y-39568380D01*
X86828190Y-39568380D02*
X86828190Y-38568380D01*
X86732952Y-38711238D01*
X86637714Y-38806476D01*
X86542476Y-38854095D01*
X117721142Y-104592380D02*
X117387809Y-104116190D01*
X117149714Y-104592380D02*
X117149714Y-103592380D01*
X117530666Y-103592380D01*
X117625904Y-103640000D01*
X117673523Y-103687619D01*
X117721142Y-103782857D01*
X117721142Y-103925714D01*
X117673523Y-104020952D01*
X117625904Y-104068571D01*
X117530666Y-104116190D01*
X117149714Y-104116190D01*
X118054476Y-103592380D02*
X118673523Y-103592380D01*
X118340190Y-103973333D01*
X118483047Y-103973333D01*
X118578285Y-104020952D01*
X118625904Y-104068571D01*
X118673523Y-104163809D01*
X118673523Y-104401904D01*
X118625904Y-104497142D01*
X118578285Y-104544761D01*
X118483047Y-104592380D01*
X118197333Y-104592380D01*
X118102095Y-104544761D01*
X118054476Y-104497142D01*
X119292571Y-103592380D02*
X119387809Y-103592380D01*
X119483047Y-103640000D01*
X119530666Y-103687619D01*
X119578285Y-103782857D01*
X119625904Y-103973333D01*
X119625904Y-104211428D01*
X119578285Y-104401904D01*
X119530666Y-104497142D01*
X119483047Y-104544761D01*
X119387809Y-104592380D01*
X119292571Y-104592380D01*
X119197333Y-104544761D01*
X119149714Y-104497142D01*
X119102095Y-104401904D01*
X119054476Y-104211428D01*
X119054476Y-103973333D01*
X119102095Y-103782857D01*
X119149714Y-103687619D01*
X119197333Y-103640000D01*
X119292571Y-103592380D01*
X117721142Y-88590380D02*
X117387809Y-88114190D01*
X117149714Y-88590380D02*
X117149714Y-87590380D01*
X117530666Y-87590380D01*
X117625904Y-87638000D01*
X117673523Y-87685619D01*
X117721142Y-87780857D01*
X117721142Y-87923714D01*
X117673523Y-88018952D01*
X117625904Y-88066571D01*
X117530666Y-88114190D01*
X117149714Y-88114190D01*
X118102095Y-87685619D02*
X118149714Y-87638000D01*
X118244952Y-87590380D01*
X118483047Y-87590380D01*
X118578285Y-87638000D01*
X118625904Y-87685619D01*
X118673523Y-87780857D01*
X118673523Y-87876095D01*
X118625904Y-88018952D01*
X118054476Y-88590380D01*
X118673523Y-88590380D01*
X119149714Y-88590380D02*
X119340190Y-88590380D01*
X119435428Y-88542761D01*
X119483047Y-88495142D01*
X119578285Y-88352285D01*
X119625904Y-88161809D01*
X119625904Y-87780857D01*
X119578285Y-87685619D01*
X119530666Y-87638000D01*
X119435428Y-87590380D01*
X119244952Y-87590380D01*
X119149714Y-87638000D01*
X119102095Y-87685619D01*
X119054476Y-87780857D01*
X119054476Y-88018952D01*
X119102095Y-88114190D01*
X119149714Y-88161809D01*
X119244952Y-88209428D01*
X119435428Y-88209428D01*
X119530666Y-88161809D01*
X119578285Y-88114190D01*
X119625904Y-88018952D01*
X120007142Y-25090380D02*
X119673809Y-24614190D01*
X119435714Y-25090380D02*
X119435714Y-24090380D01*
X119816666Y-24090380D01*
X119911904Y-24138000D01*
X119959523Y-24185619D01*
X120007142Y-24280857D01*
X120007142Y-24423714D01*
X119959523Y-24518952D01*
X119911904Y-24566571D01*
X119816666Y-24614190D01*
X119435714Y-24614190D01*
X120388095Y-24185619D02*
X120435714Y-24138000D01*
X120530952Y-24090380D01*
X120769047Y-24090380D01*
X120864285Y-24138000D01*
X120911904Y-24185619D01*
X120959523Y-24280857D01*
X120959523Y-24376095D01*
X120911904Y-24518952D01*
X120340476Y-25090380D01*
X120959523Y-25090380D01*
X121530952Y-24518952D02*
X121435714Y-24471333D01*
X121388095Y-24423714D01*
X121340476Y-24328476D01*
X121340476Y-24280857D01*
X121388095Y-24185619D01*
X121435714Y-24138000D01*
X121530952Y-24090380D01*
X121721428Y-24090380D01*
X121816666Y-24138000D01*
X121864285Y-24185619D01*
X121911904Y-24280857D01*
X121911904Y-24328476D01*
X121864285Y-24423714D01*
X121816666Y-24471333D01*
X121721428Y-24518952D01*
X121530952Y-24518952D01*
X121435714Y-24566571D01*
X121388095Y-24614190D01*
X121340476Y-24709428D01*
X121340476Y-24899904D01*
X121388095Y-24995142D01*
X121435714Y-25042761D01*
X121530952Y-25090380D01*
X121721428Y-25090380D01*
X121816666Y-25042761D01*
X121864285Y-24995142D01*
X121911904Y-24899904D01*
X121911904Y-24709428D01*
X121864285Y-24614190D01*
X121816666Y-24566571D01*
X121721428Y-24518952D01*
X95623142Y-44140380D02*
X95289809Y-43664190D01*
X95051714Y-44140380D02*
X95051714Y-43140380D01*
X95432666Y-43140380D01*
X95527904Y-43188000D01*
X95575523Y-43235619D01*
X95623142Y-43330857D01*
X95623142Y-43473714D01*
X95575523Y-43568952D01*
X95527904Y-43616571D01*
X95432666Y-43664190D01*
X95051714Y-43664190D01*
X96004095Y-43235619D02*
X96051714Y-43188000D01*
X96146952Y-43140380D01*
X96385047Y-43140380D01*
X96480285Y-43188000D01*
X96527904Y-43235619D01*
X96575523Y-43330857D01*
X96575523Y-43426095D01*
X96527904Y-43568952D01*
X95956476Y-44140380D01*
X96575523Y-44140380D01*
X96908857Y-43140380D02*
X97575523Y-43140380D01*
X97146952Y-44140380D01*
X110609142Y-109418380D02*
X110275809Y-108942190D01*
X110037714Y-109418380D02*
X110037714Y-108418380D01*
X110418666Y-108418380D01*
X110513904Y-108466000D01*
X110561523Y-108513619D01*
X110609142Y-108608857D01*
X110609142Y-108751714D01*
X110561523Y-108846952D01*
X110513904Y-108894571D01*
X110418666Y-108942190D01*
X110037714Y-108942190D01*
X110990095Y-108513619D02*
X111037714Y-108466000D01*
X111132952Y-108418380D01*
X111371047Y-108418380D01*
X111466285Y-108466000D01*
X111513904Y-108513619D01*
X111561523Y-108608857D01*
X111561523Y-108704095D01*
X111513904Y-108846952D01*
X110942476Y-109418380D01*
X111561523Y-109418380D01*
X112418666Y-108418380D02*
X112228190Y-108418380D01*
X112132952Y-108466000D01*
X112085333Y-108513619D01*
X111990095Y-108656476D01*
X111942476Y-108846952D01*
X111942476Y-109227904D01*
X111990095Y-109323142D01*
X112037714Y-109370761D01*
X112132952Y-109418380D01*
X112323428Y-109418380D01*
X112418666Y-109370761D01*
X112466285Y-109323142D01*
X112513904Y-109227904D01*
X112513904Y-108989809D01*
X112466285Y-108894571D01*
X112418666Y-108846952D01*
X112323428Y-108799333D01*
X112132952Y-108799333D01*
X112037714Y-108846952D01*
X111990095Y-108894571D01*
X111942476Y-108989809D01*
X110355142Y-83002380D02*
X110021809Y-82526190D01*
X109783714Y-83002380D02*
X109783714Y-82002380D01*
X110164666Y-82002380D01*
X110259904Y-82050000D01*
X110307523Y-82097619D01*
X110355142Y-82192857D01*
X110355142Y-82335714D01*
X110307523Y-82430952D01*
X110259904Y-82478571D01*
X110164666Y-82526190D01*
X109783714Y-82526190D01*
X110736095Y-82097619D02*
X110783714Y-82050000D01*
X110878952Y-82002380D01*
X111117047Y-82002380D01*
X111212285Y-82050000D01*
X111259904Y-82097619D01*
X111307523Y-82192857D01*
X111307523Y-82288095D01*
X111259904Y-82430952D01*
X110688476Y-83002380D01*
X111307523Y-83002380D01*
X112212285Y-82002380D02*
X111736095Y-82002380D01*
X111688476Y-82478571D01*
X111736095Y-82430952D01*
X111831333Y-82383333D01*
X112069428Y-82383333D01*
X112164666Y-82430952D01*
X112212285Y-82478571D01*
X112259904Y-82573809D01*
X112259904Y-82811904D01*
X112212285Y-82907142D01*
X112164666Y-82954761D01*
X112069428Y-83002380D01*
X111831333Y-83002380D01*
X111736095Y-82954761D01*
X111688476Y-82907142D01*
X115181142Y-15946380D02*
X114847809Y-15470190D01*
X114609714Y-15946380D02*
X114609714Y-14946380D01*
X114990666Y-14946380D01*
X115085904Y-14994000D01*
X115133523Y-15041619D01*
X115181142Y-15136857D01*
X115181142Y-15279714D01*
X115133523Y-15374952D01*
X115085904Y-15422571D01*
X114990666Y-15470190D01*
X114609714Y-15470190D01*
X115562095Y-15041619D02*
X115609714Y-14994000D01*
X115704952Y-14946380D01*
X115943047Y-14946380D01*
X116038285Y-14994000D01*
X116085904Y-15041619D01*
X116133523Y-15136857D01*
X116133523Y-15232095D01*
X116085904Y-15374952D01*
X115514476Y-15946380D01*
X116133523Y-15946380D01*
X116990666Y-15279714D02*
X116990666Y-15946380D01*
X116752571Y-14898761D02*
X116514476Y-15613047D01*
X117133523Y-15613047D01*
X83431142Y-32710380D02*
X83097809Y-32234190D01*
X82859714Y-32710380D02*
X82859714Y-31710380D01*
X83240666Y-31710380D01*
X83335904Y-31758000D01*
X83383523Y-31805619D01*
X83431142Y-31900857D01*
X83431142Y-32043714D01*
X83383523Y-32138952D01*
X83335904Y-32186571D01*
X83240666Y-32234190D01*
X82859714Y-32234190D01*
X83812095Y-31805619D02*
X83859714Y-31758000D01*
X83954952Y-31710380D01*
X84193047Y-31710380D01*
X84288285Y-31758000D01*
X84335904Y-31805619D01*
X84383523Y-31900857D01*
X84383523Y-31996095D01*
X84335904Y-32138952D01*
X83764476Y-32710380D01*
X84383523Y-32710380D01*
X84716857Y-31710380D02*
X85335904Y-31710380D01*
X85002571Y-32091333D01*
X85145428Y-32091333D01*
X85240666Y-32138952D01*
X85288285Y-32186571D01*
X85335904Y-32281809D01*
X85335904Y-32519904D01*
X85288285Y-32615142D01*
X85240666Y-32662761D01*
X85145428Y-32710380D01*
X84859714Y-32710380D01*
X84764476Y-32662761D01*
X84716857Y-32615142D01*
X117721142Y-98750380D02*
X117387809Y-98274190D01*
X117149714Y-98750380D02*
X117149714Y-97750380D01*
X117530666Y-97750380D01*
X117625904Y-97798000D01*
X117673523Y-97845619D01*
X117721142Y-97940857D01*
X117721142Y-98083714D01*
X117673523Y-98178952D01*
X117625904Y-98226571D01*
X117530666Y-98274190D01*
X117149714Y-98274190D01*
X118102095Y-97845619D02*
X118149714Y-97798000D01*
X118244952Y-97750380D01*
X118483047Y-97750380D01*
X118578285Y-97798000D01*
X118625904Y-97845619D01*
X118673523Y-97940857D01*
X118673523Y-98036095D01*
X118625904Y-98178952D01*
X118054476Y-98750380D01*
X118673523Y-98750380D01*
X119054476Y-97845619D02*
X119102095Y-97798000D01*
X119197333Y-97750380D01*
X119435428Y-97750380D01*
X119530666Y-97798000D01*
X119578285Y-97845619D01*
X119625904Y-97940857D01*
X119625904Y-98036095D01*
X119578285Y-98178952D01*
X119006857Y-98750380D01*
X119625904Y-98750380D01*
X117721142Y-93416380D02*
X117387809Y-92940190D01*
X117149714Y-93416380D02*
X117149714Y-92416380D01*
X117530666Y-92416380D01*
X117625904Y-92464000D01*
X117673523Y-92511619D01*
X117721142Y-92606857D01*
X117721142Y-92749714D01*
X117673523Y-92844952D01*
X117625904Y-92892571D01*
X117530666Y-92940190D01*
X117149714Y-92940190D01*
X118102095Y-92511619D02*
X118149714Y-92464000D01*
X118244952Y-92416380D01*
X118483047Y-92416380D01*
X118578285Y-92464000D01*
X118625904Y-92511619D01*
X118673523Y-92606857D01*
X118673523Y-92702095D01*
X118625904Y-92844952D01*
X118054476Y-93416380D01*
X118673523Y-93416380D01*
X119625904Y-93416380D02*
X119054476Y-93416380D01*
X119340190Y-93416380D02*
X119340190Y-92416380D01*
X119244952Y-92559238D01*
X119149714Y-92654476D01*
X119054476Y-92702095D01*
X124066380Y-28836857D02*
X123590190Y-29170190D01*
X124066380Y-29408285D02*
X123066380Y-29408285D01*
X123066380Y-29027333D01*
X123114000Y-28932095D01*
X123161619Y-28884476D01*
X123256857Y-28836857D01*
X123399714Y-28836857D01*
X123494952Y-28884476D01*
X123542571Y-28932095D01*
X123590190Y-29027333D01*
X123590190Y-29408285D01*
X123161619Y-28455904D02*
X123114000Y-28408285D01*
X123066380Y-28313047D01*
X123066380Y-28074952D01*
X123114000Y-27979714D01*
X123161619Y-27932095D01*
X123256857Y-27884476D01*
X123352095Y-27884476D01*
X123494952Y-27932095D01*
X124066380Y-28503523D01*
X124066380Y-27884476D01*
X123066380Y-27265428D02*
X123066380Y-27170190D01*
X123114000Y-27074952D01*
X123161619Y-27027333D01*
X123256857Y-26979714D01*
X123447333Y-26932095D01*
X123685428Y-26932095D01*
X123875904Y-26979714D01*
X123971142Y-27027333D01*
X124018761Y-27074952D01*
X124066380Y-27170190D01*
X124066380Y-27265428D01*
X124018761Y-27360666D01*
X123971142Y-27408285D01*
X123875904Y-27455904D01*
X123685428Y-27503523D01*
X123447333Y-27503523D01*
X123256857Y-27455904D01*
X123161619Y-27408285D01*
X123114000Y-27360666D01*
X123066380Y-27265428D01*
X124066380Y-106560857D02*
X123590190Y-106894190D01*
X124066380Y-107132285D02*
X123066380Y-107132285D01*
X123066380Y-106751333D01*
X123114000Y-106656095D01*
X123161619Y-106608476D01*
X123256857Y-106560857D01*
X123399714Y-106560857D01*
X123494952Y-106608476D01*
X123542571Y-106656095D01*
X123590190Y-106751333D01*
X123590190Y-107132285D01*
X124066380Y-105608476D02*
X124066380Y-106179904D01*
X124066380Y-105894190D02*
X123066380Y-105894190D01*
X123209238Y-105989428D01*
X123304476Y-106084666D01*
X123352095Y-106179904D01*
X124066380Y-105132285D02*
X124066380Y-104941809D01*
X124018761Y-104846571D01*
X123971142Y-104798952D01*
X123828285Y-104703714D01*
X123637809Y-104656095D01*
X123256857Y-104656095D01*
X123161619Y-104703714D01*
X123114000Y-104751333D01*
X123066380Y-104846571D01*
X123066380Y-105037047D01*
X123114000Y-105132285D01*
X123161619Y-105179904D01*
X123256857Y-105227523D01*
X123494952Y-105227523D01*
X123590190Y-105179904D01*
X123637809Y-105132285D01*
X123685428Y-105037047D01*
X123685428Y-104846571D01*
X123637809Y-104751333D01*
X123590190Y-104703714D01*
X123494952Y-104656095D01*
X120261142Y-36774380D02*
X119927809Y-36298190D01*
X119689714Y-36774380D02*
X119689714Y-35774380D01*
X120070666Y-35774380D01*
X120165904Y-35822000D01*
X120213523Y-35869619D01*
X120261142Y-35964857D01*
X120261142Y-36107714D01*
X120213523Y-36202952D01*
X120165904Y-36250571D01*
X120070666Y-36298190D01*
X119689714Y-36298190D01*
X121213523Y-36774380D02*
X120642095Y-36774380D01*
X120927809Y-36774380D02*
X120927809Y-35774380D01*
X120832571Y-35917238D01*
X120737333Y-36012476D01*
X120642095Y-36060095D01*
X121784952Y-36202952D02*
X121689714Y-36155333D01*
X121642095Y-36107714D01*
X121594476Y-36012476D01*
X121594476Y-35964857D01*
X121642095Y-35869619D01*
X121689714Y-35822000D01*
X121784952Y-35774380D01*
X121975428Y-35774380D01*
X122070666Y-35822000D01*
X122118285Y-35869619D01*
X122165904Y-35964857D01*
X122165904Y-36012476D01*
X122118285Y-36107714D01*
X122070666Y-36155333D01*
X121975428Y-36202952D01*
X121784952Y-36202952D01*
X121689714Y-36250571D01*
X121642095Y-36298190D01*
X121594476Y-36393428D01*
X121594476Y-36583904D01*
X121642095Y-36679142D01*
X121689714Y-36726761D01*
X121784952Y-36774380D01*
X121975428Y-36774380D01*
X122070666Y-36726761D01*
X122118285Y-36679142D01*
X122165904Y-36583904D01*
X122165904Y-36393428D01*
X122118285Y-36298190D01*
X122070666Y-36250571D01*
X121975428Y-36202952D01*
X83177142Y-21026380D02*
X82843809Y-20550190D01*
X82605714Y-21026380D02*
X82605714Y-20026380D01*
X82986666Y-20026380D01*
X83081904Y-20074000D01*
X83129523Y-20121619D01*
X83177142Y-20216857D01*
X83177142Y-20359714D01*
X83129523Y-20454952D01*
X83081904Y-20502571D01*
X82986666Y-20550190D01*
X82605714Y-20550190D01*
X84129523Y-21026380D02*
X83558095Y-21026380D01*
X83843809Y-21026380D02*
X83843809Y-20026380D01*
X83748571Y-20169238D01*
X83653333Y-20264476D01*
X83558095Y-20312095D01*
X84462857Y-20026380D02*
X85129523Y-20026380D01*
X84700952Y-21026380D01*
X78351142Y-88336380D02*
X78017809Y-87860190D01*
X77779714Y-88336380D02*
X77779714Y-87336380D01*
X78160666Y-87336380D01*
X78255904Y-87384000D01*
X78303523Y-87431619D01*
X78351142Y-87526857D01*
X78351142Y-87669714D01*
X78303523Y-87764952D01*
X78255904Y-87812571D01*
X78160666Y-87860190D01*
X77779714Y-87860190D01*
X79303523Y-88336380D02*
X78732095Y-88336380D01*
X79017809Y-88336380D02*
X79017809Y-87336380D01*
X78922571Y-87479238D01*
X78827333Y-87574476D01*
X78732095Y-87622095D01*
X80160666Y-87336380D02*
X79970190Y-87336380D01*
X79874952Y-87384000D01*
X79827333Y-87431619D01*
X79732095Y-87574476D01*
X79684476Y-87764952D01*
X79684476Y-88145904D01*
X79732095Y-88241142D01*
X79779714Y-88288761D01*
X79874952Y-88336380D01*
X80065428Y-88336380D01*
X80160666Y-88288761D01*
X80208285Y-88241142D01*
X80255904Y-88145904D01*
X80255904Y-87907809D01*
X80208285Y-87812571D01*
X80160666Y-87764952D01*
X80065428Y-87717333D01*
X79874952Y-87717333D01*
X79779714Y-87764952D01*
X79732095Y-87812571D01*
X79684476Y-87907809D01*
X78351142Y-104592380D02*
X78017809Y-104116190D01*
X77779714Y-104592380D02*
X77779714Y-103592380D01*
X78160666Y-103592380D01*
X78255904Y-103640000D01*
X78303523Y-103687619D01*
X78351142Y-103782857D01*
X78351142Y-103925714D01*
X78303523Y-104020952D01*
X78255904Y-104068571D01*
X78160666Y-104116190D01*
X77779714Y-104116190D01*
X79303523Y-104592380D02*
X78732095Y-104592380D01*
X79017809Y-104592380D02*
X79017809Y-103592380D01*
X78922571Y-103735238D01*
X78827333Y-103830476D01*
X78732095Y-103878095D01*
X80208285Y-103592380D02*
X79732095Y-103592380D01*
X79684476Y-104068571D01*
X79732095Y-104020952D01*
X79827333Y-103973333D01*
X80065428Y-103973333D01*
X80160666Y-104020952D01*
X80208285Y-104068571D01*
X80255904Y-104163809D01*
X80255904Y-104401904D01*
X80208285Y-104497142D01*
X80160666Y-104544761D01*
X80065428Y-104592380D01*
X79827333Y-104592380D01*
X79732095Y-104544761D01*
X79684476Y-104497142D01*
X83939142Y-83002380D02*
X83605809Y-82526190D01*
X83367714Y-83002380D02*
X83367714Y-82002380D01*
X83748666Y-82002380D01*
X83843904Y-82050000D01*
X83891523Y-82097619D01*
X83939142Y-82192857D01*
X83939142Y-82335714D01*
X83891523Y-82430952D01*
X83843904Y-82478571D01*
X83748666Y-82526190D01*
X83367714Y-82526190D01*
X84891523Y-83002380D02*
X84320095Y-83002380D01*
X84605809Y-83002380D02*
X84605809Y-82002380D01*
X84510571Y-82145238D01*
X84415333Y-82240476D01*
X84320095Y-82288095D01*
X85748666Y-82335714D02*
X85748666Y-83002380D01*
X85510571Y-81954761D02*
X85272476Y-82669047D01*
X85891523Y-82669047D01*
X84701142Y-109418380D02*
X84367809Y-108942190D01*
X84129714Y-109418380D02*
X84129714Y-108418380D01*
X84510666Y-108418380D01*
X84605904Y-108466000D01*
X84653523Y-108513619D01*
X84701142Y-108608857D01*
X84701142Y-108751714D01*
X84653523Y-108846952D01*
X84605904Y-108894571D01*
X84510666Y-108942190D01*
X84129714Y-108942190D01*
X85653523Y-109418380D02*
X85082095Y-109418380D01*
X85367809Y-109418380D02*
X85367809Y-108418380D01*
X85272571Y-108561238D01*
X85177333Y-108656476D01*
X85082095Y-108704095D01*
X85986857Y-108418380D02*
X86605904Y-108418380D01*
X86272571Y-108799333D01*
X86415428Y-108799333D01*
X86510666Y-108846952D01*
X86558285Y-108894571D01*
X86605904Y-108989809D01*
X86605904Y-109227904D01*
X86558285Y-109323142D01*
X86510666Y-109370761D01*
X86415428Y-109418380D01*
X86129714Y-109418380D01*
X86034476Y-109370761D01*
X85986857Y-109323142D01*
X113657142Y-41600380D02*
X113323809Y-41124190D01*
X113085714Y-41600380D02*
X113085714Y-40600380D01*
X113466666Y-40600380D01*
X113561904Y-40648000D01*
X113609523Y-40695619D01*
X113657142Y-40790857D01*
X113657142Y-40933714D01*
X113609523Y-41028952D01*
X113561904Y-41076571D01*
X113466666Y-41124190D01*
X113085714Y-41124190D01*
X114609523Y-41600380D02*
X114038095Y-41600380D01*
X114323809Y-41600380D02*
X114323809Y-40600380D01*
X114228571Y-40743238D01*
X114133333Y-40838476D01*
X114038095Y-40886095D01*
X114990476Y-40695619D02*
X115038095Y-40648000D01*
X115133333Y-40600380D01*
X115371428Y-40600380D01*
X115466666Y-40648000D01*
X115514285Y-40695619D01*
X115561904Y-40790857D01*
X115561904Y-40886095D01*
X115514285Y-41028952D01*
X114942857Y-41600380D01*
X115561904Y-41600380D01*
X88257142Y-15946380D02*
X87923809Y-15470190D01*
X87685714Y-15946380D02*
X87685714Y-14946380D01*
X88066666Y-14946380D01*
X88161904Y-14994000D01*
X88209523Y-15041619D01*
X88257142Y-15136857D01*
X88257142Y-15279714D01*
X88209523Y-15374952D01*
X88161904Y-15422571D01*
X88066666Y-15470190D01*
X87685714Y-15470190D01*
X89209523Y-15946380D02*
X88638095Y-15946380D01*
X88923809Y-15946380D02*
X88923809Y-14946380D01*
X88828571Y-15089238D01*
X88733333Y-15184476D01*
X88638095Y-15232095D01*
X90161904Y-15946380D02*
X89590476Y-15946380D01*
X89876190Y-15946380D02*
X89876190Y-14946380D01*
X89780952Y-15089238D01*
X89685714Y-15184476D01*
X89590476Y-15232095D01*
X78351142Y-92400380D02*
X78017809Y-91924190D01*
X77779714Y-92400380D02*
X77779714Y-91400380D01*
X78160666Y-91400380D01*
X78255904Y-91448000D01*
X78303523Y-91495619D01*
X78351142Y-91590857D01*
X78351142Y-91733714D01*
X78303523Y-91828952D01*
X78255904Y-91876571D01*
X78160666Y-91924190D01*
X77779714Y-91924190D01*
X79303523Y-92400380D02*
X78732095Y-92400380D01*
X79017809Y-92400380D02*
X79017809Y-91400380D01*
X78922571Y-91543238D01*
X78827333Y-91638476D01*
X78732095Y-91686095D01*
X79922571Y-91400380D02*
X80017809Y-91400380D01*
X80113047Y-91448000D01*
X80160666Y-91495619D01*
X80208285Y-91590857D01*
X80255904Y-91781333D01*
X80255904Y-92019428D01*
X80208285Y-92209904D01*
X80160666Y-92305142D01*
X80113047Y-92352761D01*
X80017809Y-92400380D01*
X79922571Y-92400380D01*
X79827333Y-92352761D01*
X79779714Y-92305142D01*
X79732095Y-92209904D01*
X79684476Y-92019428D01*
X79684476Y-91781333D01*
X79732095Y-91590857D01*
X79779714Y-91495619D01*
X79827333Y-91448000D01*
X79922571Y-91400380D01*
X79335333Y-100020380D02*
X79002000Y-99544190D01*
X78763904Y-100020380D02*
X78763904Y-99020380D01*
X79144857Y-99020380D01*
X79240095Y-99068000D01*
X79287714Y-99115619D01*
X79335333Y-99210857D01*
X79335333Y-99353714D01*
X79287714Y-99448952D01*
X79240095Y-99496571D01*
X79144857Y-99544190D01*
X78763904Y-99544190D01*
X79811523Y-100020380D02*
X80002000Y-100020380D01*
X80097238Y-99972761D01*
X80144857Y-99925142D01*
X80240095Y-99782285D01*
X80287714Y-99591809D01*
X80287714Y-99210857D01*
X80240095Y-99115619D01*
X80192476Y-99068000D01*
X80097238Y-99020380D01*
X79906761Y-99020380D01*
X79811523Y-99068000D01*
X79763904Y-99115619D01*
X79716285Y-99210857D01*
X79716285Y-99448952D01*
X79763904Y-99544190D01*
X79811523Y-99591809D01*
X79906761Y-99639428D01*
X80097238Y-99639428D01*
X80192476Y-99591809D01*
X80240095Y-99544190D01*
X80287714Y-99448952D01*
X120229333Y-32710380D02*
X119896000Y-32234190D01*
X119657904Y-32710380D02*
X119657904Y-31710380D01*
X120038857Y-31710380D01*
X120134095Y-31758000D01*
X120181714Y-31805619D01*
X120229333Y-31900857D01*
X120229333Y-32043714D01*
X120181714Y-32138952D01*
X120134095Y-32186571D01*
X120038857Y-32234190D01*
X119657904Y-32234190D01*
X120800761Y-32138952D02*
X120705523Y-32091333D01*
X120657904Y-32043714D01*
X120610285Y-31948476D01*
X120610285Y-31900857D01*
X120657904Y-31805619D01*
X120705523Y-31758000D01*
X120800761Y-31710380D01*
X120991238Y-31710380D01*
X121086476Y-31758000D01*
X121134095Y-31805619D01*
X121181714Y-31900857D01*
X121181714Y-31948476D01*
X121134095Y-32043714D01*
X121086476Y-32091333D01*
X120991238Y-32138952D01*
X120800761Y-32138952D01*
X120705523Y-32186571D01*
X120657904Y-32234190D01*
X120610285Y-32329428D01*
X120610285Y-32519904D01*
X120657904Y-32615142D01*
X120705523Y-32662761D01*
X120800761Y-32710380D01*
X120991238Y-32710380D01*
X121086476Y-32662761D01*
X121134095Y-32615142D01*
X121181714Y-32519904D01*
X121181714Y-32329428D01*
X121134095Y-32234190D01*
X121086476Y-32186571D01*
X120991238Y-32138952D01*
X84161333Y-25090380D02*
X83828000Y-24614190D01*
X83589904Y-25090380D02*
X83589904Y-24090380D01*
X83970857Y-24090380D01*
X84066095Y-24138000D01*
X84113714Y-24185619D01*
X84161333Y-24280857D01*
X84161333Y-24423714D01*
X84113714Y-24518952D01*
X84066095Y-24566571D01*
X83970857Y-24614190D01*
X83589904Y-24614190D01*
X84494666Y-24090380D02*
X85161333Y-24090380D01*
X84732761Y-25090380D01*
X124150380Y-40298666D02*
X123674190Y-40632000D01*
X124150380Y-40870095D02*
X123150380Y-40870095D01*
X123150380Y-40489142D01*
X123198000Y-40393904D01*
X123245619Y-40346285D01*
X123340857Y-40298666D01*
X123483714Y-40298666D01*
X123578952Y-40346285D01*
X123626571Y-40393904D01*
X123674190Y-40489142D01*
X123674190Y-40870095D01*
X123150380Y-39441523D02*
X123150380Y-39632000D01*
X123198000Y-39727238D01*
X123245619Y-39774857D01*
X123388476Y-39870095D01*
X123578952Y-39917714D01*
X123959904Y-39917714D01*
X124055142Y-39870095D01*
X124102761Y-39822476D01*
X124150380Y-39727238D01*
X124150380Y-39536761D01*
X124102761Y-39441523D01*
X124055142Y-39393904D01*
X123959904Y-39346285D01*
X123721809Y-39346285D01*
X123626571Y-39393904D01*
X123578952Y-39441523D01*
X123531333Y-39536761D01*
X123531333Y-39727238D01*
X123578952Y-39822476D01*
X123626571Y-39870095D01*
X123721809Y-39917714D01*
X123896380Y-94908666D02*
X123420190Y-95242000D01*
X123896380Y-95480095D02*
X122896380Y-95480095D01*
X122896380Y-95099142D01*
X122944000Y-95003904D01*
X122991619Y-94956285D01*
X123086857Y-94908666D01*
X123229714Y-94908666D01*
X123324952Y-94956285D01*
X123372571Y-95003904D01*
X123420190Y-95099142D01*
X123420190Y-95480095D01*
X122896380Y-94003904D02*
X122896380Y-94480095D01*
X123372571Y-94527714D01*
X123324952Y-94480095D01*
X123277333Y-94384857D01*
X123277333Y-94146761D01*
X123324952Y-94051523D01*
X123372571Y-94003904D01*
X123467809Y-93956285D01*
X123705904Y-93956285D01*
X123801142Y-94003904D01*
X123848761Y-94051523D01*
X123896380Y-94146761D01*
X123896380Y-94384857D01*
X123848761Y-94480095D01*
X123801142Y-94527714D01*
X127794190Y-58618380D02*
X127794190Y-57618380D01*
X128175142Y-57618380D01*
X128270380Y-57666000D01*
X128318000Y-57713619D01*
X128365619Y-57808857D01*
X128365619Y-57951714D01*
X128318000Y-58046952D01*
X128270380Y-58094571D01*
X128175142Y-58142190D01*
X127794190Y-58142190D01*
X128698952Y-57618380D02*
X128937047Y-58618380D01*
X129127523Y-57904095D01*
X129318000Y-58618380D01*
X129556095Y-57618380D01*
X130508476Y-58618380D02*
X130175142Y-58142190D01*
X129937047Y-58618380D02*
X129937047Y-57618380D01*
X130318000Y-57618380D01*
X130413238Y-57666000D01*
X130460857Y-57713619D01*
X130508476Y-57808857D01*
X130508476Y-57951714D01*
X130460857Y-58046952D01*
X130413238Y-58094571D01*
X130318000Y-58142190D01*
X129937047Y-58142190D01*
X130698952Y-58713619D02*
X131460857Y-58713619D01*
X131651333Y-58570761D02*
X131794190Y-58618380D01*
X132032285Y-58618380D01*
X132127523Y-58570761D01*
X132175142Y-58523142D01*
X132222761Y-58427904D01*
X132222761Y-58332666D01*
X132175142Y-58237428D01*
X132127523Y-58189809D01*
X132032285Y-58142190D01*
X131841809Y-58094571D01*
X131746571Y-58046952D01*
X131698952Y-57999333D01*
X131651333Y-57904095D01*
X131651333Y-57808857D01*
X131698952Y-57713619D01*
X131746571Y-57666000D01*
X131841809Y-57618380D01*
X132079904Y-57618380D01*
X132222761Y-57666000D01*
X132651333Y-58094571D02*
X132984666Y-58094571D01*
X133127523Y-58618380D02*
X132651333Y-58618380D01*
X132651333Y-57618380D01*
X133127523Y-57618380D01*
X134032285Y-58618380D02*
X133556095Y-58618380D01*
X133556095Y-57618380D01*
X134889428Y-58618380D02*
X134318000Y-58618380D01*
X134603714Y-58618380D02*
X134603714Y-57618380D01*
X134508476Y-57761238D01*
X134413238Y-57856476D01*
X134318000Y-57904095D01*
X61833333Y-115006380D02*
X61738095Y-114958761D01*
X61690476Y-114911142D01*
X61642857Y-114815904D01*
X61642857Y-114530190D01*
X61690476Y-114434952D01*
X61738095Y-114387333D01*
X61833333Y-114339714D01*
X61976190Y-114339714D01*
X62071428Y-114387333D01*
X62119047Y-114434952D01*
X62166666Y-114530190D01*
X62166666Y-114815904D01*
X62119047Y-114911142D01*
X62071428Y-114958761D01*
X61976190Y-115006380D01*
X61833333Y-115006380D01*
X63023809Y-114339714D02*
X63023809Y-115006380D01*
X62595238Y-114339714D02*
X62595238Y-114863523D01*
X62642857Y-114958761D01*
X62738095Y-115006380D01*
X62880952Y-115006380D01*
X62976190Y-114958761D01*
X63023809Y-114911142D01*
X63357142Y-114339714D02*
X63738095Y-114339714D01*
X63500000Y-114006380D02*
X63500000Y-114863523D01*
X63547619Y-114958761D01*
X63642857Y-115006380D01*
X63738095Y-115006380D01*
X65261904Y-114339714D02*
X65261904Y-115006380D01*
X65023809Y-113958761D02*
X64785714Y-114673047D01*
X65404761Y-114673047D01*
X36687333Y-115006380D02*
X36592095Y-114958761D01*
X36544476Y-114911142D01*
X36496857Y-114815904D01*
X36496857Y-114530190D01*
X36544476Y-114434952D01*
X36592095Y-114387333D01*
X36687333Y-114339714D01*
X36830190Y-114339714D01*
X36925428Y-114387333D01*
X36973047Y-114434952D01*
X37020666Y-114530190D01*
X37020666Y-114815904D01*
X36973047Y-114911142D01*
X36925428Y-114958761D01*
X36830190Y-115006380D01*
X36687333Y-115006380D01*
X37877809Y-114339714D02*
X37877809Y-115006380D01*
X37449238Y-114339714D02*
X37449238Y-114863523D01*
X37496857Y-114958761D01*
X37592095Y-115006380D01*
X37734952Y-115006380D01*
X37830190Y-114958761D01*
X37877809Y-114911142D01*
X38211142Y-114339714D02*
X38592095Y-114339714D01*
X38354000Y-114006380D02*
X38354000Y-114863523D01*
X38401619Y-114958761D01*
X38496857Y-115006380D01*
X38592095Y-115006380D01*
X39639714Y-114101619D02*
X39687333Y-114054000D01*
X39782571Y-114006380D01*
X40020666Y-114006380D01*
X40115904Y-114054000D01*
X40163523Y-114101619D01*
X40211142Y-114196857D01*
X40211142Y-114292095D01*
X40163523Y-114434952D01*
X39592095Y-115006380D01*
X40211142Y-115006380D01*
X48982476Y-79954380D02*
X48982476Y-79287714D01*
X48982476Y-78954380D02*
X48934857Y-79002000D01*
X48982476Y-79049619D01*
X49030095Y-79002000D01*
X48982476Y-78954380D01*
X48982476Y-79049619D01*
X49458666Y-79287714D02*
X49458666Y-79954380D01*
X49458666Y-79382952D02*
X49506285Y-79335333D01*
X49601523Y-79287714D01*
X49744380Y-79287714D01*
X49839619Y-79335333D01*
X49887238Y-79430571D01*
X49887238Y-79954380D01*
X51030095Y-78954380D02*
X51649142Y-78954380D01*
X51315809Y-79335333D01*
X51458666Y-79335333D01*
X51553904Y-79382952D01*
X51601523Y-79430571D01*
X51649142Y-79525809D01*
X51649142Y-79763904D01*
X51601523Y-79859142D01*
X51553904Y-79906761D01*
X51458666Y-79954380D01*
X51172952Y-79954380D01*
X51077714Y-79906761D01*
X51030095Y-79859142D01*
X62190476Y-79954380D02*
X62190476Y-79287714D01*
X62190476Y-78954380D02*
X62142857Y-79002000D01*
X62190476Y-79049619D01*
X62238095Y-79002000D01*
X62190476Y-78954380D01*
X62190476Y-79049619D01*
X62666666Y-79287714D02*
X62666666Y-79954380D01*
X62666666Y-79382952D02*
X62714285Y-79335333D01*
X62809523Y-79287714D01*
X62952380Y-79287714D01*
X63047619Y-79335333D01*
X63095238Y-79430571D01*
X63095238Y-79954380D01*
X64761904Y-79287714D02*
X64761904Y-79954380D01*
X64523809Y-78906761D02*
X64285714Y-79621047D01*
X64904761Y-79621047D01*
X48879333Y-115006380D02*
X48784095Y-114958761D01*
X48736476Y-114911142D01*
X48688857Y-114815904D01*
X48688857Y-114530190D01*
X48736476Y-114434952D01*
X48784095Y-114387333D01*
X48879333Y-114339714D01*
X49022190Y-114339714D01*
X49117428Y-114387333D01*
X49165047Y-114434952D01*
X49212666Y-114530190D01*
X49212666Y-114815904D01*
X49165047Y-114911142D01*
X49117428Y-114958761D01*
X49022190Y-115006380D01*
X48879333Y-115006380D01*
X50069809Y-114339714D02*
X50069809Y-115006380D01*
X49641238Y-114339714D02*
X49641238Y-114863523D01*
X49688857Y-114958761D01*
X49784095Y-115006380D01*
X49926952Y-115006380D01*
X50022190Y-114958761D01*
X50069809Y-114911142D01*
X50403142Y-114339714D02*
X50784095Y-114339714D01*
X50546000Y-114006380D02*
X50546000Y-114863523D01*
X50593619Y-114958761D01*
X50688857Y-115006380D01*
X50784095Y-115006380D01*
X51784095Y-114006380D02*
X52403142Y-114006380D01*
X52069809Y-114387333D01*
X52212666Y-114387333D01*
X52307904Y-114434952D01*
X52355523Y-114482571D01*
X52403142Y-114577809D01*
X52403142Y-114815904D01*
X52355523Y-114911142D01*
X52307904Y-114958761D01*
X52212666Y-115006380D01*
X51926952Y-115006380D01*
X51831714Y-114958761D01*
X51784095Y-114911142D01*
X23733333Y-115006380D02*
X23638095Y-114958761D01*
X23590476Y-114911142D01*
X23542857Y-114815904D01*
X23542857Y-114530190D01*
X23590476Y-114434952D01*
X23638095Y-114387333D01*
X23733333Y-114339714D01*
X23876190Y-114339714D01*
X23971428Y-114387333D01*
X24019047Y-114434952D01*
X24066666Y-114530190D01*
X24066666Y-114815904D01*
X24019047Y-114911142D01*
X23971428Y-114958761D01*
X23876190Y-115006380D01*
X23733333Y-115006380D01*
X24923809Y-114339714D02*
X24923809Y-115006380D01*
X24495238Y-114339714D02*
X24495238Y-114863523D01*
X24542857Y-114958761D01*
X24638095Y-115006380D01*
X24780952Y-115006380D01*
X24876190Y-114958761D01*
X24923809Y-114911142D01*
X25257142Y-114339714D02*
X25638095Y-114339714D01*
X25400000Y-114006380D02*
X25400000Y-114863523D01*
X25447619Y-114958761D01*
X25542857Y-115006380D01*
X25638095Y-115006380D01*
X27257142Y-115006380D02*
X26685714Y-115006380D01*
X26971428Y-115006380D02*
X26971428Y-114006380D01*
X26876190Y-114149238D01*
X26780952Y-114244476D01*
X26685714Y-114292095D01*
X24598476Y-79954380D02*
X24598476Y-79287714D01*
X24598476Y-78954380D02*
X24550857Y-79002000D01*
X24598476Y-79049619D01*
X24646095Y-79002000D01*
X24598476Y-78954380D01*
X24598476Y-79049619D01*
X25074666Y-79287714D02*
X25074666Y-79954380D01*
X25074666Y-79382952D02*
X25122285Y-79335333D01*
X25217523Y-79287714D01*
X25360380Y-79287714D01*
X25455619Y-79335333D01*
X25503238Y-79430571D01*
X25503238Y-79954380D01*
X27265142Y-79954380D02*
X26693714Y-79954380D01*
X26979428Y-79954380D02*
X26979428Y-78954380D01*
X26884190Y-79097238D01*
X26788952Y-79192476D01*
X26693714Y-79240095D01*
X36790476Y-79954380D02*
X36790476Y-79287714D01*
X36790476Y-78954380D02*
X36742857Y-79002000D01*
X36790476Y-79049619D01*
X36838095Y-79002000D01*
X36790476Y-78954380D01*
X36790476Y-79049619D01*
X37266666Y-79287714D02*
X37266666Y-79954380D01*
X37266666Y-79382952D02*
X37314285Y-79335333D01*
X37409523Y-79287714D01*
X37552380Y-79287714D01*
X37647619Y-79335333D01*
X37695238Y-79430571D01*
X37695238Y-79954380D01*
X38885714Y-79049619D02*
X38933333Y-79002000D01*
X39028571Y-78954380D01*
X39266666Y-78954380D01*
X39361904Y-79002000D01*
X39409523Y-79049619D01*
X39457142Y-79144857D01*
X39457142Y-79240095D01*
X39409523Y-79382952D01*
X38838095Y-79954380D01*
X39457142Y-79954380D01*
X82637333Y-96115142D02*
X82589714Y-96162761D01*
X82446857Y-96210380D01*
X82351619Y-96210380D01*
X82208761Y-96162761D01*
X82113523Y-96067523D01*
X82065904Y-95972285D01*
X82018285Y-95781809D01*
X82018285Y-95638952D01*
X82065904Y-95448476D01*
X82113523Y-95353238D01*
X82208761Y-95258000D01*
X82351619Y-95210380D01*
X82446857Y-95210380D01*
X82589714Y-95258000D01*
X82637333Y-95305619D01*
X82970666Y-95210380D02*
X83637333Y-95210380D01*
X83208761Y-96210380D01*
X130897333Y-48617142D02*
X130849714Y-48664761D01*
X130706857Y-48712380D01*
X130611619Y-48712380D01*
X130468761Y-48664761D01*
X130373523Y-48569523D01*
X130325904Y-48474285D01*
X130278285Y-48283809D01*
X130278285Y-48140952D01*
X130325904Y-47950476D01*
X130373523Y-47855238D01*
X130468761Y-47760000D01*
X130611619Y-47712380D01*
X130706857Y-47712380D01*
X130849714Y-47760000D01*
X130897333Y-47807619D01*
X131754476Y-47712380D02*
X131564000Y-47712380D01*
X131468761Y-47760000D01*
X131421142Y-47807619D01*
X131325904Y-47950476D01*
X131278285Y-48140952D01*
X131278285Y-48521904D01*
X131325904Y-48617142D01*
X131373523Y-48664761D01*
X131468761Y-48712380D01*
X131659238Y-48712380D01*
X131754476Y-48664761D01*
X131802095Y-48617142D01*
X131849714Y-48521904D01*
X131849714Y-48283809D01*
X131802095Y-48188571D01*
X131754476Y-48140952D01*
X131659238Y-48093333D01*
X131468761Y-48093333D01*
X131373523Y-48140952D01*
X131325904Y-48188571D01*
X131278285Y-48283809D01*
X117181333Y-28805142D02*
X117133714Y-28852761D01*
X116990857Y-28900380D01*
X116895619Y-28900380D01*
X116752761Y-28852761D01*
X116657523Y-28757523D01*
X116609904Y-28662285D01*
X116562285Y-28471809D01*
X116562285Y-28328952D01*
X116609904Y-28138476D01*
X116657523Y-28043238D01*
X116752761Y-27948000D01*
X116895619Y-27900380D01*
X116990857Y-27900380D01*
X117133714Y-27948000D01*
X117181333Y-27995619D01*
X118086095Y-27900380D02*
X117609904Y-27900380D01*
X117562285Y-28376571D01*
X117609904Y-28328952D01*
X117705142Y-28281333D01*
X117943238Y-28281333D01*
X118038476Y-28328952D01*
X118086095Y-28376571D01*
X118133714Y-28471809D01*
X118133714Y-28709904D01*
X118086095Y-28805142D01*
X118038476Y-28852761D01*
X117943238Y-28900380D01*
X117705142Y-28900380D01*
X117609904Y-28852761D01*
X117562285Y-28805142D01*
X86701333Y-28805142D02*
X86653714Y-28852761D01*
X86510857Y-28900380D01*
X86415619Y-28900380D01*
X86272761Y-28852761D01*
X86177523Y-28757523D01*
X86129904Y-28662285D01*
X86082285Y-28471809D01*
X86082285Y-28328952D01*
X86129904Y-28138476D01*
X86177523Y-28043238D01*
X86272761Y-27948000D01*
X86415619Y-27900380D01*
X86510857Y-27900380D01*
X86653714Y-27948000D01*
X86701333Y-27995619D01*
X87558476Y-28233714D02*
X87558476Y-28900380D01*
X87320380Y-27852761D02*
X87082285Y-28567047D01*
X87701333Y-28567047D01*
X114641333Y-57761142D02*
X114593714Y-57808761D01*
X114450857Y-57856380D01*
X114355619Y-57856380D01*
X114212761Y-57808761D01*
X114117523Y-57713523D01*
X114069904Y-57618285D01*
X114022285Y-57427809D01*
X114022285Y-57284952D01*
X114069904Y-57094476D01*
X114117523Y-56999238D01*
X114212761Y-56904000D01*
X114355619Y-56856380D01*
X114450857Y-56856380D01*
X114593714Y-56904000D01*
X114641333Y-56951619D01*
X114974666Y-56856380D02*
X115593714Y-56856380D01*
X115260380Y-57237333D01*
X115403238Y-57237333D01*
X115498476Y-57284952D01*
X115546095Y-57332571D01*
X115593714Y-57427809D01*
X115593714Y-57665904D01*
X115546095Y-57761142D01*
X115498476Y-57808761D01*
X115403238Y-57856380D01*
X115117523Y-57856380D01*
X115022285Y-57808761D01*
X114974666Y-57761142D01*
X122281333Y-58777142D02*
X122233714Y-58824761D01*
X122090857Y-58872380D01*
X121995619Y-58872380D01*
X121852761Y-58824761D01*
X121757523Y-58729523D01*
X121709904Y-58634285D01*
X121662285Y-58443809D01*
X121662285Y-58300952D01*
X121709904Y-58110476D01*
X121757523Y-58015238D01*
X121852761Y-57920000D01*
X121995619Y-57872380D01*
X122090857Y-57872380D01*
X122233714Y-57920000D01*
X122281333Y-57967619D01*
X122662285Y-57967619D02*
X122709904Y-57920000D01*
X122805142Y-57872380D01*
X123043238Y-57872380D01*
X123138476Y-57920000D01*
X123186095Y-57967619D01*
X123233714Y-58062857D01*
X123233714Y-58158095D01*
X123186095Y-58300952D01*
X122614666Y-58872380D01*
X123233714Y-58872380D01*
X122515333Y-69953142D02*
X122467714Y-70000761D01*
X122324857Y-70048380D01*
X122229619Y-70048380D01*
X122086761Y-70000761D01*
X121991523Y-69905523D01*
X121943904Y-69810285D01*
X121896285Y-69619809D01*
X121896285Y-69476952D01*
X121943904Y-69286476D01*
X121991523Y-69191238D01*
X122086761Y-69096000D01*
X122229619Y-69048380D01*
X122324857Y-69048380D01*
X122467714Y-69096000D01*
X122515333Y-69143619D01*
X123467714Y-70048380D02*
X122896285Y-70048380D01*
X123182000Y-70048380D02*
X123182000Y-69048380D01*
X123086761Y-69191238D01*
X122991523Y-69286476D01*
X122896285Y-69334095D01*
X73580666Y-32828761D02*
X73723523Y-32876380D01*
X73961619Y-32876380D01*
X74056857Y-32828761D01*
X74104476Y-32781142D01*
X74152095Y-32685904D01*
X74152095Y-32590666D01*
X74104476Y-32495428D01*
X74056857Y-32447809D01*
X73961619Y-32400190D01*
X73771142Y-32352571D01*
X73675904Y-32304952D01*
X73628285Y-32257333D01*
X73580666Y-32162095D01*
X73580666Y-32066857D01*
X73628285Y-31971619D01*
X73675904Y-31924000D01*
X73771142Y-31876380D01*
X74009238Y-31876380D01*
X74152095Y-31924000D01*
X74485428Y-31876380D02*
X74723523Y-32876380D01*
X74914000Y-32162095D01*
X75104476Y-32876380D01*
X75342571Y-31876380D01*
X76152095Y-32209714D02*
X76152095Y-32876380D01*
X75914000Y-31828761D02*
X75675904Y-32543047D01*
X76294952Y-32543047D01*
X51990666Y-32574761D02*
X52133523Y-32622380D01*
X52371619Y-32622380D01*
X52466857Y-32574761D01*
X52514476Y-32527142D01*
X52562095Y-32431904D01*
X52562095Y-32336666D01*
X52514476Y-32241428D01*
X52466857Y-32193809D01*
X52371619Y-32146190D01*
X52181142Y-32098571D01*
X52085904Y-32050952D01*
X52038285Y-32003333D01*
X51990666Y-31908095D01*
X51990666Y-31812857D01*
X52038285Y-31717619D01*
X52085904Y-31670000D01*
X52181142Y-31622380D01*
X52419238Y-31622380D01*
X52562095Y-31670000D01*
X52895428Y-31622380D02*
X53133523Y-32622380D01*
X53324000Y-31908095D01*
X53514476Y-32622380D01*
X53752571Y-31622380D01*
X54038285Y-31622380D02*
X54657333Y-31622380D01*
X54324000Y-32003333D01*
X54466857Y-32003333D01*
X54562095Y-32050952D01*
X54609714Y-32098571D01*
X54657333Y-32193809D01*
X54657333Y-32431904D01*
X54609714Y-32527142D01*
X54562095Y-32574761D01*
X54466857Y-32622380D01*
X54181142Y-32622380D01*
X54085904Y-32574761D01*
X54038285Y-32527142D01*
X31670666Y-32574761D02*
X31813523Y-32622380D01*
X32051619Y-32622380D01*
X32146857Y-32574761D01*
X32194476Y-32527142D01*
X32242095Y-32431904D01*
X32242095Y-32336666D01*
X32194476Y-32241428D01*
X32146857Y-32193809D01*
X32051619Y-32146190D01*
X31861142Y-32098571D01*
X31765904Y-32050952D01*
X31718285Y-32003333D01*
X31670666Y-31908095D01*
X31670666Y-31812857D01*
X31718285Y-31717619D01*
X31765904Y-31670000D01*
X31861142Y-31622380D01*
X32099238Y-31622380D01*
X32242095Y-31670000D01*
X32575428Y-31622380D02*
X32813523Y-32622380D01*
X33004000Y-31908095D01*
X33194476Y-32622380D01*
X33432571Y-31622380D01*
X33765904Y-31717619D02*
X33813523Y-31670000D01*
X33908761Y-31622380D01*
X34146857Y-31622380D01*
X34242095Y-31670000D01*
X34289714Y-31717619D01*
X34337333Y-31812857D01*
X34337333Y-31908095D01*
X34289714Y-32050952D01*
X33718285Y-32622380D01*
X34337333Y-32622380D01*
X11492666Y-32220761D02*
X11635523Y-32268380D01*
X11873619Y-32268380D01*
X11968857Y-32220761D01*
X12016476Y-32173142D01*
X12064095Y-32077904D01*
X12064095Y-31982666D01*
X12016476Y-31887428D01*
X11968857Y-31839809D01*
X11873619Y-31792190D01*
X11683142Y-31744571D01*
X11587904Y-31696952D01*
X11540285Y-31649333D01*
X11492666Y-31554095D01*
X11492666Y-31458857D01*
X11540285Y-31363619D01*
X11587904Y-31316000D01*
X11683142Y-31268380D01*
X11921238Y-31268380D01*
X12064095Y-31316000D01*
X12397428Y-31268380D02*
X12635523Y-32268380D01*
X12826000Y-31554095D01*
X13016476Y-32268380D01*
X13254571Y-31268380D01*
X14159333Y-32268380D02*
X13587904Y-32268380D01*
X13873619Y-32268380D02*
X13873619Y-31268380D01*
X13778380Y-31411238D01*
X13683142Y-31506476D01*
X13587904Y-31554095D01*
X81145142Y-48712380D02*
X80811809Y-48236190D01*
X80573714Y-48712380D02*
X80573714Y-47712380D01*
X80954666Y-47712380D01*
X81049904Y-47760000D01*
X81097523Y-47807619D01*
X81145142Y-47902857D01*
X81145142Y-48045714D01*
X81097523Y-48140952D01*
X81049904Y-48188571D01*
X80954666Y-48236190D01*
X80573714Y-48236190D01*
X81478476Y-47712380D02*
X82097523Y-47712380D01*
X81764190Y-48093333D01*
X81907047Y-48093333D01*
X82002285Y-48140952D01*
X82049904Y-48188571D01*
X82097523Y-48283809D01*
X82097523Y-48521904D01*
X82049904Y-48617142D01*
X82002285Y-48664761D01*
X81907047Y-48712380D01*
X81621333Y-48712380D01*
X81526095Y-48664761D01*
X81478476Y-48617142D01*
X82668952Y-48140952D02*
X82573714Y-48093333D01*
X82526095Y-48045714D01*
X82478476Y-47950476D01*
X82478476Y-47902857D01*
X82526095Y-47807619D01*
X82573714Y-47760000D01*
X82668952Y-47712380D01*
X82859428Y-47712380D01*
X82954666Y-47760000D01*
X83002285Y-47807619D01*
X83049904Y-47902857D01*
X83049904Y-47950476D01*
X83002285Y-48045714D01*
X82954666Y-48093333D01*
X82859428Y-48140952D01*
X82668952Y-48140952D01*
X82573714Y-48188571D01*
X82526095Y-48236190D01*
X82478476Y-48331428D01*
X82478476Y-48521904D01*
X82526095Y-48617142D01*
X82573714Y-48664761D01*
X82668952Y-48712380D01*
X82859428Y-48712380D01*
X82954666Y-48664761D01*
X83002285Y-48617142D01*
X83049904Y-48521904D01*
X83049904Y-48331428D01*
X83002285Y-48236190D01*
X82954666Y-48188571D01*
X82859428Y-48140952D01*
X59809142Y-48712380D02*
X59475809Y-48236190D01*
X59237714Y-48712380D02*
X59237714Y-47712380D01*
X59618666Y-47712380D01*
X59713904Y-47760000D01*
X59761523Y-47807619D01*
X59809142Y-47902857D01*
X59809142Y-48045714D01*
X59761523Y-48140952D01*
X59713904Y-48188571D01*
X59618666Y-48236190D01*
X59237714Y-48236190D01*
X60142476Y-47712380D02*
X60761523Y-47712380D01*
X60428190Y-48093333D01*
X60571047Y-48093333D01*
X60666285Y-48140952D01*
X60713904Y-48188571D01*
X60761523Y-48283809D01*
X60761523Y-48521904D01*
X60713904Y-48617142D01*
X60666285Y-48664761D01*
X60571047Y-48712380D01*
X60285333Y-48712380D01*
X60190095Y-48664761D01*
X60142476Y-48617142D01*
X61094857Y-47712380D02*
X61761523Y-47712380D01*
X61332952Y-48712380D01*
X39362142Y-48712380D02*
X39028809Y-48236190D01*
X38790714Y-48712380D02*
X38790714Y-47712380D01*
X39171666Y-47712380D01*
X39266904Y-47760000D01*
X39314523Y-47807619D01*
X39362142Y-47902857D01*
X39362142Y-48045714D01*
X39314523Y-48140952D01*
X39266904Y-48188571D01*
X39171666Y-48236190D01*
X38790714Y-48236190D01*
X39695476Y-47712380D02*
X40314523Y-47712380D01*
X39981190Y-48093333D01*
X40124047Y-48093333D01*
X40219285Y-48140952D01*
X40266904Y-48188571D01*
X40314523Y-48283809D01*
X40314523Y-48521904D01*
X40266904Y-48617142D01*
X40219285Y-48664761D01*
X40124047Y-48712380D01*
X39838333Y-48712380D01*
X39743095Y-48664761D01*
X39695476Y-48617142D01*
X41171666Y-47712380D02*
X40981190Y-47712380D01*
X40885952Y-47760000D01*
X40838333Y-47807619D01*
X40743095Y-47950476D01*
X40695476Y-48140952D01*
X40695476Y-48521904D01*
X40743095Y-48617142D01*
X40790714Y-48664761D01*
X40885952Y-48712380D01*
X41076428Y-48712380D01*
X41171666Y-48664761D01*
X41219285Y-48617142D01*
X41266904Y-48521904D01*
X41266904Y-48283809D01*
X41219285Y-48188571D01*
X41171666Y-48140952D01*
X41076428Y-48093333D01*
X40885952Y-48093333D01*
X40790714Y-48140952D01*
X40743095Y-48188571D01*
X40695476Y-48283809D01*
X24757142Y-48712380D02*
X24423809Y-48236190D01*
X24185714Y-48712380D02*
X24185714Y-47712380D01*
X24566666Y-47712380D01*
X24661904Y-47760000D01*
X24709523Y-47807619D01*
X24757142Y-47902857D01*
X24757142Y-48045714D01*
X24709523Y-48140952D01*
X24661904Y-48188571D01*
X24566666Y-48236190D01*
X24185714Y-48236190D01*
X25090476Y-47712380D02*
X25709523Y-47712380D01*
X25376190Y-48093333D01*
X25519047Y-48093333D01*
X25614285Y-48140952D01*
X25661904Y-48188571D01*
X25709523Y-48283809D01*
X25709523Y-48521904D01*
X25661904Y-48617142D01*
X25614285Y-48664761D01*
X25519047Y-48712380D01*
X25233333Y-48712380D01*
X25138095Y-48664761D01*
X25090476Y-48617142D01*
X26614285Y-47712380D02*
X26138095Y-47712380D01*
X26090476Y-48188571D01*
X26138095Y-48140952D01*
X26233333Y-48093333D01*
X26471428Y-48093333D01*
X26566666Y-48140952D01*
X26614285Y-48188571D01*
X26661904Y-48283809D01*
X26661904Y-48521904D01*
X26614285Y-48617142D01*
X26566666Y-48664761D01*
X26471428Y-48712380D01*
X26233333Y-48712380D01*
X26138095Y-48664761D01*
X26090476Y-48617142D01*
X64143333Y-21082380D02*
X63810000Y-20606190D01*
X63571904Y-21082380D02*
X63571904Y-20082380D01*
X63952857Y-20082380D01*
X64048095Y-20130000D01*
X64095714Y-20177619D01*
X64143333Y-20272857D01*
X64143333Y-20415714D01*
X64095714Y-20510952D01*
X64048095Y-20558571D01*
X63952857Y-20606190D01*
X63571904Y-20606190D01*
X65000476Y-20415714D02*
X65000476Y-21082380D01*
X64762380Y-20034761D02*
X64524285Y-20749047D01*
X65143333Y-20749047D01*
X51523333Y-21082380D02*
X51190000Y-20606190D01*
X50951904Y-21082380D02*
X50951904Y-20082380D01*
X51332857Y-20082380D01*
X51428095Y-20130000D01*
X51475714Y-20177619D01*
X51523333Y-20272857D01*
X51523333Y-20415714D01*
X51475714Y-20510952D01*
X51428095Y-20558571D01*
X51332857Y-20606190D01*
X50951904Y-20606190D01*
X51856666Y-20082380D02*
X52475714Y-20082380D01*
X52142380Y-20463333D01*
X52285238Y-20463333D01*
X52380476Y-20510952D01*
X52428095Y-20558571D01*
X52475714Y-20653809D01*
X52475714Y-20891904D01*
X52428095Y-20987142D01*
X52380476Y-21034761D01*
X52285238Y-21082380D01*
X51999523Y-21082380D01*
X51904285Y-21034761D01*
X51856666Y-20987142D01*
X38023333Y-21082380D02*
X37690000Y-20606190D01*
X37451904Y-21082380D02*
X37451904Y-20082380D01*
X37832857Y-20082380D01*
X37928095Y-20130000D01*
X37975714Y-20177619D01*
X38023333Y-20272857D01*
X38023333Y-20415714D01*
X37975714Y-20510952D01*
X37928095Y-20558571D01*
X37832857Y-20606190D01*
X37451904Y-20606190D01*
X38404285Y-20177619D02*
X38451904Y-20130000D01*
X38547142Y-20082380D01*
X38785238Y-20082380D01*
X38880476Y-20130000D01*
X38928095Y-20177619D01*
X38975714Y-20272857D01*
X38975714Y-20368095D01*
X38928095Y-20510952D01*
X38356666Y-21082380D01*
X38975714Y-21082380D01*
X25143333Y-21082380D02*
X24810000Y-20606190D01*
X24571904Y-21082380D02*
X24571904Y-20082380D01*
X24952857Y-20082380D01*
X25048095Y-20130000D01*
X25095714Y-20177619D01*
X25143333Y-20272857D01*
X25143333Y-20415714D01*
X25095714Y-20510952D01*
X25048095Y-20558571D01*
X24952857Y-20606190D01*
X24571904Y-20606190D01*
X26095714Y-21082380D02*
X25524285Y-21082380D01*
X25810000Y-21082380D02*
X25810000Y-20082380D01*
X25714761Y-20225238D01*
X25619523Y-20320476D01*
X25524285Y-20368095D01*
X134937904Y-19248380D02*
X134937904Y-18248380D01*
X135318857Y-18248380D01*
X135414095Y-18296000D01*
X135461714Y-18343619D01*
X135509333Y-18438857D01*
X135509333Y-18581714D01*
X135461714Y-18676952D01*
X135414095Y-18724571D01*
X135318857Y-18772190D01*
X134937904Y-18772190D01*
X136509333Y-19153142D02*
X136461714Y-19200761D01*
X136318857Y-19248380D01*
X136223619Y-19248380D01*
X136080761Y-19200761D01*
X135985523Y-19105523D01*
X135937904Y-19010285D01*
X135890285Y-18819809D01*
X135890285Y-18676952D01*
X135937904Y-18486476D01*
X135985523Y-18391238D01*
X136080761Y-18296000D01*
X136223619Y-18248380D01*
X136318857Y-18248380D01*
X136461714Y-18296000D01*
X136509333Y-18343619D01*
X136937904Y-19248380D02*
X136937904Y-18248380D01*
X137271238Y-18962666D01*
X137604571Y-18248380D01*
X137604571Y-19248380D01*
X138556952Y-18248380D02*
X138080761Y-18248380D01*
X138033142Y-18724571D01*
X138080761Y-18676952D01*
X138176000Y-18629333D01*
X138414095Y-18629333D01*
X138509333Y-18676952D01*
X138556952Y-18724571D01*
X138604571Y-18819809D01*
X138604571Y-19057904D01*
X138556952Y-19153142D01*
X138509333Y-19200761D01*
X138414095Y-19248380D01*
X138176000Y-19248380D01*
X138080761Y-19200761D01*
X138033142Y-19153142D01*
X139556952Y-19248380D02*
X138985523Y-19248380D01*
X139271238Y-19248380D02*
X139271238Y-18248380D01*
X139176000Y-18391238D01*
X139080761Y-18486476D01*
X138985523Y-18534095D01*
X140176000Y-18248380D02*
X140271238Y-18248380D01*
X140366476Y-18296000D01*
X140414095Y-18343619D01*
X140461714Y-18438857D01*
X140509333Y-18629333D01*
X140509333Y-18867428D01*
X140461714Y-19057904D01*
X140414095Y-19153142D01*
X140366476Y-19200761D01*
X140271238Y-19248380D01*
X140176000Y-19248380D01*
X140080761Y-19200761D01*
X140033142Y-19153142D01*
X139985523Y-19057904D01*
X139937904Y-18867428D01*
X139937904Y-18629333D01*
X139985523Y-18438857D01*
X140033142Y-18343619D01*
X140080761Y-18296000D01*
X140176000Y-18248380D01*
X140890285Y-18343619D02*
X140937904Y-18296000D01*
X141033142Y-18248380D01*
X141271238Y-18248380D01*
X141366476Y-18296000D01*
X141414095Y-18343619D01*
X141461714Y-18438857D01*
X141461714Y-18534095D01*
X141414095Y-18676952D01*
X140842666Y-19248380D01*
X141461714Y-19248380D01*
X74445904Y-12240380D02*
X74445904Y-11240380D01*
X74684000Y-11240380D01*
X74826857Y-11288000D01*
X74922095Y-11383238D01*
X74969714Y-11478476D01*
X75017333Y-11668952D01*
X75017333Y-11811809D01*
X74969714Y-12002285D01*
X74922095Y-12097523D01*
X74826857Y-12192761D01*
X74684000Y-12240380D01*
X74445904Y-12240380D01*
X75874476Y-11573714D02*
X75874476Y-12240380D01*
X75636380Y-11192761D02*
X75398285Y-11907047D01*
X76017333Y-11907047D01*
X53109904Y-12494380D02*
X53109904Y-11494380D01*
X53348000Y-11494380D01*
X53490857Y-11542000D01*
X53586095Y-11637238D01*
X53633714Y-11732476D01*
X53681333Y-11922952D01*
X53681333Y-12065809D01*
X53633714Y-12256285D01*
X53586095Y-12351523D01*
X53490857Y-12446761D01*
X53348000Y-12494380D01*
X53109904Y-12494380D01*
X54014666Y-11494380D02*
X54633714Y-11494380D01*
X54300380Y-11875333D01*
X54443238Y-11875333D01*
X54538476Y-11922952D01*
X54586095Y-11970571D01*
X54633714Y-12065809D01*
X54633714Y-12303904D01*
X54586095Y-12399142D01*
X54538476Y-12446761D01*
X54443238Y-12494380D01*
X54157523Y-12494380D01*
X54062285Y-12446761D01*
X54014666Y-12399142D01*
X33297904Y-12240380D02*
X33297904Y-11240380D01*
X33536000Y-11240380D01*
X33678857Y-11288000D01*
X33774095Y-11383238D01*
X33821714Y-11478476D01*
X33869333Y-11668952D01*
X33869333Y-11811809D01*
X33821714Y-12002285D01*
X33774095Y-12097523D01*
X33678857Y-12192761D01*
X33536000Y-12240380D01*
X33297904Y-12240380D01*
X34250285Y-11335619D02*
X34297904Y-11288000D01*
X34393142Y-11240380D01*
X34631238Y-11240380D01*
X34726476Y-11288000D01*
X34774095Y-11335619D01*
X34821714Y-11430857D01*
X34821714Y-11526095D01*
X34774095Y-11668952D01*
X34202666Y-12240380D01*
X34821714Y-12240380D01*
X12215904Y-12494380D02*
X12215904Y-11494380D01*
X12454000Y-11494380D01*
X12596857Y-11542000D01*
X12692095Y-11637238D01*
X12739714Y-11732476D01*
X12787333Y-11922952D01*
X12787333Y-12065809D01*
X12739714Y-12256285D01*
X12692095Y-12351523D01*
X12596857Y-12446761D01*
X12454000Y-12494380D01*
X12215904Y-12494380D01*
X13739714Y-12494380D02*
X13168285Y-12494380D01*
X13454000Y-12494380D02*
X13454000Y-11494380D01*
X13358761Y-11637238D01*
X13263523Y-11732476D01*
X13168285Y-11780095D01*
X134683904Y-84526380D02*
X134683904Y-83526380D01*
X135064857Y-83526380D01*
X135160095Y-83574000D01*
X135207714Y-83621619D01*
X135255333Y-83716857D01*
X135255333Y-83859714D01*
X135207714Y-83954952D01*
X135160095Y-84002571D01*
X135064857Y-84050190D01*
X134683904Y-84050190D01*
X136255333Y-84431142D02*
X136207714Y-84478761D01*
X136064857Y-84526380D01*
X135969619Y-84526380D01*
X135826761Y-84478761D01*
X135731523Y-84383523D01*
X135683904Y-84288285D01*
X135636285Y-84097809D01*
X135636285Y-83954952D01*
X135683904Y-83764476D01*
X135731523Y-83669238D01*
X135826761Y-83574000D01*
X135969619Y-83526380D01*
X136064857Y-83526380D01*
X136207714Y-83574000D01*
X136255333Y-83621619D01*
X136683904Y-84526380D02*
X136683904Y-83526380D01*
X137017238Y-84240666D01*
X137350571Y-83526380D01*
X137350571Y-84526380D01*
X138302952Y-83526380D02*
X137826761Y-83526380D01*
X137779142Y-84002571D01*
X137826761Y-83954952D01*
X137922000Y-83907333D01*
X138160095Y-83907333D01*
X138255333Y-83954952D01*
X138302952Y-84002571D01*
X138350571Y-84097809D01*
X138350571Y-84335904D01*
X138302952Y-84431142D01*
X138255333Y-84478761D01*
X138160095Y-84526380D01*
X137922000Y-84526380D01*
X137826761Y-84478761D01*
X137779142Y-84431142D01*
X139302952Y-84526380D02*
X138731523Y-84526380D01*
X139017238Y-84526380D02*
X139017238Y-83526380D01*
X138922000Y-83669238D01*
X138826761Y-83764476D01*
X138731523Y-83812095D01*
X139922000Y-83526380D02*
X140017238Y-83526380D01*
X140112476Y-83574000D01*
X140160095Y-83621619D01*
X140207714Y-83716857D01*
X140255333Y-83907333D01*
X140255333Y-84145428D01*
X140207714Y-84335904D01*
X140160095Y-84431142D01*
X140112476Y-84478761D01*
X140017238Y-84526380D01*
X139922000Y-84526380D01*
X139826761Y-84478761D01*
X139779142Y-84431142D01*
X139731523Y-84335904D01*
X139683904Y-84145428D01*
X139683904Y-83907333D01*
X139731523Y-83716857D01*
X139779142Y-83621619D01*
X139826761Y-83574000D01*
X139922000Y-83526380D01*
X140636285Y-83621619D02*
X140683904Y-83574000D01*
X140779142Y-83526380D01*
X141017238Y-83526380D01*
X141112476Y-83574000D01*
X141160095Y-83621619D01*
X141207714Y-83716857D01*
X141207714Y-83812095D01*
X141160095Y-83954952D01*
X140588666Y-84526380D01*
X141207714Y-84526380D01*
M02*
